<?xml version="1.0" encoding="utf-8"?>
<!-- Generator: Adobe Illustrator 23.0.1, SVG Export Plug-In . SVG Version: 6.00 Build 0)  -->
<svg version="1.1" id="Layer_1" xmlns="http://www.w3.org/2000/svg" xmlns:xlink="http://www.w3.org/1999/xlink" x="0px" y="0px"
	 viewBox="0 0 230 97" style="enable-background:new 0 0 230 97;" xml:space="preserve">
<style type="text/css">
	.st0{fill:#ADADAD;}
	.st1{fill:#E59F2E;}
	.st2{fill:#F4F4E6;}
	.st3{fill:#AF672C;}
	.st4{fill:#7D8D9C;}
	.st5{fill:#394D5C;}
	.st6{fill:#F9BB4B;}
	.st7{fill:#009BE8;}
	.st8{fill:#111111;}
	.st9{fill:#963412;}
</style>
<g>
	<path class="st0" d="M76.6,42.6h6.6v13.2h-6.6V42.6z"/>
	<path class="st1" d="M68.3,45.9h8.2v6.6h-8.2V45.9z"/>
	<path class="st0" d="M25.4,22.8h-9.9l3.3-21.4h6.6V22.8z"/>
	<path class="st0" d="M45.2,22.8h9.9L51.8,1.4h-6.6V22.8z"/>
	<path class="st0" d="M25.4,1.4h19.8V8H25.4V1.4z"/>
	<path class="st0" d="M25.4,75.6h-9.9L18.8,97h6.6V75.6z"/>
	<path class="st0" d="M45.2,75.6h9.9L51.8,97h-6.6V75.6z"/>
	<circle class="st0" cx="35.3" cy="49.2" r="34.6"/>
	<circle class="st2" cx="35.3" cy="49.2" r="28"/>
	<g>
		<path class="st3" d="M33.7,26.1H37v6.6h-3.3V26.1z"/>
		<path class="st3" d="M12.3,47.5h6.6v3.3h-6.6V47.5z"/>
		<path class="st3" d="M51.8,47.5h6.6v3.3h-6.6V47.5z"/>
		<path class="st3" d="M17.7,33.9l2.3-2.3l3.3,3.3L21,37.2L17.7,33.9z"/>
		<path class="st3" d="M47.4,34.8l3.3-3.3l2.3,2.3l-3.3,3.3L47.4,34.8z"/>
		<path class="st3" d="M17.7,64.5l3.3-3.3l2.3,2.3L20,66.8L17.7,64.5z"/>
		<path class="st3" d="M47.4,63.5l2.3-2.3l3.3,3.3l-2.3,2.3L47.4,63.5z"/>
	</g>
	<path class="st4" d="M41.9,64c0,3.6-2.9,6.6-6.6,6.6s-6.6-2.9-6.6-6.6c0-3,2-5.6,4.9-6.4c1.1-0.3,2.2-0.3,3.3,0
		C39.9,58.4,41.9,61,41.9,64z"/>
	<path class="st5" d="M37,57.6V64h-3.3v-6.4C34.8,57.4,35.9,57.4,37,57.6z"/>
	<path class="st5" d="M35,51.2L22.6,38.8l2.3-2.3l10.7,10.7l20.4-9.4l1.4,3L35,51.2z"/>
	<path class="st4" d="M30.4,36h9.9v3.3h-9.9V36z"/>
	<circle class="st6" cx="35.3" cy="49.2" r="4.9"/>
	<g>
		<path class="st7" d="M91.1,8.3l-2.8,23.9h-7.8c-0.7-3.7-1.3-7.8-1.9-12.5c-0.2,2-0.8,6.2-1.7,12.5h-7.7L66.4,8.3h6l0.7,8.3
			l0.6,8.1c0.2-4.2,0.8-9.6,1.7-16.4h6.5c0.1,0.7,0.3,3.3,0.7,7.9l0.7,9.1c0.4-5.8,0.9-11.4,1.7-17H91.1z"/>
		<path class="st7" d="M97.5,20.2h-5.6v-1.3c0-1.5,0.2-2.7,0.5-3.5c0.3-0.8,1.1-1.5,2.1-2.2s2.4-0.9,4.1-0.9c2,0,3.5,0.4,4.6,1.1
			s1.6,1.6,1.8,2.6c0.2,1,0.3,3.2,0.3,6.4v9.8h-5.8v-1.7c-0.4,0.7-0.8,1.2-1.4,1.6c-0.6,0.4-1.3,0.5-2.1,0.5c-1,0-2-0.3-2.9-0.9
			c-0.9-0.6-1.3-1.9-1.3-3.8v-1.6c0-1.5,0.2-2.5,0.7-3c0.5-0.5,1.6-1.2,3.4-1.9c2-0.8,3-1.3,3.1-1.6c0.1-0.3,0.2-0.8,0.2-1.6
			c0-1-0.1-1.7-0.2-2s-0.4-0.5-0.8-0.5c-0.4,0-0.7,0.1-0.8,0.4c-0.1,0.3-0.1,0.9-0.1,2V20.2z M99.3,22.9c-1,0.7-1.5,1.3-1.7,1.8
			c-0.2,0.5-0.2,1.2-0.2,2c0,1,0.1,1.7,0.2,2c0.1,0.3,0.4,0.4,0.8,0.4c0.4,0,0.6-0.1,0.7-0.3c0.1-0.2,0.2-0.8,0.2-1.8V22.9z"/>
		<path class="st7" d="M113.6,10v3.1h1.6v3.1h-1.6v10.5c0,1.3,0.1,2,0.2,2.2c0.1,0.1,0.7,0.2,1.7,0.2v3.2h-2.4
			c-1.4,0-2.3-0.1-2.9-0.2c-0.6-0.1-1.1-0.4-1.5-0.8c-0.4-0.4-0.7-0.9-0.8-1.4c-0.1-0.5-0.2-1.8-0.2-3.7v-9.9h-1.3v-3.1h1.3V10
			H113.6z"/>
		<path class="st7" d="M129.7,20h-5.6v-2.3c0-0.8-0.1-1.3-0.2-1.6c-0.1-0.3-0.4-0.4-0.7-0.4c-0.3,0-0.6,0.1-0.7,0.4
			c-0.1,0.2-0.2,0.8-0.2,1.7V27c0,0.7,0.1,1.2,0.3,1.6c0.2,0.3,0.4,0.5,0.8,0.5c0.4,0,0.7-0.2,0.8-0.5c0.1-0.4,0.2-1.1,0.2-2.1v-2.3
			h5.3c0,1.6-0.1,2.7-0.2,3.5c-0.1,0.8-0.4,1.6-1,2.4c-0.6,0.8-1.3,1.4-2.2,1.9c-0.9,0.4-2,0.6-3.3,0.6c-1.7,0-3-0.3-4-0.9
			s-1.7-1.4-2.1-2.4c-0.4-1-0.6-2.5-0.6-4.4v-5.6c0-1.7,0.2-2.9,0.5-3.8s1-1.6,2.1-2.3c1.1-0.7,2.4-1,4-1c1.6,0,2.9,0.3,4,1
			c1.1,0.7,1.8,1.5,2.2,2.5S129.7,18.2,129.7,20z"/>
		<path class="st7" d="M137.5,8.3v5.4c0.5-0.5,1.1-0.8,1.7-1.1c0.6-0.2,1.2-0.4,1.9-0.4c1,0,1.9,0.3,2.7,0.8
			c0.7,0.5,1.2,1.1,1.3,1.8s0.2,2,0.2,3.8v13.5h-6V18.5c0-1.1-0.1-1.9-0.2-2.2s-0.4-0.5-0.8-0.5c-0.4,0-0.6,0.2-0.7,0.5
			s-0.2,1-0.2,2v14h-6V8.3H137.5z"/>
		<path class="st7" d="M167.2,8.3v23.9h-6.2v-10h-1.9v10h-6.2V8.3h6.2v8.5h1.9V8.3H167.2z"/>
		<path class="st7" d="M183,19.5v4.8c0,1.8-0.1,3.1-0.3,3.9c-0.2,0.8-0.6,1.6-1.1,2.3c-0.6,0.7-1.3,1.2-2.2,1.6
			c-0.9,0.3-2,0.5-3.1,0.5c-1.3,0-2.4-0.1-3.4-0.4c-0.9-0.3-1.6-0.7-2.1-1.3c-0.5-0.6-0.9-1.3-1.1-2.1c-0.2-0.8-0.3-2.1-0.3-3.7v-5
			c0-1.8,0.2-3.2,0.6-4.3s1.1-1.8,2.1-2.5c1-0.6,2.3-0.9,3.9-0.9c1.3,0,2.5,0.2,3.4,0.6c1,0.4,1.7,0.9,2.2,1.6
			c0.5,0.6,0.9,1.3,1.1,2C182.9,17.1,183,18.1,183,19.5z M177,18.1c0-1-0.1-1.6-0.2-1.9c-0.1-0.3-0.3-0.4-0.7-0.4s-0.6,0.1-0.7,0.4
			s-0.2,0.9-0.2,1.9v8.8c0,0.9,0.1,1.5,0.2,1.8s0.3,0.4,0.7,0.4c0.4,0,0.6-0.1,0.7-0.4s0.2-0.8,0.2-1.7V18.1z"/>
		<path class="st7" d="M198.6,12.7v19.6h-6.1l0.1-1.6c-0.4,0.7-0.9,1.2-1.5,1.5c-0.6,0.3-1.3,0.5-2.1,0.5c-0.9,0-1.6-0.2-2.2-0.5
			c-0.6-0.3-1-0.7-1.3-1.3s-0.5-1.1-0.5-1.6c-0.1-0.6-0.1-1.7-0.1-3.4V12.7h6V26c0,1.5,0,2.4,0.1,2.7c0.1,0.3,0.3,0.4,0.8,0.4
			c0.4,0,0.7-0.1,0.8-0.4c0.1-0.3,0.1-1.2,0.1-2.8V12.7H198.6z"/>
		<path class="st7" d="M212.9,18.9h-5.3v-1.1c0-0.9-0.1-1.5-0.2-1.7c-0.1-0.2-0.4-0.4-0.8-0.4c-0.3,0-0.6,0.1-0.8,0.3
			c-0.2,0.2-0.3,0.6-0.3,1c0,0.6,0,1,0.1,1.3c0.1,0.3,0.3,0.6,0.8,0.9c0.4,0.3,1.3,0.8,2.6,1.5c1.7,0.8,2.9,1.6,3.4,2.4
			c0.5,0.7,0.8,1.8,0.8,3.3c0,1.6-0.2,2.8-0.6,3.6c-0.4,0.8-1.1,1.4-2.1,1.9c-1,0.4-2.1,0.7-3.5,0.7c-1.5,0-2.8-0.2-3.9-0.7
			c-1.1-0.5-1.8-1.1-2.2-1.9c-0.4-0.8-0.6-2-0.6-3.7v-0.9h5.3v1.2c0,1.1,0.1,1.7,0.2,2.1s0.4,0.5,0.8,0.5c0.4,0,0.7-0.1,0.9-0.3
			c0.2-0.2,0.3-0.7,0.3-1.3c0-0.9-0.1-1.5-0.3-1.8c-0.2-0.2-1.4-0.9-3.5-2.1c-1.8-1-2.8-1.9-3.2-2.7c-0.4-0.8-0.6-1.8-0.6-2.9
			c0-1.6,0.2-2.7,0.6-3.5c0.4-0.7,1.1-1.3,2.1-1.7c1-0.4,2.1-0.6,3.4-0.6c1.3,0,2.4,0.2,3.3,0.5s1.6,0.8,2.1,1.3
			c0.5,0.5,0.8,1,0.9,1.5c0.1,0.5,0.2,1.2,0.2,2.2V18.9z"/>
		<path class="st7" d="M228.5,22.8h-7.7V27c0,0.9,0.1,1.5,0.2,1.7s0.4,0.4,0.7,0.4c0.5,0,0.8-0.2,0.9-0.5c0.2-0.3,0.2-1,0.2-2v-2.6
			h5.7v1.4c0,1.2-0.1,2.1-0.2,2.8s-0.5,1.3-1.1,2.1c-0.6,0.7-1.3,1.3-2.1,1.7s-1.9,0.6-3.2,0.6c-1.3,0-2.4-0.2-3.3-0.5
			c-1-0.4-1.7-0.9-2.3-1.5c-0.5-0.6-0.9-1.3-1.1-2.1c-0.2-0.8-0.3-1.9-0.3-3.3v-5.7c0-1.7,0.2-3.1,0.7-4.1c0.5-1,1.2-1.7,2.3-2.3
			c1.1-0.5,2.3-0.8,3.6-0.8c1.7,0,3.1,0.3,4.1,1c1.1,0.6,1.8,1.5,2.3,2.5c0.4,1,0.7,2.5,0.7,4.4V22.8z M222.5,19.6v-1.4
			c0-1-0.1-1.7-0.2-2c-0.1-0.3-0.3-0.4-0.7-0.4c-0.4,0-0.7,0.1-0.8,0.4c-0.1,0.3-0.1,0.9-0.1,2v1.4H222.5z"/>
	</g>
	<g>
		<path class="st8" d="M95.5,44.8l1.7,11.4h-3L94,54.2h-1.1l-0.2,2.1h-3.1l1.5-11.4H95.5z M93.9,52.2c-0.2-1.3-0.3-2.9-0.5-4.8
			c-0.3,2.2-0.5,3.8-0.6,4.8H93.9z"/>
		<path class="st8" d="M103,44.8v2.7c0.2-0.3,0.5-0.5,0.8-0.6c0.3-0.1,0.6-0.2,0.9-0.2c0.4,0,0.7,0.1,1,0.2c0.3,0.1,0.5,0.3,0.7,0.5
			c0.2,0.2,0.2,0.4,0.3,0.7s0,0.7,0,1.4v4.2c0,0.7,0,1.2-0.1,1.5s-0.3,0.6-0.6,0.9c-0.3,0.2-0.7,0.4-1.2,0.4c-0.3,0-0.6-0.1-0.9-0.2
			c-0.3-0.1-0.6-0.4-0.8-0.7l-0.2,0.7h-2.7V44.8H103z M103.9,49.6c0-0.5,0-0.8-0.1-1c-0.1-0.1-0.2-0.2-0.4-0.2
			c-0.2,0-0.3,0.1-0.3,0.2c-0.1,0.1-0.1,0.5-0.1,1v4c0,0.5,0,0.8,0.1,1c0.1,0.1,0.2,0.2,0.4,0.2c0.2,0,0.3-0.1,0.4-0.2
			c0.1-0.1,0.1-0.5,0.1-1.1V49.6z"/>
		<path class="st8" d="M114.1,51.7h-3.7v2c0,0.4,0,0.7,0.1,0.8c0.1,0.1,0.2,0.2,0.4,0.2c0.2,0,0.4-0.1,0.4-0.2
			c0.1-0.2,0.1-0.5,0.1-0.9v-1.2h2.7V53c0,0.6,0,1-0.1,1.3c-0.1,0.3-0.2,0.6-0.5,1s-0.6,0.6-1,0.8c-0.4,0.2-0.9,0.3-1.6,0.3
			c-0.6,0-1.1-0.1-1.6-0.3c-0.5-0.2-0.8-0.4-1.1-0.7s-0.4-0.6-0.5-1c-0.1-0.4-0.1-0.9-0.1-1.6v-2.7c0-0.8,0.1-1.5,0.3-1.9
			c0.2-0.5,0.6-0.8,1.1-1.1c0.5-0.3,1.1-0.4,1.7-0.4c0.8,0,1.5,0.2,2,0.5c0.5,0.3,0.9,0.7,1.1,1.2c0.2,0.5,0.3,1.2,0.3,2.1V51.7z
			 M111.3,50.2v-0.7c0-0.5,0-0.8-0.1-0.9c-0.1-0.1-0.2-0.2-0.3-0.2c-0.2,0-0.3,0.1-0.4,0.2c0,0.1-0.1,0.4-0.1,1v0.7H111.3z"/>
		<path class="st8" d="M118,44.8v11.4h-2.9V44.8H118z"/>
		<path class="st8" d="M125.5,51.7h-3.7v2c0,0.4,0,0.7,0.1,0.8c0.1,0.1,0.2,0.2,0.4,0.2c0.2,0,0.4-0.1,0.4-0.2
			c0.1-0.2,0.1-0.5,0.1-0.9v-1.2h2.7V53c0,0.6,0,1-0.1,1.3c-0.1,0.3-0.2,0.6-0.5,1s-0.6,0.6-1,0.8s-0.9,0.3-1.6,0.3
			c-0.6,0-1.1-0.1-1.6-0.3c-0.5-0.2-0.8-0.4-1.1-0.7s-0.4-0.6-0.5-1c-0.1-0.4-0.1-0.9-0.1-1.6v-2.7c0-0.8,0.1-1.5,0.3-1.9
			c0.2-0.5,0.6-0.8,1.1-1.1c0.5-0.3,1.1-0.4,1.7-0.4c0.8,0,1.5,0.2,2,0.5c0.5,0.3,0.9,0.7,1.1,1.2c0.2,0.5,0.3,1.2,0.3,2.1V51.7z
			 M122.6,50.2v-0.7c0-0.5,0-0.8-0.1-0.9c-0.1-0.1-0.2-0.2-0.3-0.2c-0.2,0-0.3,0.1-0.4,0.2c0,0.1-0.1,0.4-0.1,1v0.7H122.6z"/>
		<path class="st8" d="M132.4,46.9l-1.3,9.4h-3.7l-1.4-9.4h2.5l0.8,6.8c0.1-0.5,0.2-1.7,0.3-3.7c0.1-1.1,0.2-2.1,0.3-3.2H132.4z"/>
		<path class="st8" d="M135.3,50.5h-2.7v-0.6c0-0.7,0.1-1.3,0.3-1.7c0.2-0.4,0.5-0.7,1-1c0.5-0.3,1.2-0.5,2-0.5c1,0,1.7,0.2,2.2,0.5
			c0.5,0.3,0.8,0.8,0.9,1.3c0.1,0.5,0.1,1.5,0.1,3.1v4.7h-2.8v-0.8c-0.2,0.3-0.4,0.6-0.7,0.8c-0.3,0.2-0.6,0.3-1,0.3
			c-0.5,0-1-0.1-1.4-0.4s-0.6-0.9-0.6-1.8v-0.8c0-0.7,0.1-1.2,0.3-1.4c0.2-0.3,0.8-0.6,1.6-0.9c0.9-0.4,1.4-0.6,1.5-0.7
			c0.1-0.1,0.1-0.4,0.1-0.8c0-0.5,0-0.8-0.1-1s-0.2-0.2-0.4-0.2c-0.2,0-0.3,0.1-0.4,0.2c0,0.1-0.1,0.4-0.1,1V50.5z M136.2,51.8
			c-0.5,0.3-0.7,0.6-0.8,0.8c-0.1,0.2-0.1,0.6-0.1,1c0,0.5,0,0.8,0.1,0.9c0.1,0.1,0.2,0.2,0.4,0.2c0.2,0,0.3-0.1,0.3-0.2
			c0.1-0.1,0.1-0.4,0.1-0.9V51.8z"/>
		<path class="st8" d="M142.9,44.8v2.7c0.2-0.3,0.5-0.5,0.8-0.6c0.3-0.1,0.6-0.2,0.9-0.2c0.4,0,0.7,0.1,1,0.2
			c0.3,0.1,0.5,0.3,0.7,0.5c0.2,0.2,0.2,0.4,0.3,0.7c0,0.2,0,0.7,0,1.4v4.2c0,0.7,0,1.2-0.1,1.5c-0.1,0.3-0.3,0.6-0.6,0.9
			c-0.3,0.2-0.7,0.4-1.2,0.4c-0.3,0-0.6-0.1-0.9-0.2c-0.3-0.1-0.6-0.4-0.8-0.7l-0.2,0.7h-2.7V44.8H142.9z M143.8,49.6
			c0-0.5,0-0.8-0.1-1c-0.1-0.1-0.2-0.2-0.4-0.2c-0.2,0-0.3,0.1-0.3,0.2c-0.1,0.1-0.1,0.5-0.1,1v4c0,0.5,0,0.8,0.1,1
			c0.1,0.1,0.2,0.2,0.3,0.2c0.2,0,0.3-0.1,0.3-0.2c0.1-0.1,0.1-0.5,0.1-1.1V49.6z"/>
		<path class="st8" d="M150.5,44.8v11.4h-2.9V44.8H150.5z"/>
		<path class="st8" d="M158,51.7h-3.7v2c0,0.4,0,0.7,0.1,0.8c0.1,0.1,0.2,0.2,0.4,0.2c0.2,0,0.4-0.1,0.4-0.2
			c0.1-0.2,0.1-0.5,0.1-0.9v-1.2h2.7V53c0,0.6,0,1-0.1,1.3c-0.1,0.3-0.2,0.6-0.5,1s-0.6,0.6-1,0.8s-0.9,0.3-1.6,0.3
			c-0.6,0-1.1-0.1-1.6-0.3c-0.5-0.2-0.8-0.4-1.1-0.7s-0.4-0.6-0.5-1c-0.1-0.4-0.1-0.9-0.1-1.6v-2.7c0-0.8,0.1-1.5,0.3-1.9
			c0.2-0.5,0.6-0.8,1.1-1.1c0.5-0.3,1.1-0.4,1.7-0.4c0.8,0,1.5,0.2,2,0.5c0.5,0.3,0.9,0.7,1.1,1.2c0.2,0.5,0.3,1.2,0.3,2.1V51.7z
			 M155.2,50.2v-0.7c0-0.5,0-0.8-0.1-0.9c-0.1-0.1-0.2-0.2-0.3-0.2c-0.2,0-0.3,0.1-0.4,0.2c0,0.1-0.1,0.4-0.1,1v0.7H155.2z"/>
		<path class="st8" d="M170.7,46.9l-1.1,9.4h-3.1c-0.2-1.1-0.4-2.7-0.6-4.5c-0.1,0.8-0.2,1.7-0.3,2.5l-0.3,2h-3.1l-1.2-9.4h2.5
			c0,0.2,0.2,2,0.6,5.4c0-0.3,0.2-2.1,0.6-5.4h2.4l0.6,5.4c0.1-1.6,0.3-3.4,0.7-5.4H170.7z"/>
		<path class="st8" d="M173.7,50.5h-2.7v-0.6c0-0.7,0.1-1.3,0.3-1.7c0.2-0.4,0.5-0.7,1-1c0.5-0.3,1.2-0.5,2-0.5c1,0,1.7,0.2,2.2,0.5
			c0.5,0.3,0.8,0.8,0.9,1.3c0.1,0.5,0.1,1.5,0.1,3.1v4.7h-2.8v-0.8c-0.2,0.3-0.4,0.6-0.7,0.8c-0.3,0.2-0.6,0.3-1,0.3
			c-0.5,0-1-0.1-1.4-0.4s-0.6-0.9-0.6-1.8v-0.8c0-0.7,0.1-1.2,0.3-1.4c0.2-0.3,0.8-0.6,1.6-0.9c0.9-0.4,1.4-0.6,1.5-0.7
			c0.1-0.1,0.1-0.4,0.1-0.8c0-0.5,0-0.8-0.1-1s-0.2-0.2-0.4-0.2c-0.2,0-0.3,0.1-0.4,0.2c0,0.1-0.1,0.4-0.1,1V50.5z M174.7,51.8
			c-0.5,0.3-0.7,0.6-0.8,0.8c-0.1,0.2-0.1,0.6-0.1,1c0,0.5,0,0.8,0.1,0.9c0.1,0.1,0.2,0.2,0.4,0.2c0.2,0,0.3-0.1,0.3-0.2
			c0.1-0.1,0.1-0.4,0.1-0.9V51.8z"/>
		<path class="st8" d="M181.5,45.6v1.5h0.8v1.5h-0.8v5c0,0.6,0,1,0.1,1c0.1,0.1,0.3,0.1,0.8,0.1v1.5h-1.2c-0.7,0-1.1,0-1.4-0.1
			c-0.3-0.1-0.5-0.2-0.7-0.4s-0.3-0.4-0.4-0.7c-0.1-0.3-0.1-0.8-0.1-1.8v-4.8H178v-1.5h0.6v-1.5H181.5z"/>
		<path class="st8" d="M189.2,50.4h-2.7v-1.1c0-0.4,0-0.6-0.1-0.8c-0.1-0.1-0.2-0.2-0.3-0.2s-0.3,0.1-0.3,0.2s-0.1,0.4-0.1,0.8v4.4
			c0,0.3,0,0.6,0.1,0.8s0.2,0.3,0.4,0.3c0.2,0,0.3-0.1,0.4-0.3c0.1-0.2,0.1-0.5,0.1-1v-1.1h2.5c0,0.7,0,1.3-0.1,1.7
			c0,0.4-0.2,0.8-0.5,1.2c-0.3,0.4-0.6,0.7-1,0.9s-1,0.3-1.6,0.3c-0.8,0-1.4-0.1-1.9-0.4c-0.5-0.3-0.8-0.7-1-1.2
			c-0.2-0.5-0.3-1.2-0.3-2.1v-2.7c0-0.8,0.1-1.4,0.2-1.8s0.5-0.8,1-1.1c0.5-0.3,1.2-0.5,1.9-0.5c0.7,0,1.4,0.2,1.9,0.5
			c0.5,0.3,0.9,0.7,1.1,1.2C189.1,48.9,189.2,49.5,189.2,50.4z"/>
		<path class="st8" d="M192.9,44.8v2.6c0.2-0.2,0.5-0.4,0.8-0.5c0.3-0.1,0.6-0.2,0.9-0.2c0.5,0,0.9,0.1,1.3,0.4
			c0.4,0.3,0.6,0.5,0.6,0.9s0.1,0.9,0.1,1.8v6.5h-2.9v-6.6c0-0.5,0-0.9-0.1-1.1c-0.1-0.2-0.2-0.2-0.4-0.2c-0.2,0-0.3,0.1-0.4,0.2
			c-0.1,0.2-0.1,0.5-0.1,1v6.7h-2.9V44.8H192.9z"/>
		<path class="st8" d="M206,49.9h-2.5v-0.5c0-0.4,0-0.7-0.1-0.8c0-0.1-0.2-0.2-0.4-0.2c-0.2,0-0.3,0.1-0.4,0.2
			c-0.1,0.1-0.1,0.3-0.1,0.5c0,0.3,0,0.5,0.1,0.6c0,0.1,0.2,0.3,0.4,0.4s0.6,0.4,1.2,0.7c0.8,0.4,1.4,0.8,1.6,1.1
			c0.3,0.4,0.4,0.9,0.4,1.6c0,0.8-0.1,1.3-0.3,1.7c-0.2,0.4-0.5,0.7-1,0.9c-0.5,0.2-1,0.3-1.7,0.3c-0.7,0-1.3-0.1-1.9-0.3
			c-0.5-0.2-0.9-0.5-1.1-0.9c-0.2-0.4-0.3-1-0.3-1.8V53h2.5v0.6c0,0.5,0,0.8,0.1,1c0.1,0.2,0.2,0.2,0.4,0.2c0.2,0,0.3-0.1,0.4-0.2
			s0.1-0.3,0.1-0.6c0-0.4-0.1-0.7-0.2-0.8c-0.1-0.1-0.7-0.4-1.7-1c-0.8-0.5-1.4-0.9-1.5-1.3c-0.2-0.4-0.3-0.8-0.3-1.4
			c0-0.7,0.1-1.3,0.3-1.7s0.5-0.6,1-0.8c0.5-0.2,1-0.3,1.7-0.3c0.6,0,1.2,0.1,1.6,0.2c0.4,0.2,0.8,0.4,1,0.6s0.4,0.5,0.4,0.7
			c0,0.2,0.1,0.6,0.1,1V49.9z"/>
		<path class="st8" d="M209.9,44.8v2.6c0.2-0.2,0.5-0.4,0.8-0.5c0.3-0.1,0.6-0.2,0.9-0.2c0.5,0,0.9,0.1,1.3,0.4
			c0.4,0.3,0.6,0.5,0.6,0.9s0.1,0.9,0.1,1.8v6.5h-2.9v-6.6c0-0.5,0-0.9-0.1-1.1c-0.1-0.2-0.2-0.2-0.4-0.2c-0.2,0-0.3,0.1-0.4,0.2
			c-0.1,0.2-0.1,0.5-0.1,1v6.7H207V44.8H209.9z"/>
		<path class="st8" d="M221.1,50.2v2.3c0,0.8,0,1.5-0.1,1.9c-0.1,0.4-0.3,0.8-0.5,1.1c-0.3,0.3-0.6,0.6-1.1,0.8
			c-0.4,0.2-0.9,0.2-1.5,0.2c-0.6,0-1.2-0.1-1.6-0.2c-0.4-0.1-0.8-0.3-1-0.6c-0.2-0.3-0.4-0.6-0.5-1c-0.1-0.4-0.2-1-0.2-1.8v-2.4
			c0-0.9,0.1-1.6,0.3-2c0.2-0.5,0.5-0.9,1-1.2s1.1-0.4,1.9-0.4c0.6,0,1.2,0.1,1.7,0.3c0.5,0.2,0.8,0.4,1.1,0.7
			c0.2,0.3,0.4,0.6,0.5,0.9C221,49,221.1,49.5,221.1,50.2z M218.2,49.5c0-0.5,0-0.8-0.1-0.9c-0.1-0.1-0.2-0.2-0.3-0.2
			c-0.2,0-0.3,0.1-0.3,0.2c-0.1,0.1-0.1,0.4-0.1,0.9v4.2c0,0.4,0,0.7,0.1,0.9c0.1,0.1,0.2,0.2,0.3,0.2c0.2,0,0.3-0.1,0.3-0.2
			c0.1-0.1,0.1-0.4,0.1-0.8V49.5z"/>
		<path class="st8" d="M224.9,46.9l0,0.8c0.3-0.3,0.5-0.6,0.8-0.8c0.3-0.2,0.6-0.2,1-0.2c0.4,0,0.8,0.1,1.1,0.4
			c0.3,0.2,0.5,0.5,0.6,0.8c0.1,0.3,0.1,0.8,0.1,1.6v4c0,0.9,0,1.5-0.2,1.8s-0.3,0.6-0.6,0.9c-0.3,0.2-0.7,0.3-1.1,0.3
			c-0.4,0-0.7-0.1-1-0.2s-0.6-0.4-0.8-0.7v2.2H222V46.9H224.9z M225.7,49.6c0-0.6,0-0.9-0.1-1.1c0-0.1-0.2-0.2-0.4-0.2
			c-0.2,0-0.3,0.1-0.4,0.2c-0.1,0.1-0.1,0.5-0.1,1v3.9c0,0.6,0,0.9,0.1,1.1c0.1,0.1,0.2,0.2,0.4,0.2c0.2,0,0.3-0.1,0.3-0.2
			c0-0.1,0.1-0.4,0.1-0.9V49.6z"/>
	</g>
	<g>
		<path class="st9" d="M75.2,68.8v16.9h-5.6V68.8H75.2z"/>
		<path class="st9" d="M82.7,71.8l-0.1,1.3c0.4-0.5,0.9-0.9,1.4-1.1c0.6-0.3,1.2-0.4,2-0.4c0.9,0,1.7,0.2,2.3,0.5
			c0.6,0.3,1,0.8,1.1,1.3s0.3,1.4,0.3,2.6v9.7h-5.4v-9.6c0-1,0-1.5-0.1-1.7S83.9,74,83.5,74c-0.4,0-0.6,0.1-0.7,0.4
			c-0.1,0.2-0.1,0.9-0.1,1.9v9.4h-5.4V71.8H82.7z"/>
		<path class="st9" d="M96.5,68.8h5.6c1.8,0,3.1,0.1,4,0.3s1.6,0.7,2.2,1.3s0.8,1.7,0.8,3.2c0,1-0.2,1.7-0.6,2.1
			c-0.4,0.4-1.2,0.7-2.3,0.9c1.3,0.2,2.2,0.6,2.6,1.1c0.5,0.5,0.7,1.4,0.7,2.5v1.6c0,1.1-0.2,2-0.5,2.5c-0.3,0.6-0.9,0.9-1.6,1.1
			c-0.7,0.2-2.2,0.3-4.5,0.3h-6.5V68.8z M102.1,71.7v3.8c0.2,0,0.4,0,0.6,0c0.6,0,0.9-0.1,1.1-0.3c0.2-0.2,0.2-0.8,0.2-1.8
			c0-0.5-0.1-0.9-0.2-1.1c-0.1-0.2-0.3-0.3-0.5-0.4C103.1,71.7,102.7,71.7,102.1,71.7z M102.1,78.1v4.7c0.8,0,1.3-0.1,1.5-0.3
			c0.2-0.2,0.3-0.6,0.3-1.3v-1.6c0-0.7-0.1-1.2-0.3-1.3S102.9,78.1,102.1,78.1z"/>
		<path class="st9" d="M116.2,77.2h-5v-0.9c0-1.1,0.2-1.9,0.5-2.5c0.3-0.6,0.9-1.1,1.9-1.5s2.2-0.7,3.7-0.7c1.8,0,3.2,0.3,4.1,0.8
			c0.9,0.5,1.5,1.1,1.7,1.9s0.3,2.3,0.3,4.5v7h-5.2v-1.2c-0.3,0.5-0.8,0.9-1.3,1.1c-0.5,0.2-1.1,0.4-1.9,0.4c-0.9,0-1.8-0.2-2.6-0.6
			c-0.8-0.4-1.2-1.3-1.2-2.7v-1.1c0-1,0.2-1.7,0.6-2.1c0.4-0.4,1.5-0.8,3.1-1.3c1.8-0.5,2.7-0.9,2.8-1.1s0.2-0.6,0.2-1.2
			c0-0.7-0.1-1.2-0.2-1.4c-0.1-0.2-0.4-0.3-0.7-0.3c-0.4,0-0.6,0.1-0.7,0.3c-0.1,0.2-0.1,0.7-0.1,1.4V77.2z M117.9,79.1
			c-0.9,0.5-1.4,0.9-1.5,1.2c-0.1,0.3-0.2,0.8-0.2,1.4c0,0.7,0.1,1.2,0.2,1.4c0.1,0.2,0.4,0.3,0.7,0.3c0.3,0,0.6-0.1,0.7-0.2
			s0.2-0.6,0.2-1.3V79.1z"/>
		<path class="st9" d="M130.6,71.8l-0.1,1.3c0.4-0.5,0.9-0.9,1.4-1.1s1.2-0.4,2-0.4c0.9,0,1.7,0.2,2.3,0.5c0.6,0.3,1,0.8,1.1,1.3
			c0.2,0.5,0.3,1.4,0.3,2.6v9.7h-5.4v-9.6c0-1,0-1.5-0.1-1.7c-0.1-0.2-0.3-0.3-0.7-0.3c-0.4,0-0.6,0.1-0.7,0.4
			c-0.1,0.2-0.1,0.9-0.1,1.9v9.4h-5.4V71.8H130.6z"/>
		<path class="st9" d="M151.6,71.8v10.7c0,1.4,0,2.4-0.1,2.8c-0.1,0.4-0.4,0.9-0.9,1.3s-1.2,0.8-2.2,1.1c-0.9,0.2-2.1,0.4-3.5,0.4
			c-1.7,0-3.1-0.2-4.1-0.7c-1-0.5-1.6-1.4-1.6-2.7h5.2c0,0.6,0.3,0.9,0.9,0.9c0.4,0,0.7-0.1,0.8-0.3c0.1-0.2,0.2-0.6,0.2-1.2v-1
			c-0.5,0.3-0.9,0.6-1.5,0.7c-0.5,0.2-1,0.3-1.6,0.3c-1,0-1.8-0.2-2.4-0.5s-1.1-0.7-1.3-1.2c-0.2-0.5-0.3-1.2-0.3-2.1v-5
			c0-1.3,0.3-2.3,0.9-2.8c0.6-0.6,1.5-0.9,2.8-0.9c0.7,0,1.3,0.1,1.8,0.3c0.6,0.2,1,0.5,1.5,1l0.4-1H151.6z M146.2,75.5
			c0-0.6,0-1-0.1-1.2c-0.1-0.2-0.3-0.3-0.6-0.3c-0.3,0-0.5,0.1-0.7,0.3c-0.1,0.2-0.2,0.6-0.2,1.2v4.7c0,0.6,0,1,0.1,1.2
			c0.1,0.2,0.3,0.3,0.6,0.3c0.4,0,0.6-0.1,0.7-0.3c0.1-0.2,0.2-0.7,0.2-1.5V75.5z"/>
		<path class="st9" d="M159.1,68.8v16.9h-5.5V68.8H159.1z"/>
		<path class="st9" d="M165.8,77.2h-5v-0.9c0-1.1,0.2-1.9,0.5-2.5c0.3-0.6,0.9-1.1,1.9-1.5c0.9-0.4,2.2-0.7,3.7-0.7
			c1.8,0,3.2,0.3,4.1,0.8c0.9,0.5,1.5,1.1,1.7,1.9c0.2,0.7,0.3,2.3,0.3,4.5v7h-5.2v-1.2c-0.3,0.5-0.8,0.9-1.3,1.1
			c-0.5,0.2-1.1,0.4-1.9,0.4c-0.9,0-1.8-0.2-2.6-0.6c-0.8-0.4-1.2-1.3-1.2-2.7v-1.1c0-1,0.2-1.7,0.6-2.1c0.4-0.4,1.5-0.8,3.1-1.3
			c1.8-0.5,2.7-0.9,2.8-1.1c0.1-0.2,0.2-0.6,0.2-1.2c0-0.7-0.1-1.2-0.2-1.4c-0.1-0.2-0.4-0.3-0.7-0.3c-0.4,0-0.6,0.1-0.7,0.3
			s-0.1,0.7-0.1,1.4V77.2z M167.5,79.1c-0.9,0.5-1.4,0.9-1.5,1.2c-0.1,0.3-0.2,0.8-0.2,1.4c0,0.7,0.1,1.2,0.2,1.4
			c0.1,0.2,0.4,0.3,0.7,0.3c0.3,0,0.6-0.1,0.7-0.2c0.1-0.2,0.2-0.6,0.2-1.3V79.1z"/>
		<path class="st9" d="M187,68.8v16.9h-5.4v-1c-0.5,0.4-1.1,0.7-1.6,0.9c-0.6,0.2-1.2,0.3-1.8,0.3c-0.8,0-1.6-0.2-2.2-0.5
			s-1-0.7-1.2-1.2s-0.3-1.2-0.3-2.2v-6.5c0-1.1,0.1-1.8,0.3-2.3s0.6-0.8,1.2-1.2s1.4-0.5,2.2-0.5c0.7,0,1.3,0.1,1.8,0.3
			c0.6,0.2,1.1,0.5,1.5,0.8v-3.9H187z M181.6,75.3c0-0.5-0.1-0.9-0.2-1c-0.1-0.2-0.3-0.3-0.7-0.3c-0.3,0-0.5,0.1-0.6,0.2
			c-0.1,0.2-0.2,0.5-0.2,1.1v6.8c0,0.6,0.1,0.9,0.2,1.1s0.3,0.3,0.6,0.3c0.3,0,0.6-0.1,0.7-0.3c0.1-0.2,0.2-0.7,0.2-1.5V75.3z"/>
		<path class="st9" d="M201.1,79h-7v3c0,0.6,0.1,1,0.2,1.2c0.1,0.2,0.3,0.3,0.7,0.3c0.4,0,0.7-0.1,0.8-0.4c0.1-0.2,0.2-0.7,0.2-1.4
			v-1.8h5.1v1c0,0.9-0.1,1.5-0.2,2s-0.5,1-1,1.5c-0.5,0.5-1.1,0.9-1.9,1.2c-0.8,0.3-1.8,0.4-2.9,0.4c-1.1,0-2.1-0.1-3-0.4
			c-0.9-0.3-1.5-0.6-2-1.1c-0.5-0.4-0.8-0.9-1-1.5c-0.2-0.5-0.3-1.3-0.3-2.4v-4c0-1.2,0.2-2.2,0.6-2.9c0.4-0.7,1.1-1.2,2-1.6
			c0.9-0.4,2-0.6,3.3-0.6c1.5,0,2.8,0.2,3.7,0.7c1,0.5,1.7,1,2.1,1.8c0.4,0.7,0.6,1.8,0.6,3.1V79z M195.7,76.7v-1
			c0-0.7,0-1.2-0.1-1.4s-0.3-0.3-0.6-0.3c-0.4,0-0.6,0.1-0.7,0.3c-0.1,0.2-0.1,0.7-0.1,1.4v1H195.7z"/>
		<path class="st9" d="M213.8,76.2h-4.8v-0.8c0-0.6,0-1-0.1-1.2c-0.1-0.2-0.3-0.3-0.7-0.3c-0.3,0-0.5,0.1-0.7,0.2
			c-0.2,0.2-0.2,0.4-0.2,0.7c0,0.4,0,0.7,0.1,0.9c0.1,0.2,0.3,0.4,0.7,0.7c0.4,0.2,1.2,0.6,2.3,1c1.6,0.6,2.6,1.2,3.1,1.7
			c0.5,0.5,0.7,1.3,0.7,2.3c0,1.1-0.2,2-0.6,2.6s-1,1-1.9,1.3c-0.9,0.3-1.9,0.5-3.2,0.5c-1.4,0-2.5-0.2-3.5-0.5s-1.6-0.8-2-1.4
			c-0.4-0.6-0.5-1.4-0.5-2.6v-0.7h4.8v0.9c0,0.7,0.1,1.2,0.2,1.5c0.1,0.2,0.4,0.3,0.7,0.3c0.4,0,0.6-0.1,0.8-0.2
			c0.2-0.1,0.2-0.5,0.2-0.9c0-0.7-0.1-1.1-0.3-1.2c-0.2-0.2-1.2-0.7-3.1-1.5c-1.6-0.7-2.5-1.3-2.9-1.9c-0.3-0.6-0.5-1.2-0.5-2
			c0-1.1,0.2-1.9,0.6-2.5s1-0.9,1.9-1.2c0.9-0.3,1.9-0.4,3.1-0.4c1.2,0,2.2,0.1,3,0.3c0.8,0.2,1.5,0.5,1.9,0.9
			c0.4,0.4,0.7,0.7,0.8,1.1c0.1,0.3,0.1,0.8,0.1,1.5V76.2z"/>
		<path class="st9" d="M221.1,68.8v3.8c0.5-0.3,1-0.6,1.5-0.8c0.5-0.2,1.1-0.3,1.7-0.3c0.9,0,1.7,0.2,2.4,0.6s1.1,0.8,1.2,1.3
			s0.2,1.4,0.2,2.7v9.6h-5.4v-9.8c0-0.8-0.1-1.3-0.2-1.6c-0.1-0.2-0.3-0.3-0.7-0.3c-0.3,0-0.6,0.1-0.7,0.4c-0.1,0.2-0.2,0.7-0.2,1.4
			v9.9h-5.4V68.8H221.1z"/>
	</g>
</g>
</svg>
