<?xml version="1.0" encoding="utf-8"?>
<!-- Generator: Adobe Illustrator 23.0.1, SVG Export Plug-In . SVG Version: 6.00 Build 0)  -->
<svg version="1.1" id="Layer_1" xmlns="http://www.w3.org/2000/svg" xmlns:xlink="http://www.w3.org/1999/xlink" x="0px" y="0px"
	 viewBox="0 0 25 25" style="enable-background:new 0 0 25 25;" xml:space="preserve">
<style type="text/css">
	.st0{filter:url(#Adobe_OpacityMaskFilter);}
	.st1{fill-rule:evenodd;clip-rule:evenodd;fill:#FFFFFF;}
	.st2{mask:url(#zpyi7z4vhc_1_);}
	.st3{fill-rule:evenodd;clip-rule:evenodd;}
</style>
<g>
	<g>
		<g>
			<g>
				<g transform="translate(-1243 -9561) translate(.5 9418) translate(1243 100.716) translate(0 43)">
					<defs>
						<filter id="Adobe_OpacityMaskFilter" filterUnits="userSpaceOnUse" x="0" y="0" width="24" height="24">
							<feColorMatrix  type="matrix" values="1 0 0 0 0  0 1 0 0 0  0 0 1 0 0  0 0 0 1 0"/>
						</filter>
					</defs>
					<mask maskUnits="userSpaceOnUse" x="0" y="0" width="24" height="24" id="zpyi7z4vhc_1_">
						<g class="st0">
							<path class="st1" d="M2.2,1C1.5,1,1,1.5,1,2.2v19.6C1,22.5,1.5,23,2.2,23h10.5v-8.5H9.9v-3.3h2.9V8.7c0-2.8,1.7-4.4,4.3-4.4
								c1.2,0,2.3,0.1,2.6,0.1v3h-1.8c-1.4,0-1.6,0.7-1.6,1.6v2.1h3.3L19,14.5h-2.9V23h5.6c0.7,0,1.2-0.5,1.2-1.2V2.2
								C23,1.5,22.5,1,21.8,1H2.2z"/>
						</g>
					</mask>
					<g class="st2">
						<path class="st3" d="M0,0h24v24H0V0z"/>
					</g>
				</g>
			</g>
		</g>
	</g>
</g>
</svg>
