<?xml version="1.0" encoding="utf-8"?>
<!-- Generator: Adobe Illustrator 23.0.1, SVG Export Plug-In . SVG Version: 6.00 Build 0)  -->
<svg version="1.1" id="Layer_1" xmlns="http://www.w3.org/2000/svg" xmlns:xlink="http://www.w3.org/1999/xlink" x="0px" y="0px"
	 viewBox="0 0 25 25" style="enable-background:new 0 0 25 25;" xml:space="preserve">
<style type="text/css">
	.st0{fill-rule:evenodd;clip-rule:evenodd;}
</style>
<g>
	<g>
		<g>
			<g>
				<g>
					<path class="st0" d="M20.5,19.7h-3v-5.6c0-3.4-4-3.1-4,0v5.6h-3v-11h3v1.8c1.4-2.6,7-2.8,7,2.5V19.7z M7,7.4
						c-1,0-1.8-0.8-1.8-1.8S6,3.9,7,3.9s1.8,0.8,1.8,1.8S8,7.4,7,7.4z M5.5,19.7h3v-11h-3V19.7z M19.5,0.7h-14c-2.8,0-5,2.2-5,5v14
						c0,2.8,2.2,5,5,5h14c2.8,0,5-2.2,5-5v-14C24.5,3,22.3,0.7,19.5,0.7z"/>
				</g>
			</g>
		</g>
	</g>
</g>
</svg>
