<?xml version="1.0" encoding="utf-8"?>
<!-- Generator: Adobe Illustrator 23.0.1, SVG Export Plug-In . SVG Version: 6.00 Build 0)  -->
<svg version="1.1" id="Layer_1" xmlns="http://www.w3.org/2000/svg" xmlns:xlink="http://www.w3.org/1999/xlink" x="0px" y="0px"
	 viewBox="0 0 25 25" style="enable-background:new 0 0 25 25;" xml:space="preserve">
<style type="text/css">
	.st0{filter:url(#Adobe_OpacityMaskFilter);}
	.st1{fill-rule:evenodd;clip-rule:evenodd;fill:#FFFFFF;}
	.st2{mask:url(#hmt51q9ylb_1_);fill-rule:evenodd;clip-rule:evenodd;}
	.st3{fill-rule:evenodd;clip-rule:evenodd;}
</style>
<g>
	<g>
		<g>
			<g>
				<g>
					<g>
						<g transform="translate(-1276 -9561) translate(.5 9418) translate(1243 100.716) translate(0 43) translate(33)">
							<defs>
								<filter id="Adobe_OpacityMaskFilter" filterUnits="userSpaceOnUse" x="0" y="0" width="24" height="23.9">
									<feColorMatrix  type="matrix" values="1 0 0 0 0  0 1 0 0 0  0 0 1 0 0  0 0 0 1 0"/>
								</filter>
							</defs>
							<mask maskUnits="userSpaceOnUse" x="0" y="0" width="24" height="23.9" id="hmt51q9ylb_1_">
								<g class="st0">
									<path class="st1" d="M0,0h24V24H0V0z"/>
								</g>
							</mask>
							<path class="st2" d="M12,0C8.7,0,8.3,0,7.1,0.1C5.8,0.1,4.9,0.3,4.1,0.6C3.3,0.9,2.7,1.4,2,2C1.3,2.7,0.9,3.4,0.6,4.1
								C0.3,4.9,0.1,5.8,0.1,7S0,8.7,0,12s0,3.7,0.1,4.9c0.1,1.3,0.3,2.1,0.6,2.9c0.3,0.8,0.7,1.5,1.4,2.1c0.7,0.7,1.3,1.1,2.1,1.4
								c0.8,0.3,1.6,0.5,2.9,0.6C8.3,23.9,8.7,24,12,24s3.7,0,4.9-0.1c1.3-0.1,2.1-0.3,2.9-0.6c0.8-0.3,1.5-0.7,2.1-1.4
								s1.1-1.3,1.4-2.1c0.3-0.8,0.5-1.6,0.6-2.9C24,15.6,24,15.2,24,12s0-3.7-0.1-4.9c-0.1-1.3-0.3-2.1-0.6-2.9
								C23.1,3.4,22.6,2.7,22,2c-0.7-0.7-1.3-1.1-2.1-1.4c-0.8-0.3-1.6-0.5-2.9-0.6C15.7,0,15.3,0,12,0 M12,2.2c3.2,0,3.6,0,4.8,0.1
								c1.2,0.1,1.8,0.2,2.2,0.4c0.6,0.2,1,0.5,1.4,0.9c0.4,0.4,0.7,0.8,0.9,1.4c0.2,0.4,0.4,1.1,0.4,2.2c0.1,1.3,0.1,1.6,0.1,4.8
								s0,3.6-0.1,4.8c-0.1,1.2-0.2,1.8-0.4,2.2c-0.2,0.6-0.5,1-0.9,1.4c-0.4,0.4-0.8,0.7-1.4,0.9c-0.4,0.2-1.1,0.4-2.2,0.4
								c-1.3,0.1-1.6,0.1-4.8,0.1c-3.2,0-3.6,0-4.8-0.1c-1.2-0.1-1.8-0.2-2.2-0.4c-0.6-0.2-1-0.5-1.4-0.9C3.1,20,2.9,19.6,2.6,19
								c-0.2-0.4-0.4-1.1-0.4-2.2c-0.1-1.3-0.1-1.6-0.1-4.8s0-3.6,0.1-4.8C2.3,6,2.5,5.3,2.6,4.9c0.2-0.6,0.5-1,0.9-1.4
								s0.8-0.7,1.4-0.9C5.3,2.5,6,2.3,7.1,2.2C8.4,2.2,8.8,2.2,12,2.2"/>
						</g>
						<path class="st3" d="M12.5,16.6c-2.2,0-3.9-1.7-3.9-3.9s1.7-3.9,3.9-3.9s3.9,1.7,3.9,3.9S14.6,16.6,12.5,16.6 M12.5,6.7
							c-3.3,0-6,2.7-6,6s2.7,6,6,6s6-2.7,6-6S15.8,6.7,12.5,6.7 M20.5,6.2c0,0.8-0.7,1.5-1.5,1.5S17.5,7,17.5,6.2s0.7-1.5,1.5-1.5
							S20.5,5.4,20.5,6.2"/>
					</g>
				</g>
			</g>
		</g>
	</g>
</g>
</svg>
