<?xml version="1.0" encoding="UTF-8"?>
<svg width="197px" height="180px" viewBox="0 0 197 180" version="1.1" xmlns="http://www.w3.org/2000/svg" xmlns:xlink="http://www.w3.org/1999/xlink">
    <title>More spend and Frequency</title>
    <defs>
        <polygon id="path-1" points="0.000141678814 0.0811950902 196.597064 0.0811950902 196.597064 139.821185 0.000141678814 139.821185"></polygon>
        <polygon id="path-3" points="0 158.784925 196.597064 158.784925 196.597064 0.202219366 0 0.202219366"></polygon>
        <polygon id="path-5" points="0.346395887 0.145659279 0.346395887 1.7352975 0.346395887 2.53011661 0.346395887 3.32422543 0.346395887 4.11904454 0.346395887 4.91457395 0.346395887 5.70868277 0.346395887 6.50350188 0.346395887 7.29832099 0.346395887 8.0931401 0.346395887 8.88795921 0.346395887 9.68277832 0.346395887 10.4775974 0.346395887 11.2717063 0.346395887 12.0672357 0.346395887 12.8613445 0.346395887 13.6561636 0.346395887 14.4509827 0.346395887 15.2458018 0.346395887 16.0399106 0.346395887 16.83544 0.346395887 17.6302591 0.346395887 18.424368 0.346395887 19.2198974 0.346395887 20.0147165 0.346395887 20.8088253 0.346395887 21.6036444 0.346395887 22.3984635 0.346395887 23.1925723 0.346395887 23.9881017 0.346395887 25.5770297 0.598596401 25.5770297 0.598596401 23.9881017 0.598596401 23.1925723 0.598596401 22.3984635 0.598596401 21.6036444 0.598596401 20.8088253 0.598596401 20.0147165 0.598596401 19.2198974 0.598596401 18.424368 0.598596401 17.6302591 0.598596401 16.83544 0.598596401 16.0399106 0.598596401 15.2458018 0.598596401 14.4509827 0.598596401 13.6561636 0.598596401 12.8613445 0.598596401 12.0672357 0.598596401 11.2717063 0.598596401 10.4775974 0.598596401 9.68277832 0.598596401 8.88795921 0.598596401 8.0931401 0.598596401 7.29832099 0.598596401 6.50350188 0.598596401 5.70868277 0.598596401 4.91457395 0.598596401 4.11904454 0.598596401 3.32422543 0.598596401 2.53011661 0.598596401 1.7352975 0.598596401 0.145659279"></polygon>
        <polygon id="path-7" points="0.497057841 0.403751659 0.497057841 2.29319448 0.497057841 3.23791588 0.497057841 4.18263729 0.497057841 5.12807712 0.497057841 6.07279853 0.497057841 7.01751994 0.497057841 7.96224135 0.497057841 8.90696275 0.497057841 9.85168416 0.497057841 10.797124 0.497057841 11.7418454 0.497057841 12.6865668 0.497057841 13.6320066 0.497057841 14.576728 0.497057841 15.520731 0.497057841 16.4661709 0.497057841 17.4108923 0.497057841 18.3556137 0.497057841 19.3010535 0.497057841 20.2457749 0.497057841 21.1904963 0.497057841 22.1352177 0.497057841 23.0799391 0.497057841 24.0246605 0.497057841 24.969382 0.497057841 25.9141034 0.497057841 26.8595432 0.497057841 27.8042646 0.497057841 28.748986 0.497057841 30.6384288 0.748498715 30.6384288 0.748498715 28.748986 0.748498715 27.8042646 0.748498715 26.8595432 0.748498715 25.9141034 0.748498715 24.969382 0.748498715 24.0246605 0.748498715 23.0799391 0.748498715 22.1352177 0.748498715 21.1904963 0.748498715 20.2457749 0.748498715 19.3010535 0.748498715 18.3556137 0.748498715 17.4108923 0.748498715 16.4661709 0.748498715 15.520731 0.748498715 14.576728 0.748498715 13.6320066 0.748498715 12.6865668 0.748498715 11.7418454 0.748498715 10.797124 0.748498715 9.85168416 0.748498715 8.90696275 0.748498715 7.96224135 0.748498715 7.01751994 0.748498715 6.07279853 0.748498715 5.12807712 0.748498715 4.18263729 0.748498715 3.23791588 0.748498715 2.29319448 0.748498715 0.403751659"></polygon>
        <polygon id="path-9" points="0.304868895 0.403751659 0.304868895 2.29319448 0.304868895 3.23791588 0.304868895 4.18263729 0.304868895 5.12807712 0.304868895 6.07279853 0.304868895 7.01751994 0.304868895 7.96224135 0.304868895 8.90696275 0.304868895 9.85168416 0.304868895 10.797124 0.304868895 11.7418454 0.304868895 12.6865668 0.304868895 13.6320066 0.304868895 14.576728 0.304868895 15.520731 0.304868895 16.4661709 0.304868895 17.4108923 0.304868895 18.3556137 0.304868895 19.3010535 0.304868895 20.2457749 0.304868895 21.1904963 0.304868895 22.1352177 0.304868895 23.0799391 0.304868895 24.0246605 0.304868895 24.969382 0.304868895 25.9141034 0.304868895 26.8595432 0.304868895 27.8042646 0.304868895 28.748986 0.304868895 30.6384288 0.557069409 30.6384288 0.557069409 28.748986 0.557069409 27.8042646 0.557069409 26.8595432 0.557069409 25.9141034 0.557069409 24.969382 0.557069409 24.0246605 0.557069409 23.0799391 0.557069409 22.1352177 0.557069409 21.1904963 0.557069409 20.2457749 0.557069409 19.3010535 0.557069409 18.3556137 0.557069409 17.4108923 0.557069409 16.4661709 0.557069409 15.520731 0.557069409 14.576728 0.557069409 13.6320066 0.557069409 12.6865668 0.557069409 11.7418454 0.557069409 10.797124 0.557069409 9.85168416 0.557069409 8.90696275 0.557069409 7.96224135 0.557069409 7.01751994 0.557069409 6.07279853 0.557069409 5.12807712 0.557069409 4.18263729 0.557069409 3.23791588 0.557069409 2.29319448 0.557069409 0.403751659"></polygon>
        <path d="M0.225078549,40.7388284 C0.225078549,62.9908264 18.2631335,81.0282776 40.5141388,81.0282776 L40.5141388,81.0282776 C62.7651441,81.0282776 80.8031991,62.9908264 80.8031991,40.7388284 L80.8031991,40.7388284 C80.8031991,18.4876083 62.7651441,0.450157098 40.5141388,0.450157098 L40.5141388,0.450157098 C18.2631335,0.450157098 0.225078549,18.4876083 0.225078549,40.7388284" id="path-11"></path>
        <linearGradient x1="32.8946163%" y1="3.0021967%" x2="67.1058236%" y2="96.9976233%" id="linearGradient-13">
            <stop stop-color="#F9F9F9" offset="0%"></stop>
            <stop stop-color="#D1D1D8" offset="100%"></stop>
        </linearGradient>
        <path d="M0.25478547,46.0844432 C0.25478547,71.2473082 20.6595416,91.7178537 45.7405818,91.7178537 L45.7405818,91.7178537 C55.6027252,91.7178537 64.733908,88.5421019 72.1942124,83.1709899 L72.1942124,83.1709899 L67.9234134,77.1834313 C61.6632516,81.6910506 54.0165172,84.3766066 45.7405818,84.3766066 L45.7405818,84.3766066 C24.694196,84.3766066 7.57216032,67.1987117 7.57216032,46.0844432 L7.57216032,46.0844432 C7.57216032,24.9709541 24.6934192,7.79305923 45.739805,7.79305923 L45.739805,7.79305923 L45.739805,0.451812087 C20.6595416,0.451812087 0.25478547,20.9223576 0.25478547,46.0844432" id="path-14"></path>
        <linearGradient x1="32.6358005%" y1="8.63911194%" x2="59.5070362%" y2="102.606797%" id="linearGradient-16">
            <stop stop-color="#36D6D1" offset="0%"></stop>
            <stop stop-color="#3D59FD" offset="100%"></stop>
        </linearGradient>
        <path d="M50.6475495,0.451102806 C50.6002249,0.451102806 50.5536762,0.453432214 50.5055758,0.455761622 L50.5055758,0.455761622 C21.7950906,2.13837044 -0.827595638,26.5000924 0.262420622,55.9003233 L0.262420622,55.9003233 C1.29968165,83.852439 24.2008845,106.550964 52.1378849,107.340633 L52.1378849,107.340633 C63.0946818,107.650444 73.3245426,104.648614 81.9251976,99.2746708 L81.9251976,99.2746708 C83.3930344,98.3576606 83.7793889,96.3846523 82.7801427,94.9722548 L82.7801427,94.9722548 L54.8028001,55.4507476 C54.0719849,54.4180435 53.6794239,53.1834574 53.6794239,51.9170361 L53.6794239,51.9170361 L53.6794239,3.47079163 C53.6794239,1.81613571 52.3473542,0.472067475 50.7204758,0.451102806 L50.7204758,0.451102806 L50.6475495,0.451102806 Z" id="path-17"></path>
        <linearGradient x1="82.5253027%" y1="11.7444988%" x2="15.7083282%" y2="102.246234%" id="linearGradient-19">
            <stop stop-color="#3D5AFE" offset="0%"></stop>
            <stop stop-color="#8B9CFE" offset="100%"></stop>
        </linearGradient>
    </defs>
    <g id="Layouts" stroke="none" stroke-width="1" fill="none" fill-rule="evenodd">
        <g id="Home---Desktop" transform="translate(-1167.000000, -5908.000000)">
            <g id="AERG" transform="translate(33.000000, 5259.000000)">
                <g id="More-spend-and-Frequency" transform="translate(1134.000000, 649.000000)">
                    <g id="Group-22" transform="translate(0.000000, 20.763496)">
                        <path d="M1.137185,147.398622 L1.137185,30.4303832 C1.137185,24.7967225 5.72332821,20.1876875 11.3281421,20.1876875 L185.269347,20.1876875 C190.874161,20.1876875 195.459596,24.7967225 195.459596,30.4303832 L195.459596,147.398622 C195.459596,153.032282 190.874161,157.642029 185.269347,157.642029 L11.3281421,157.642029 C5.72332821,157.642029 1.137185,153.032282 1.137185,147.398622" id="Fill-1" fill="#FFFFFF"></path>
                        <g id="Group-5" transform="translate(0.000000, 18.963597)">
                            <mask id="mask-2" fill="white">
                                <use xlink:href="#path-1"></use>
                            </mask>
                            <g id="Clip-4"></g>
                            <path d="M194.322553,9.44523341 C194.322553,5.54254205 191.163823,2.36684356 187.281116,2.36684356 L9.31623209,2.36684356 C5.4328158,2.36684356 2.27408664,5.54254205 2.27408664,9.44523341 L2.27408664,130.457147 C2.27408664,134.359838 5.4328158,137.535537 9.31623209,137.535537 L187.281116,137.535537 C191.163823,137.535537 194.322553,134.359838 194.322553,130.457147 L194.322553,9.44523341 Z M0.000141678814,130.457147 L0.000141678814,9.44523341 C0.000141678814,4.28151917 4.1789583,0.0811950902 9.31623209,0.0811950902 L187.281116,0.0811950902 C192.417681,0.0811950902 196.597206,4.28151917 196.597206,9.44523341 L196.597206,130.457147 C196.597206,135.620149 192.417681,139.821185 187.281116,139.821185 L9.31623209,139.821185 C4.1789583,139.821185 0.000141678814,135.620149 0.000141678814,130.457147 L0.000141678814,130.457147 Z" id="Fill-3" fill="#1B1C3C" mask="url(#mask-2)"></path>
                        </g>
                        <mask id="mask-4" fill="white">
                            <use xlink:href="#path-3"></use>
                        </mask>
                        <g id="Clip-7"></g>
                        <polygon id="Fill-6" fill="#FFFFFF" mask="url(#mask-4)" points="22.8301241 151.105573 184.113036 151.105573 184.113036 26.723574 22.8301241 26.723574"></polygon>
                        <path d="M23.967805,149.962749 L182.976063,149.962749 L182.976063,27.8663983 L23.967805,27.8663983 L23.967805,149.962749 Z M21.6931516,152.248397 L185.250716,152.248397 L185.250716,25.5800378 L21.6931516,25.5800378 L21.6931516,152.248397 Z" id="Fill-8" fill="#1B1C3C" mask="url(#mask-4)"></path>
                        <path d="M8.644462,98.1043045 L8.644462,79.7251274 C8.644462,77.6651957 10.3212308,75.980509 12.3699064,75.980509 C14.4185821,75.980509 16.0953508,77.6651957 16.0953508,79.7251274 L16.0953508,98.1043045 C16.0953508,100.163524 14.4185821,101.848923 12.3699064,101.848923 C10.3212308,101.848923 8.644462,100.163524 8.644462,98.1043045" id="Fill-9" fill="#FFFFFF" mask="url(#mask-4)"></path>
                        <path d="M14.9584492,79.6503632 C14.9584492,78.2569009 13.8306858,77.1233332 12.4443586,77.1233332 L12.2955959,77.1233332 C10.9092687,77.1233332 9.78150532,78.2569009 9.78150532,79.6503632 L9.78150532,98.1790687 C9.78150532,99.572531 10.9092687,100.705387 12.2955959,100.705387 L12.4443586,100.705387 C13.8306858,100.705387 14.9584492,99.572531 14.9584492,98.1790687 L14.9584492,79.6503632 Z M7.50756035,98.1790687 L7.50756035,79.6503632 C7.50756035,76.9965901 9.65611957,74.8369727 12.2955959,74.8369727 L12.4443586,74.8369727 C15.0845433,74.8369727 17.2323941,76.9965901 17.2323941,79.6503632 L17.2323941,98.1790687 C17.2323941,100.832842 15.0845433,102.991747 12.4443586,102.991747 L12.2955959,102.991747 C9.65611957,102.991747 7.50756035,100.832842 7.50756035,98.1790687 L7.50756035,98.1790687 Z" id="Fill-10" fill="#1B1C3C" mask="url(#mask-4)"></path>
                        <path d="M169.418109,64.708773 L114.144953,64.708773 C113.967855,64.708773 113.824051,64.8533172 113.824051,65.0313272 L113.824051,65.4421743 C113.824051,65.6208963 113.967855,65.7654404 114.144953,65.7654404 L169.418109,65.7654404 C169.595916,65.7654404 169.73972,65.6208963 169.73972,65.4421743 L169.73972,65.0313272 C169.73972,64.8533172 169.595916,64.708773 169.418109,64.708773" id="Fill-11" fill="#D1D2D8" mask="url(#mask-4)"></path>
                        <path d="M169.418109,67.8234497 L114.144953,67.8234497 C113.967855,67.8234497 113.824051,67.9679938 113.824051,68.1460038 L113.824051,68.5568509 C113.824051,68.735573 113.967855,68.8794051 114.144953,68.8794051 L169.418109,68.8794051 C169.595916,68.8794051 169.73972,68.735573 169.73972,68.5568509 L169.73972,68.1460038 C169.73972,67.9679938 169.595916,67.8234497 169.418109,67.8234497" id="Fill-12" fill="#D1D2D8" mask="url(#mask-4)"></path>
                        <path d="M169.418109,70.9045893 L114.144953,70.9045893 C113.967855,70.9045893 113.824051,71.0491334 113.824051,71.2271434 L113.824051,71.6379905 C113.824051,71.8167125 113.967855,71.9612567 114.144953,71.9612567 L169.418109,71.9612567 C169.595916,71.9612567 169.73972,71.8167125 169.73972,71.6379905 L169.73972,71.2271434 C169.73972,71.0491334 169.595916,70.9045893 169.418109,70.9045893" id="Fill-13" fill="#D1D2D8" mask="url(#mask-4)"></path>
                        <path d="M169.418109,74.0191947 L114.144953,74.0191947 C113.967855,74.0191947 113.824051,74.1637389 113.824051,74.3417489 L113.824051,74.752596 C113.824051,74.931318 113.967855,75.0751501 114.144953,75.0751501 L169.418109,75.0751501 C169.595916,75.0751501 169.73972,74.931318 169.73972,74.752596 L169.73972,74.3417489 C169.73972,74.1637389 169.595916,74.0191947 169.418109,74.0191947" id="Fill-14" fill="#D1D2D8" mask="url(#mask-4)"></path>
                        <path d="M154.146125,61.5817781 L114.144528,61.5817781 C113.96743,61.5817781 113.823626,61.7263222 113.823626,61.9043322 L113.823626,62.3151793 C113.823626,62.4939013 113.96743,62.6384455 114.144528,62.6384455 L154.146125,62.6384455 C154.323223,62.6384455 154.467027,62.4939013 154.467027,62.3151793 L154.467027,61.9050442 C154.467027,61.7263222 154.323223,61.5817781 154.146125,61.5817781" id="Fill-15" fill="#D1D2D8" mask="url(#mask-4)"></path>
                        <path d="M72.6081962,108.49635 C69.8638775,107.631933 66.1951046,107.00961 62.4590343,108.269921 C56.7762971,110.186021 55.3807608,114.960249 50.9575482,114.843475 C47.5395468,114.753758 46.7808568,111.862163 43.0632047,111.443484 C39.1535778,111.002731 35.6526943,113.712043 33.3659983,115.977042 L33.3659983,141.609451 L72.6081962,141.609451 L72.6081962,108.49635 Z" id="Fill-16" fill="#1B1C3C" mask="url(#mask-4)"></path>
                        <path d="M125.209219,125.224698 C121.334303,118.834851 118.38455,117.372321 116.239533,117.561012 C110.878407,118.032382 108.679551,128.973589 103.906392,128.605464 C100.803626,128.366931 99.543393,123.57775 96.9542127,124.097539 C94.7171042,124.547548 94.718521,128.311392 92.0209564,129.281902 C89.9991997,130.008895 87.6721252,128.732208 85.9670207,127.479017 L85.9670207,141.609451 L125.209219,141.609451 L125.209219,125.224698 Z" id="Fill-17" fill="#1B1C3C" mask="url(#mask-4)"></path>
                        <path d="M174.976665,125.393025 C173.100837,126.874068 170.299847,128.613582 167.797799,127.798296 C163.817333,126.500959 163.011889,119.851929 160.103223,119.379847 C156.43445,118.785293 155.376818,129.075696 149.611907,129.481558 C145.372877,129.780615 142.507423,124.493718 138.366151,125.874364 C137.11796,126.290195 136.26222,127.143219 135.734467,127.798296 L135.734467,141.609736 L174.976665,141.609736 L174.976665,125.393025 Z" id="Fill-18" fill="#1B1C3C" mask="url(#mask-4)"></path>
                        <path d="M33.0305737,129.824121 C32.8492248,129.638991 32.8506416,129.340646 33.0362408,129.157651 C36.5250816,125.702121 39.9140388,124.139193 43.11598,124.491653 C45.0746896,124.712386 46.2888771,125.595315 47.3585521,126.373575 C48.4466454,127.163939 49.3852676,127.847498 50.9699451,127.888796 C53.1418813,127.971393 54.5090819,126.736003 56.2411054,125.203693 C57.7981555,123.826608 59.5620568,122.265816 62.3099174,121.340164 C65.4254345,120.288481 68.9376523,120.363245 72.7488124,121.562321 C72.9960419,121.641357 73.1334704,121.905524 73.0562554,122.154026 C72.9790405,122.40324 72.7162263,122.541376 72.4682883,122.463051 C68.8512282,121.324499 65.532402,121.246887 62.6088597,122.233062 C60.0402228,123.099615 58.3507029,124.593475 56.8602418,125.912173 C55.1232595,127.448043 53.4755349,128.872123 50.9451513,128.831537 C49.0707406,128.783118 47.921017,127.945759 46.8095467,127.137594 C45.7377465,126.35791 44.724743,125.622373 43.0111377,125.428698 C40.1060136,125.105432 36.9734951,126.582203 33.6943389,129.829817 C33.6036645,129.920246 33.4839459,129.965105 33.3649357,129.965105 C33.2438003,129.965105 33.1219565,129.91811 33.0305737,129.824121 Z" id="Fill-19" fill="#1B1C3C" mask="url(#mask-4)"></path>
                        <path d="M90.7718451,129.964037 C89.2983855,129.964037 87.5961145,129.260541 85.6891177,127.859246 C85.4801414,127.705446 85.4348042,127.411373 85.5878173,127.201322 C85.7415389,126.989846 86.034814,126.945699 86.2423735,127.098788 C88.5234024,128.774218 90.4148145,129.361651 91.8620636,128.838302 C93.0741259,128.402533 93.6911371,127.280358 94.2897301,126.195921 C94.9117001,125.065913 95.5542135,123.898168 96.861909,123.635425 C98.4416277,123.315007 99.5523896,124.57959 100.629149,125.800739 C101.598232,126.897992 102.599901,128.032272 103.941599,128.13623 C106.056864,128.292879 107.70388,125.797891 109.452905,123.150526 C111.33865,120.297381 113.288859,117.3474 116.198234,117.091777 C119.166405,116.834019 122.233751,119.411604 125.609957,124.978333 C125.744552,125.201201 125.675129,125.491713 125.45411,125.626289 C125.230966,125.762289 124.94265,125.691797 124.809472,125.470352 C121.680495,120.311622 118.823542,117.804529 116.280407,118.030958 C113.820155,118.247418 111.997457,121.005861 110.234264,123.673163 C108.327975,126.555501 106.553448,129.251285 103.869343,129.076835 C102.150071,128.942971 100.969178,127.60576 99.9278385,126.42591 C98.9438791,125.310855 98.0874307,124.352449 97.045383,124.559653 C96.1641408,124.736951 95.6753489,125.624865 95.109342,126.652339 C94.4597447,127.832901 93.7223064,129.170112 92.1780074,129.725503 C91.7366779,129.885 91.2663042,129.964037 90.7718451,129.964037" id="Fill-20" fill="#1B1C3C" mask="url(#mask-4)"></path>
                        <path d="M149.259339,129.965959 C147.31338,129.965959 145.675573,128.924957 144.089479,127.916708 C142.256864,126.751099 140.525548,125.651709 138.513709,126.321738 C137.619008,126.620083 136.805771,127.216773 136.098794,128.094006 C135.935155,128.296937 135.639755,128.326843 135.439279,128.163786 C135.237387,128.000017 135.206217,127.703096 135.369856,127.501589 C136.192302,126.479811 137.150759,125.782724 138.219017,125.426704 C140.652351,124.615691 142.654273,125.888106 144.590314,127.119223 C146.225287,128.158802 147.780212,129.127888 149.578825,129.011114 C152.44357,128.809606 154.110422,125.833991 155.581048,123.208699 C156.91212,120.83191 158.174478,118.570471 160.177108,118.914386 C161.780204,119.173569 162.757788,120.914507 163.79346,122.755842 C164.889346,124.706832 166.022776,126.724041 167.942524,127.349212 C169.725552,127.932373 171.995247,127.146993 174.687852,125.021553 C174.886911,124.862768 175.185145,124.89481 175.345951,125.102014 C175.505339,125.306369 175.470628,125.602578 175.265902,125.763499 C172.313316,128.096142 169.751054,128.931365 167.653499,128.245671 C165.386638,127.507285 164.105862,125.229469 162.975973,123.220092 C162.054353,121.580976 161.184445,120.032289 160.028346,119.845022 C158.640602,119.639243 157.614139,121.499803 156.398534,123.670813 C154.811023,126.504021 153.012411,129.714609 149.645414,129.951718 C149.515069,129.960975 149.38685,129.965247 149.259339,129.965959" id="Fill-21" fill="#1B1C3C" mask="url(#mask-4)"></path>
                    </g>
                    <g id="Group-25" transform="translate(64.316195, 139.773779)">
                        <mask id="mask-6" fill="white">
                            <use xlink:href="#path-5"></use>
                        </mask>
                        <g id="Clip-24"></g>
                        <polygon id="Fill-23" mask="url(#mask-6)" points="0.346395887 0.145659279 0.346395887 1.7352975 0.346395887 2.53011661 0.346395887 3.32422543 0.346395887 4.11904454 0.346395887 4.91457395 0.346395887 5.70868277 0.346395887 6.50350188 0.346395887 7.29832099 0.346395887 8.0931401 0.346395887 8.88795921 0.346395887 9.68277832 0.346395887 10.4775974 0.346395887 11.2717063 0.346395887 12.0672357 0.346395887 12.8613445 0.346395887 13.6561636 0.346395887 14.4509827 0.346395887 15.2458018 0.346395887 16.0399106 0.346395887 16.83544 0.346395887 17.6302591 0.346395887 18.424368 0.346395887 19.2198974 0.346395887 20.0147165 0.346395887 20.8088253 0.346395887 21.6036444 0.346395887 22.3984635 0.346395887 23.1925723 0.346395887 23.9881017 0.346395887 25.5770297 0.598596401 25.5770297 0.598596401 23.9881017 0.598596401 23.1925723 0.598596401 22.3984635 0.598596401 21.6036444 0.598596401 20.8088253 0.598596401 20.0147165 0.598596401 19.2198974 0.598596401 18.424368 0.598596401 17.6302591 0.598596401 16.83544 0.598596401 16.0399106 0.598596401 15.2458018 0.598596401 14.4509827 0.598596401 13.6561636 0.598596401 12.8613445 0.598596401 12.0672357 0.598596401 11.2717063 0.598596401 10.4775974 0.598596401 9.68277832 0.598596401 8.88795921 0.598596401 8.0931401 0.598596401 7.29832099 0.598596401 6.50350188 0.598596401 5.70868277 0.598596401 4.91457395 0.598596401 4.11904454 0.598596401 3.32422543 0.598596401 2.53011661 0.598596401 1.7352975 0.598596401 0.145659279"></polygon>
                    </g>
                    <g id="Group-28" transform="translate(116.478149, 134.709512)">
                        <mask id="mask-8" fill="white">
                            <use xlink:href="#path-7"></use>
                        </mask>
                        <g id="Clip-27"></g>
                        <polygon id="Fill-26" mask="url(#mask-8)" points="0.497057841 0.403751659 0.497057841 2.29319448 0.497057841 3.23791588 0.497057841 4.18263729 0.497057841 5.12807712 0.497057841 6.07279853 0.497057841 7.01751994 0.497057841 7.96224135 0.497057841 8.90696275 0.497057841 9.85168416 0.497057841 10.797124 0.497057841 11.7418454 0.497057841 12.6865668 0.497057841 13.6320066 0.497057841 14.576728 0.497057841 15.520731 0.497057841 16.4661709 0.497057841 17.4108923 0.497057841 18.3556137 0.497057841 19.3010535 0.497057841 20.2457749 0.497057841 21.1904963 0.497057841 22.1352177 0.497057841 23.0799391 0.497057841 24.0246605 0.497057841 24.969382 0.497057841 25.9141034 0.497057841 26.8595432 0.497057841 27.8042646 0.497057841 28.748986 0.497057841 30.6384288 0.748498715 30.6384288 0.748498715 28.748986 0.748498715 27.8042646 0.748498715 26.8595432 0.748498715 25.9141034 0.748498715 24.969382 0.748498715 24.0246605 0.748498715 23.0799391 0.748498715 22.1352177 0.748498715 21.1904963 0.748498715 20.2457749 0.748498715 19.3010535 0.748498715 18.3556137 0.748498715 17.4108923 0.748498715 16.4661709 0.748498715 15.520731 0.748498715 14.576728 0.748498715 13.6320066 0.748498715 12.6865668 0.748498715 11.7418454 0.748498715 10.797124 0.748498715 9.85168416 0.748498715 8.90696275 0.748498715 7.96224135 0.748498715 7.01751994 0.748498715 6.07279853 0.748498715 5.12807712 0.748498715 4.18263729 0.748498715 3.23791588 0.748498715 2.29319448 0.748498715 0.403751659"></polygon>
                    </g>
                    <g id="Group-31" transform="translate(160.030848, 134.709512)">
                        <mask id="mask-10" fill="white">
                            <use xlink:href="#path-9"></use>
                        </mask>
                        <g id="Clip-30"></g>
                        <polygon id="Fill-29" mask="url(#mask-10)" points="0.304868895 0.403751659 0.304868895 2.29319448 0.304868895 3.23791588 0.304868895 4.18263729 0.304868895 5.12807712 0.304868895 6.07279853 0.304868895 7.01751994 0.304868895 7.96224135 0.304868895 8.90696275 0.304868895 9.85168416 0.304868895 10.797124 0.304868895 11.7418454 0.304868895 12.6865668 0.304868895 13.6320066 0.304868895 14.576728 0.304868895 15.520731 0.304868895 16.4661709 0.304868895 17.4108923 0.304868895 18.3556137 0.304868895 19.3010535 0.304868895 20.2457749 0.304868895 21.1904963 0.304868895 22.1352177 0.304868895 23.0799391 0.304868895 24.0246605 0.304868895 24.969382 0.304868895 25.9141034 0.304868895 26.8595432 0.304868895 27.8042646 0.304868895 28.748986 0.304868895 30.6384288 0.557069409 30.6384288 0.557069409 28.748986 0.557069409 27.8042646 0.557069409 26.8595432 0.557069409 25.9141034 0.557069409 24.969382 0.557069409 24.0246605 0.557069409 23.0799391 0.557069409 22.1352177 0.557069409 21.1904963 0.557069409 20.2457749 0.557069409 19.3010535 0.557069409 18.3556137 0.557069409 17.4108923 0.557069409 16.4661709 0.557069409 15.520731 0.557069409 14.576728 0.557069409 13.6320066 0.557069409 12.6865668 0.557069409 11.7418454 0.557069409 10.797124 0.557069409 9.85168416 0.557069409 8.90696275 0.557069409 7.96224135 0.557069409 7.01751994 0.557069409 6.07279853 0.557069409 5.12807712 0.557069409 4.18263729 0.557069409 3.23791588 0.557069409 2.29319448 0.557069409 0.403751659"></polygon>
                    </g>
                    <text id="+35%" font-family="ProximaNova-Bold, Proxima Nova" font-size="6.07712082" font-weight="bold" fill="#1B1C3C">
                        <tspan x="43.0462725" y="120.958869">+35%</tspan>
                    </text>
                    <text id="-17%" font-family="ProximaNova-Bold, Proxima Nova" font-size="6.07712082" font-weight="bold" fill="#1B1C3C">
                        <tspan x="104.830334" y="130.07455">-17%</tspan>
                    </text>
                    <text id="+48%" font-family="ProximaNova-Bold, Proxima Nova" font-size="6.07712082" font-weight="bold" fill="#1B1C3C">
                        <tspan x="155.979434" y="130.07455">+48%</tspan>
                    </text>
                    <g id="Group-34" transform="translate(26.840617, 13.167095)">
                        <mask id="mask-12" fill="white">
                            <use xlink:href="#path-11"></use>
                        </mask>
                        <g id="Clip-33"></g>
                        <path d="M0.225078549,40.7388284 C0.225078549,62.9908264 18.2631335,81.0282776 40.5141388,81.0282776 L40.5141388,81.0282776 C62.7651441,81.0282776 80.8031991,62.9908264 80.8031991,40.7388284 L80.8031991,40.7388284 C80.8031991,18.4876083 62.7651441,0.450157098 40.5141388,0.450157098 L40.5141388,0.450157098 C18.2631335,0.450157098 0.225078549,18.4876083 0.225078549,40.7388284" id="Fill-32" fill="url(#linearGradient-13)" mask="url(#mask-12)"></path>
                    </g>
                    <g id="Group-37" transform="translate(21.776350, 7.596401)">
                        <mask id="mask-15" fill="white">
                            <use xlink:href="#path-14"></use>
                        </mask>
                        <g id="Clip-36"></g>
                        <path d="M0.25478547,46.0844432 C0.25478547,71.2473082 20.6595416,91.7178537 45.7405818,91.7178537 L45.7405818,91.7178537 C55.6027252,91.7178537 64.733908,88.5421019 72.1942124,83.1709899 L72.1942124,83.1709899 L67.9234134,77.1834313 C61.6632516,81.6910506 54.0165172,84.3766066 45.7405818,84.3766066 L45.7405818,84.3766066 C24.694196,84.3766066 7.57216032,67.1987117 7.57216032,46.0844432 L7.57216032,46.0844432 C7.57216032,24.9709541 24.6934192,7.79305923 45.739805,7.79305923 L45.739805,7.79305923 L45.739805,0.451812087 C20.6595416,0.451812087 0.25478547,20.9223576 0.25478547,46.0844432" id="Fill-35" fill="url(#linearGradient-16)" mask="url(#mask-15)"></path>
                    </g>
                    <g id="Group-50" transform="translate(66.848329, 7.089974)">
                        <path d="M34.3518297,28.7696146 C37.1369737,34.1031128 38.7321156,40.1689044 38.7321156,46.610591 C38.7321156,59.4300154 32.4593798,70.7708153 22.8823665,77.7303324 L27.1170793,83.7220369 C38.5310861,75.4281703 45.9868919,61.8889304 45.9868919,46.610591 C45.9868919,38.9343777 44.0982932,31.6987883 40.7801515,25.3428868 L34.3518297,28.7696146 Z" id="Fill-38" fill="#FFFFFF"></path>
                        <path d="M24.1315482,77.7577742 L27.4615654,82.455499 C38.670703,74.0318588 45.3391873,60.70031 45.3391873,46.6358324 C45.3391873,39.6726207 43.6991443,32.7404325 40.5872873,26.535744 L35.535801,29.220823 C38.2228599,34.6142484 39.6393655,40.6180601 39.6393655,46.6358324 C39.6393655,58.8358011 33.8573494,70.4106475 24.1315482,77.7577742 L24.1315482,77.7577742 Z M27.1112799,84.62714 L21.9937309,77.4072093 L22.6167168,76.9550427 C32.3140957,69.9282329 38.1030253,58.5938183 38.1030253,46.6358324 C38.1030253,40.5257654 36.6634746,34.6778465 33.8243181,29.2557243 L33.4640463,28.5693307 L41.2356229,24.4377837 L41.5928219,25.1226262 C45.0488191,31.7236392 46.8755275,39.1622851 46.8755275,46.6358324 C46.8755275,61.4565064 39.7207915,75.4899606 27.7358021,84.1741977 L27.1112799,84.62714 Z" id="Fill-40" fill="#1B1C3C"></path>
                        <path d="M1.11156616,8.6430081 C9.63775433,8.6430081 17.4887307,11.5122927 23.8287762,16.2918558 L28.21418,10.4326374 C20.6579818,4.73815146 11.2721526,1.35765465 1.11156616,1.35765465 C1.11079449,1.35765465 1.11079449,8.6430081 1.11079449,8.6430081 L1.11156616,8.6430081 Z" id="Fill-42" fill="#FFFFFF"></path>
                        <path d="M1.7615985,7.72535158 C9.59888554,7.88037097 17.0813317,10.3992432 23.4938674,15.0413411 L26.945291,10.4324065 C19.5605992,5.06071488 10.8850873,2.15622231 1.7615985,2.00197417 L1.7615985,7.72535158 Z M23.805604,17.1969589 L23.1890584,16.732672 C16.7026296,11.8445483 9.02621401,9.26012063 0.991878701,9.26012063 L0.222158898,9.26012063 L0.222158898,0.452551551 L0.991878701,0.452551551 C10.9889995,0.452551551 20.498118,3.63546202 28.4885792,9.6573096 L29.1028156,10.1208253 L23.805604,17.1969589 Z" id="Fill-44" fill="#1B1C3C"></path>
                        <path d="M34.6297363,28.9632992 L41.0993961,25.5581716 C37.9513865,19.6050102 33.5235531,14.4291232 28.1763552,10.4086857 L23.7710021,16.2789274 C28.2577492,19.6522822 31.9886949,23.9687503 34.6297363,28.9632992" id="Fill-46" fill="#FFFFFF"></path>
                        <path d="M24.6129512,15.9020315 C28.7517292,19.1501154 32.2364011,23.2271821 34.7539306,27.766701 L39.8762037,25.0660733 C36.9412923,19.737344 32.8928433,14.9833658 28.1030741,11.2416355 L24.6129512,15.9020315 Z M34.1107264,29.8684023 L33.7478533,29.179793 C31.193725,24.3408108 27.498026,20.0165311 23.0602281,16.6740851 L22.4380487,16.2061738 L27.7978246,9.05103101 L28.4207827,9.51972211 C33.8701088,13.6240836 38.4356131,18.9855666 41.6236012,25.0247411 L41.9880317,25.7149102 L34.1107264,29.8684023 Z" id="Fill-48" fill="#1B1C3C"></path>
                    </g>
                    <g id="Group-53" transform="translate(13.673522, 0.000000)">
                        <mask id="mask-18" fill="white">
                            <use xlink:href="#path-17"></use>
                        </mask>
                        <g id="Clip-52"></g>
                        <path d="M50.6475495,0.451102806 C50.6002249,0.451102806 50.5536762,0.453432214 50.5055758,0.455761622 L50.5055758,0.455761622 C21.7950906,2.13837044 -0.827595638,26.5000924 0.262420622,55.9003233 L0.262420622,55.9003233 C1.29968165,83.852439 24.2008845,106.550964 52.1378849,107.340633 L52.1378849,107.340633 C63.0946818,107.650444 73.3245426,104.648614 81.9251976,99.2746708 L81.9251976,99.2746708 C83.3930344,98.3576606 83.7793889,96.3846523 82.7801427,94.9722548 L82.7801427,94.9722548 L54.8028001,55.4507476 C54.0719849,54.4180435 53.6794239,53.1834574 53.6794239,51.9170361 L53.6794239,51.9170361 L53.6794239,3.47079163 C53.6794239,1.81613571 52.3473542,0.472067475 50.7204758,0.451102806 L50.7204758,0.451102806 L50.6475495,0.451102806 Z" id="Fill-51" fill="url(#linearGradient-19)" mask="url(#mask-18)"></path>
                    </g>
                    <path d="M56.7769716,56.4947158 L55.5989382,56.4947158 L44.1979849,56.4947158 L44.1979849,52.0166763 C44.4443863,52.0276576 44.7807438,52.038639 45.1710749,52.038639 C45.5676638,52.038639 46.0088396,52.0253045 46.4586199,51.9931448 L56.7769716,51.9931448 L56.7769716,56.4947158 Z M43.7487354,69.9994287 L54.9799735,69.9994287 L54.9799735,56.9448729 L43.7487354,56.9448729 L43.7487354,69.9994287 Z M32.0682478,69.9994287 L43.2994859,69.9994287 L43.2994859,56.9448729 L32.0682478,56.9448729 L32.0682478,69.9994287 Z M30.2712497,51.9931448 L40.5896013,51.9931448 C41.0385994,52.0253045 41.4805575,52.038639 41.8771464,52.038639 C42.2674775,52.038639 42.6030527,52.0276576 42.8502363,52.0166763 L42.8502363,56.4947158 L31.449283,56.4947158 L30.2712497,56.4947158 L30.2712497,51.9931448 Z M38.4439658,50.6040153 C37.7329431,50.2493128 37.1612586,49.7663604 36.8316243,49.2431008 C36.6628261,48.9741425 36.4167947,48.4596773 36.6683996,48.0316891 C36.8698428,47.6887122 37.3595169,47.4915738 38.010027,47.4915738 C38.6286884,47.4915738 39.328564,47.6703908 39.9790742,47.9950462 C41.0547647,48.5314972 42.2642199,50.20754 42.8502363,51.0928306 L40.8676535,51.0928306 C39.7855932,51.0202778 38.9447869,50.8531865 38.4439658,50.6040153 L38.4439658,50.6040153 Z M47.0693498,47.9950462 C47.7199058,47.6703908 48.4182383,47.4915738 49.038536,47.4915738 C49.689092,47.4915738 50.1780044,47.6887122 50.3794618,48.0316891 C50.6318807,48.4596773 50.3850357,48.9741425 50.2162256,49.2431008 C49.8873643,49.7663604 49.3148431,50.2493128 48.6045665,50.6040153 C48.10371,50.8531865 47.2620482,51.0202778 46.1807077,51.0928306 L44.1979849,51.0928306 C44.7840427,50.20754 45.9935833,48.5314972 47.0693498,47.9950462 L47.0693498,47.9950462 Z M56.4585031,51.1770968 L49.0798807,51.1770968 C49.770195,50.7553663 50.3396648,50.2195296 50.6895609,49.6304947 C51.1271285,48.8926591 51.1887355,48.1633043 50.8633242,47.5765824 C50.5150077,46.9505401 49.7686153,46.5912596 48.8137069,46.5912596 C48.0657348,46.5912596 47.2340403,46.8133042 46.4710614,47.216531 C45.2199655,47.8780388 43.9143711,49.7962571 43.2990909,50.7838928 C42.6846007,49.7962571 41.3790063,47.8780388 40.1279103,47.216531 C39.3649314,46.8133042 38.533237,46.5912596 37.7852649,46.5912596 C36.8303564,46.5912596 36.083964,46.9505401 35.7356475,47.5765824 C35.4102362,48.1633043 35.4718432,48.8926591 35.9094108,49.6304947 C36.2585171,50.2195296 36.8279869,50.7553663 37.519091,51.1770968 L30.1396788,51.1770968 C29.7163281,51.1770968 29.3727506,51.5132476 29.3727506,51.9264972 L29.3727506,56.4468003 C29.3727506,56.8600499 29.7163281,57.1962007 30.1396788,57.1962007 L30.9697935,57.1962007 L30.9697935,70.2043117 C30.9697935,70.5874928 31.2888862,70.8997429 31.6822231,70.8997429 L54.9159588,70.8997429 C55.3092957,70.8997429 55.6291782,70.5874928 55.6291782,70.2043117 L55.6291782,57.1962007 L56.4585031,57.1962007 C56.8826436,57.1962007 57.2262211,56.8600499 57.2262211,56.4468003 L57.2262211,51.9264972 C57.2262211,51.5132476 56.8826436,51.1770968 56.4585031,51.1770968 L56.4585031,51.1770968 Z" id="Fill-54" fill="#FFFFFF"></path>
                </g>
            </g>
        </g>
    </g>
</svg>