<?xml version="1.0" encoding="UTF-8"?>
<svg width="140px" height="191px" viewBox="0 0 140 191" version="1.1" xmlns="http://www.w3.org/2000/svg" xmlns:xlink="http://www.w3.org/1999/xlink">
    <title>More Transactions</title>
    <defs>
        <path d="M4.47898983,0.204739299 C2.06774891,0.204739299 0.09405898,2.163793 0.09405898,4.55830745 L0.09405898,4.55830745 L0.09405898,54.3634804 C0.09405898,56.7585145 2.06774891,58.7175682 4.47898983,58.7175682 L4.47898983,58.7175682 L42.5600574,58.7175682 C44.9712983,58.7175682 46.9449882,56.7585145 46.9449882,54.3634804 L46.9449882,54.3634804 L46.9449882,4.55830745 C46.9449882,2.163793 44.9712983,0.204739299 42.5600574,0.204739299 L42.5600574,0.204739299 L4.47898983,0.204739299 Z" id="path-1"></path>
        <linearGradient x1="84.5052054%" y1="11.7444988%" x2="13.6209019%" y2="102.246234%" id="linearGradient-3">
            <stop stop-color="#3D5AFE" offset="0%"></stop>
            <stop stop-color="#8B9CFE" offset="100%"></stop>
        </linearGradient>
        <polygon id="path-4" points="-3.63797881e-12 187.064018 129.041016 187.064018 129.041016 0.205874924 -3.63797881e-12 0.205874924"></polygon>
        <path d="M2.37064442,0.13289391 C1.23722081,0.13289391 0.309826796,1.08095468 0.309826796,2.23898507 L0.309826796,2.23898507 L0.309826796,6.14687132 C0.309826796,7.30543462 1.23722081,8.25242955 2.37064442,8.25242955 L2.37064442,8.25242955 L38.5504859,8.25242955 C39.6839095,8.25242955 40.6118252,7.30543462 40.6118252,6.14687132 L40.6118252,6.14687132 L40.6118252,2.23898507 C40.6118252,1.08095468 39.6839095,0.13289391 38.5504859,0.13289391 L38.5504859,0.13289391 L2.37064442,0.13289391 Z" id="path-6"></path>
        <linearGradient x1="0.000110914103%" y1="50.0039289%" x2="99.9992496%" y2="50.0039289%" id="linearGradient-8">
            <stop stop-color="#E8E8EB" offset="0%"></stop>
            <stop stop-color="#FFFFFF" offset="100%"></stop>
        </linearGradient>
        <path d="M2.1007729,0.0923921569 C0.969987785,0.0923921569 0.0447526553,1.04045293 0.0447526553,2.1979504 L0.0447526553,2.1979504 L0.0447526553,6.10636956 C0.0447526553,7.26439995 0.969987785,8.21246072 2.1007729,8.21246072 L2.1007729,8.21246072 L38.1958709,8.21246072 C39.3276968,8.21246072 40.2518912,7.26439995 40.2518912,6.10636956 L40.2518912,6.10636956 L40.2518912,2.1979504 C40.2518912,1.04045293 39.3276968,0.0923921569 38.1958709,0.0923921569 L38.1958709,0.0923921569 L2.1007729,0.0923921569 Z" id="path-9"></path>
        <linearGradient x1="-0.000638063806%" y1="49.9980423%" x2="100.001089%" y2="49.9980423%" id="linearGradient-11">
            <stop stop-color="#E8E8EB" offset="0%"></stop>
            <stop stop-color="#FFFFFF" offset="100%"></stop>
        </linearGradient>
        <path d="M2.31066112,0.0608587196 C1.1772375,0.0608587196 0.249843494,1.03032009 0.249843494,2.21515673 L0.249843494,2.21515673 L0.249843494,6.21404857 C0.249843494,7.39833996 1.1772375,8.36834658 2.31066112,8.36834658 L2.31066112,8.36834658 L38.4905026,8.36834658 C39.6239262,8.36834658 40.5513203,7.39833996 40.5513203,6.21404857 L40.5513203,6.21404857 L40.5513203,2.21515673 C40.5513203,1.03032009 39.6239262,0.0608587196 38.4905026,0.0608587196 L38.4905026,0.0608587196 L2.31066112,0.0608587196 Z" id="path-12"></path>
        <linearGradient x1="-0.000567649419%" y1="49.9990818%" x2="99.9999937%" y2="49.9990818%" id="linearGradient-14">
            <stop stop-color="#E8E8EB" offset="0%"></stop>
            <stop stop-color="#FFFFFF" offset="100%"></stop>
        </linearGradient>
        <path d="M2.37064442,0.019419426 C1.23722081,0.019419426 0.309826796,0.988880795 0.309826796,2.17371744 L0.309826796,2.17371744 L0.309826796,6.17206402 C0.309826796,7.35690066 1.23722081,8.32636203 2.37064442,8.32636203 L2.37064442,8.32636203 L38.5504859,8.32636203 C39.6839095,8.32636203 40.6118252,7.35690066 40.6118252,6.17206402 L40.6118252,6.17206402 L40.6118252,2.17371744 C40.6118252,0.988880795 39.6839095,0.019419426 38.5504859,0.019419426 L38.5504859,0.019419426 L2.37064442,0.019419426 Z" id="path-15"></path>
        <linearGradient x1="0.000110914103%" y1="50.0001339%" x2="99.9992496%" y2="50.0001339%" id="linearGradient-17">
            <stop stop-color="#E8E8EB" offset="0%"></stop>
            <stop stop-color="#FFFFFF" offset="100%"></stop>
        </linearGradient>
        <path d="M2.11926717,0.30093819 C0.992828212,0.30093819 0.0730325393,1.23311258 0.0730325393,2.37290287 L0.0730325393,2.37290287 L0.0730325393,6.21746689 C0.0730325393,7.35673289 0.992828212,8.28890728 2.11926717,8.28890728 L2.11926717,8.28890728 L38.0425708,8.28890728 C39.167974,8.28890728 40.0888054,7.35673289 40.0888054,6.21746689 L40.0888054,6.21746689 L40.0888054,2.37290287 C40.0888054,1.23311258 39.167974,0.30093819 38.0425708,0.30093819 L38.0425708,0.30093819 L2.11926717,0.30093819 Z" id="path-18"></path>
        <linearGradient x1="-0.000935999482%" y1="50.0008099%" x2="100.000791%" y2="50.0008099%" id="linearGradient-20">
            <stop stop-color="#E8E8EB" offset="0%"></stop>
            <stop stop-color="#FFFFFF" offset="100%"></stop>
        </linearGradient>
        <path d="M2.1007729,0.261092715 C0.969987785,0.261092715 0.0447526553,1.19274283 0.0447526553,2.33253311 L0.0447526553,2.33253311 L0.0447526553,6.17709713 C0.0447526553,7.31688742 0.969987785,8.24853753 2.1007729,8.24853753 L2.1007729,8.24853753 L38.1958709,8.24853753 C39.3276968,8.24853753 40.2518912,7.31688742 40.2518912,6.17709713 L40.2518912,6.17709713 L40.2518912,2.33253311 C40.2518912,1.19274283 39.3276968,0.261092715 38.1958709,0.261092715 L38.1958709,0.261092715 L2.1007729,0.261092715 Z" id="path-21"></path>
        <linearGradient x1="-0.000638063806%" y1="50.0018622%" x2="100.001089%" y2="50.0018622%" id="linearGradient-23">
            <stop stop-color="#E8E8EB" offset="0%"></stop>
            <stop stop-color="#FFFFFF" offset="100%"></stop>
        </linearGradient>
        <path d="M2.11975774,0.221247241 C0.98685572,0.221247241 0.0589401143,1.15342163 0.0589401143,2.29268764 L0.0589401143,2.29268764 L0.0589401143,6.13725166 C0.0589401143,7.27651766 0.98685572,8.20869205 2.11975774,8.20869205 L2.11975774,8.20869205 L38.3001208,8.20869205 C39.4335445,8.20869205 40.3609385,7.27651766 40.3609385,6.13725166 L40.3609385,6.13725166 L40.3609385,2.29268764 C40.3609385,1.15342163 39.4335445,0.221247241 38.3001208,0.221247241 L38.3001208,0.221247241 L2.11975774,0.221247241 Z" id="path-24"></path>
        <linearGradient x1="0.00084783931%" y1="49.9996324%" x2="99.9999865%" y2="49.9996324%" id="linearGradient-26">
            <stop stop-color="#E8E8EB" offset="0%"></stop>
            <stop stop-color="#FFFFFF" offset="100%"></stop>
        </linearGradient>
        <path d="M2.34039197,0.180877483 C1.20748995,0.180877483 0.279574348,1.11357616 0.279574348,2.25231788 L0.279574348,2.25231788 L0.279574348,6.09740618 C0.279574348,7.23667219 1.20748995,8.1683223 2.34039197,8.1683223 L2.34039197,8.1683223 L38.5202335,8.1683223 C39.6541787,8.1683223 40.5815727,7.23667219 40.5815727,6.09740618 L40.5815727,6.09740618 L40.5815727,2.25231788 C40.5815727,1.11357616 39.6541787,0.180877483 38.5202335,0.180877483 L38.5202335,0.180877483 L2.34039197,0.180877483 Z" id="path-27"></path>
        <linearGradient x1="0.000408842067%" y1="50.0035655%" x2="99.9995475%" y2="50.0035655%" id="linearGradient-29">
            <stop stop-color="#E8E8EB" offset="0%"></stop>
            <stop stop-color="#FFFFFF" offset="100%"></stop>
        </linearGradient>
        <path d="M2.05602025,0.0721412804 C0.925235129,0.0721412804 0,1.01913622 0,2.17769952 L0,2.17769952 L0,6.08558577 C0,7.24361615 0.925235129,8.19114401 2.05602025,8.19114401 L2.05602025,8.19114401 L38.152159,8.19114401 C39.2824238,8.19114401 40.2081793,7.24361615 40.2081793,6.08558577 L40.2081793,6.08558577 L40.2081793,2.17769952 C40.2081793,1.01913622 39.2824238,0.0721412804 38.152159,0.0721412804 L38.152159,0.0721412804 L2.05602025,0.0721412804 Z" id="path-30"></path>
        <linearGradient x1="0%" y1="49.9978759%" x2="99.9991387%" y2="49.9978759%" id="linearGradient-32">
            <stop stop-color="#E8E8EB" offset="0%"></stop>
            <stop stop-color="#FFFFFF" offset="100%"></stop>
        </linearGradient>
        <polygon id="path-33" points="0.183022276 0.140625166 40.2209753 0.140625166 40.2209753 1.50993377 0.183022276 1.50993377"></polygon>
        <path d="M2.20938229,0.039593819 C1.08449704,0.039593819 0.163147656,1.00850993 0.163147656,2.19389183 L0.163147656,2.19389183 L0.163147656,6.19223841 C0.163147656,7.37762031 1.08449704,8.34653642 2.20938229,8.34653642 L2.20938229,8.34653642 L38.1337217,8.34653642 C39.2591249,8.34653642 40.1799564,7.37762031 40.1799564,6.19223841 L40.1799564,6.19223841 L40.1799564,2.19389183 C40.1799564,1.00850993 39.2591249,0.039593819 38.1337217,0.039593819 L38.1337217,0.039593819 L2.20938229,0.039593819 Z" id="path-35"></path>
        <linearGradient x1="0.000301034077%" y1="50.0018405%" x2="99.9994397%" y2="50.0018405%" id="linearGradient-37">
            <stop stop-color="#E8E8EB" offset="0%"></stop>
            <stop stop-color="#FFFFFF" offset="100%"></stop>
        </linearGradient>
        <path d="M2.20938229,0.320336645 C1.08449704,0.320336645 0.163147656,1.25303532 0.163147656,2.39230132 L0.163147656,2.39230132 L0.163147656,6.23686534 C0.163147656,7.37613135 1.08449704,8.30830574 2.20938229,8.30830574 L2.20938229,8.30830574 L38.1337217,8.30830574 C39.2591249,8.30830574 40.1799564,7.37613135 40.1799564,6.23686534 L40.1799564,6.23686534 L40.1799564,2.39230132 C40.1799564,1.25303532 39.2591249,0.320336645 38.1337217,0.320336645 L38.1337217,0.320336645 L2.20938229,0.320336645 Z" id="path-38"></path>
        <linearGradient x1="0.000301034077%" y1="50.0025046%" x2="99.9994397%" y2="50.0025046%" id="linearGradient-40">
            <stop stop-color="#E8E8EB" offset="0%"></stop>
            <stop stop-color="#FFFFFF" offset="100%"></stop>
        </linearGradient>
        <path d="M2.05602025,0.28049117 C0.925235129,0.28049117 0,1.21318985 0,2.35193157 L0,2.35193157 L0,6.19701987 C0,7.33628587 0.925235129,8.26793598 2.05602025,8.26793598 L2.05602025,8.26793598 L38.152159,8.26793598 C39.2824238,8.26793598 40.2081793,7.33628587 40.2081793,6.19701987 L40.2081793,6.19701987 L40.2081793,2.35193157 C40.2081793,1.21318985 39.2824238,0.28049117 38.152159,0.28049117 L38.152159,0.28049117 L2.05602025,0.28049117 Z" id="path-41"></path>
        <linearGradient x1="0%" y1="50.0035563%" x2="99.9991387%" y2="50.0035563%" id="linearGradient-43">
            <stop stop-color="#E8E8EB" offset="0%"></stop>
            <stop stop-color="#FFFFFF" offset="100%"></stop>
        </linearGradient>
    </defs>
    <g id="Layouts" stroke="none" stroke-width="1" fill="none" fill-rule="evenodd">
        <g id="Home---Desktop" transform="translate(-468.000000, -5906.000000)">
            <g id="AERG" transform="translate(33.000000, 5259.000000)">
                <g id="Group-38-Copy" transform="translate(0.000000, 610.000000)">
                    <g id="More-Transactions" transform="translate(435.000000, 37.000000)">
                        <g id="Group-3" transform="translate(67.527594, 0.000000)">
                            <mask id="mask-2" fill="white">
                                <use xlink:href="#path-1"></use>
                            </mask>
                            <g id="Clip-2"></g>
                            <path d="M4.47898983,-1.35074803 C2.06774891,-1.35074803 0.09405898,0.60830567 0.09405898,3.00282012 L0.09405898,3.00282012 L0.09405898,52.8079931 C0.09405898,55.2030272 2.06774891,57.1620809 4.47898983,57.1620809 L4.47898983,57.1620809 L42.5600574,57.1620809 C44.9712983,57.1620809 46.9449882,55.2030272 46.9449882,52.8079931 L46.9449882,52.8079931 L46.9449882,3.00282012 C46.9449882,0.60830567 44.9712983,-1.35074803 42.5600574,-1.35074803 L42.5600574,-1.35074803 L4.47898983,-1.35074803 Z" id="Fill-1" fill="url(#linearGradient-3)" mask="url(#mask-2)"></path>
                        </g>
                        <g id="Group-24" transform="translate(10.000000, 0.419426)">
                            <path d="M97.7456946,6.86775757 C96.2615582,6.86775757 95.0541959,8.07583581 95.0541959,9.56085239 C95.0541959,11.0453465 96.2615582,12.2534247 97.7456946,12.2534247 C99.2298311,12.2534247 100.436671,11.0453465 100.436671,9.56085239 C100.436671,8.07583581 99.2298311,6.86775757 97.7456946,6.86775757 M97.7456946,12.7759499 C95.9732952,12.7759499 94.5319804,11.3337804 94.5319804,9.56085239 C94.5319804,7.78792443 95.9732952,6.34523238 97.7456946,6.34523238 C99.5175718,6.34523238 100.958887,7.78792443 100.958887,9.56085239 C100.958887,11.3337804 99.5175718,12.7759499 97.7456946,12.7759499" id="Fill-4" fill="#FFFFFF"></path>
                            <path d="M100.697935,13.4994383 C100.697935,15.1312844 99.3762081,16.4537957 97.7458513,16.4537957 C96.1154945,16.4537957 94.7932449,15.1312844 94.7932449,13.4994383 C94.7932449,11.8681146 96.1154945,10.5450808 97.7458513,10.5450808 C99.3762081,10.5450808 100.697935,11.8681146 100.697935,13.4994383" id="Fill-6" fill="#FFFFFF"></path>
                            <path d="M67.1726406,17.1922283 L64.3495436,17.1922283 C62.8257188,17.1922283 61.5786682,15.9444381 61.5786682,14.4197096 L61.5786682,6.67118359 C61.5786682,5.14645509 62.8257188,3.89866494 64.3495436,3.89866494 L67.1726406,3.89866494 C68.6969876,3.89866494 69.9440382,5.14645509 69.9440382,6.67118359 L69.9440382,14.4197096 C69.9440382,15.9444381 68.6969876,17.1922283 67.1726406,17.1922283" id="Fill-8" fill="#FFFFFF"></path>
                            <polygon id="Fill-10" fill="#1B1C3C" points="57.1496019 45.2361377 103.896244 45.2361377 103.896244 39.8201642 57.1496019 39.8201642"></polygon>
                            <path d="M110.689902,184.071777 L45.7947048,184.071777 C41.6629358,184.071777 38.2826349,180.689472 38.2826349,176.555252 L38.2826349,48.2523273 C38.2826349,44.118108 41.6629358,40.7358025 45.7947048,40.7358025 L110.689902,40.7358025 C114.821671,40.7358025 118.202494,44.118108 118.202494,48.2523273 L118.202494,176.555252 C118.202494,180.689472 114.821671,184.071777 110.689902,184.071777" id="Fill-12" fill="#FFFFFF"></path>
                            <path d="M44.3119261,41.5744554 C41.4501852,41.5744554 39.1211041,43.9043952 39.1211041,46.7688783 L39.1211041,178.038701 C39.1211041,180.903184 41.4501852,183.233124 44.3119261,183.233124 L112.172785,183.233124 C115.035571,183.233124 117.364652,180.903184 117.364652,178.038701 L117.364652,46.7688783 C117.364652,43.9043952 115.035571,41.5744554 112.172785,41.5744554 L44.3119261,41.5744554 Z M112.172785,184.91043 L44.3119261,184.91043 C40.5248193,184.91043 37.4442701,181.828054 37.4442701,178.038701 L37.4442701,46.7688783 C37.4442701,42.9795256 40.5248193,39.8971495 44.3119261,39.8971495 L112.172785,39.8971495 C115.959892,39.8971495 119.040964,42.9795256 119.040964,46.7688783 L119.040964,178.038701 C119.040964,181.828054 115.959892,184.91043 112.172785,184.91043 L112.172785,184.91043 Z" id="Fill-14" fill="#1B1C3C"></path>
                            <path d="M84.9820168,178.534107 L71.5025904,178.534107 C69.9923431,178.534107 68.7567813,177.297813 68.7567813,175.786147 C68.7567813,174.275005 69.9923431,173.038188 71.5025904,173.038188 L84.9820168,173.038188 C86.4927862,173.038188 87.7283481,174.275005 87.7283481,175.786147 C87.7283481,177.297813 86.4927862,178.534107 84.9820168,178.534107" id="Fill-16" fill="#FFFFFF"></path>
                            <path d="M71.4477577,173.877154 C70.425782,173.877154 69.5944149,174.709014 69.5944149,175.731596 L69.5944149,175.841326 C69.5944149,176.863385 70.425782,177.695246 71.4477577,177.695246 L85.0368494,177.695246 C86.0588251,177.695246 86.8901922,176.863385 86.8901922,175.841326 L86.8901922,175.731596 C86.8901922,174.709014 86.0588251,173.877154 85.0368494,173.877154 L71.4477577,173.877154 Z M85.0368494,179.373074 L71.4477577,179.373074 C69.5014606,179.373074 67.9181032,177.788255 67.9181032,175.841326 L67.9181032,175.731596 C67.9181032,173.784144 69.5014606,172.199848 71.4477577,172.199848 L85.0368494,172.199848 C86.9836688,172.199848 88.5665039,173.784144 88.5665039,175.731596 L88.5665039,175.841326 C88.5665039,177.788255 86.9836688,179.373074 85.0368494,179.373074 L85.0368494,179.373074 Z" id="Fill-18" fill="#1B1C3C"></path>
                            <mask id="mask-5" fill="white">
                                <use xlink:href="#path-4"></use>
                            </mask>
                            <g id="Clip-21"></g>
                            <polygon id="Fill-20" fill="#FFFFFF" mask="url(#mask-5)" points="43.075372 168.07075 113.408922 168.07075 113.408922 49.1053497 43.075372 49.1053497"></polygon>
                            <path d="M43.9140501,167.231574 L112.570766,167.231574 L112.570766,49.9440026 L43.9140501,49.9440026 L43.9140501,167.231574 Z M42.2377384,168.909402 L114.247078,168.909402 L114.247078,48.2666968 L42.2377384,48.2666968 L42.2377384,168.909402 Z" id="Fill-22" fill="#1B1C3C" mask="url(#mask-5)"></path>
                            <path d="M67.0690852,104.418717 C66.7077121,104.418717 66.3667054,104.586447 66.1458082,104.872791 L52.4235516,122.64962 L52.4120629,122.667909 C52.1660994,122.982992 52.0757561,123.368615 52.1211889,123.735428 C52.1702771,124.098583 52.3556636,124.446585 52.6648152,124.687991 L52.6731706,124.692171 L55.2053936,126.651118 C55.5187229,126.89775 55.9082956,126.98867 56.2748909,126.94321 C56.6373085,126.89775 56.9892817,126.708074 57.234723,126.394559 L69.184058,110.917362 C69.3574335,110.690064 69.6336855,110.54637 69.940226,110.54637 L86.8432972,110.518153 C87.2626363,110.517108 87.6485535,110.2919 87.8563953,109.9277 L96.3309084,95.0367769 C96.4818287,94.7671539 96.7549474,94.5827025 97.0797654,94.5518735 C97.6327916,94.499621 98.1064411,94.9777315 98.1257631,95.5336983 L98.2260284,98.4311005 C98.2422171,98.8935353 98.6307454,99.2551227 99.0923839,99.2389244 L103.568293,99.0779867 C104.018443,99.0617884 104.375116,98.6918406 104.375116,98.2409013 L104.375116,76.8262515 C104.375116,76.2405008 103.750024,75.8668953 103.234075,76.1443561 L84.4087286,86.2688042 C84.012367,86.4819945 83.8562246,86.9705555 84.0536221,87.3744675 L86.02603,91.4026142 C86.2291718,91.8180217 86.7304987,91.98941 87.1451378,91.7861477 L89.9442129,90.414519 C90.2157649,90.2849328 90.547894,90.2807526 90.8325014,90.4401228 C91.2936177,90.7013854 91.4544601,91.2845235 91.1985745,91.7448682 L84.341885,103.878948 C84.1831315,104.192463 83.8614468,104.404608 83.4870182,104.404608 L67.0690852,104.418717 Z" id="Fill-23" fill="#1B1C3C" mask="url(#mask-5)"></path>
                        </g>
                        <g id="Group-27" transform="translate(28.940397, 180.353201)">
                            <mask id="mask-7" fill="white">
                                <use xlink:href="#path-6"></use>
                            </mask>
                            <g id="Clip-26"></g>
                            <path d="M2.37064442,-0.666012849 C1.23722081,-0.666012849 0.309826796,0.282047922 0.309826796,1.44007831 L0.309826796,1.44007831 L0.309826796,5.34796456 C0.309826796,6.50652786 1.23722081,7.4535228 2.37064442,7.4535228 L2.37064442,7.4535228 L38.5504859,7.4535228 C39.6839095,7.4535228 40.6118252,6.50652786 40.6118252,5.34796456 L40.6118252,5.34796456 L40.6118252,1.44007831 C40.6118252,0.282047922 39.6839095,-0.666012849 38.5504859,-0.666012849 L38.5504859,-0.666012849 L2.37064442,-0.666012849 Z" id="Fill-25" fill="url(#linearGradient-8)" mask="url(#mask-7)"></path>
                        </g>
                        <path d="M69.205298,186.644592 C68.849274,187.382171 68.0167982,187.90287 67.0523254,187.90287 L31.0928441,187.90287 C30.1283713,187.90287 29.2953696,187.382171 28.9403974,186.644592 L69.205298,186.644592 Z" id="Fill-28" fill="#D1D2D8"></path>
                        <g id="Group-32" transform="translate(28.101545, 172.803532)">
                            <mask id="mask-10" fill="white">
                                <use xlink:href="#path-9"></use>
                            </mask>
                            <g id="Clip-31"></g>
                            <path d="M2.1007729,0.0923921569 C0.969987785,0.0923921569 0.0447526553,1.04045293 0.0447526553,2.1979504 L0.0447526553,2.1979504 L0.0447526553,6.10636956 C0.0447526553,7.26439995 0.969987785,8.21246072 2.1007729,8.21246072 L2.1007729,8.21246072 L38.1958709,8.21246072 C39.3276968,8.21246072 40.2518912,7.26439995 40.2518912,6.10636956 L40.2518912,6.10636956 L40.2518912,2.1979504 C40.2518912,1.04045293 39.3276968,0.0923921569 38.1958709,0.0923921569 L38.1958709,0.0923921569 L2.1007729,0.0923921569 Z" id="Fill-30" fill="url(#linearGradient-11)" mask="url(#mask-10)"></path>
                        </g>
                        <path d="M68.3664459,179.514349 C68.0104219,180.251928 67.1779461,180.772627 66.2134733,180.772627 L30.253992,180.772627 C29.2895192,180.772627 28.4570434,180.251928 28.1015453,179.514349 L68.3664459,179.514349 Z" id="Fill-33" fill="#D1D2D8"></path>
                        <g id="Group-37" transform="translate(29.779249, 164.834437)">
                            <mask id="mask-13" fill="white">
                                <use xlink:href="#path-12"></use>
                            </mask>
                            <g id="Clip-36"></g>
                            <path d="M2.31066112,0.0608587196 C1.1772375,0.0608587196 0.249843494,1.03032009 0.249843494,2.21515673 L0.249843494,2.21515673 L0.249843494,6.21404857 C0.249843494,7.39833996 1.1772375,8.36834658 2.31066112,8.36834658 L2.31066112,8.36834658 L38.4905026,8.36834658 C39.6239262,8.36834658 40.5513203,7.39833996 40.5513203,6.21404857 L40.5513203,6.21404857 L40.5513203,2.21515673 C40.5513203,1.03032009 39.6239262,0.0608587196 38.4905026,0.0608587196 L38.4905026,0.0608587196 L2.31066112,0.0608587196 Z" id="Fill-35" fill="url(#linearGradient-14)" mask="url(#mask-13)"></path>
                        </g>
                        <path d="M70.0441501,171.545254 C69.6881307,172.282833 68.85514,172.803532 67.8912056,172.803532 L31.9316681,172.803532 C30.9677337,172.803532 30.134743,172.282833 29.7792494,171.545254 L70.0441501,171.545254 Z" id="Fill-38" fill="#D1D2D8"></path>
                        <g id="Group-42" transform="translate(28.940397, 157.284768)">
                            <mask id="mask-16" fill="white">
                                <use xlink:href="#path-15"></use>
                            </mask>
                            <g id="Clip-41"></g>
                            <path d="M2.37064442,0.418872806 C1.23722081,0.418872806 0.309826796,1.38833417 0.309826796,2.57317082 L0.309826796,2.57317082 L0.309826796,6.5715174 C0.309826796,7.75635404 1.23722081,8.72581541 2.37064442,8.72581541 L2.37064442,8.72581541 L38.5504859,8.72581541 C39.6839095,8.72581541 40.6118252,7.75635404 40.6118252,6.5715174 L40.6118252,6.5715174 L40.6118252,2.57317082 C40.6118252,1.38833417 39.6839095,0.418872806 38.5504859,0.418872806 L38.5504859,0.418872806 L2.37064442,0.418872806 Z" id="Fill-40" fill="url(#linearGradient-17)" mask="url(#mask-16)"></path>
                        </g>
                        <path d="M69.205298,164.415011 C68.849274,165.15259 68.0167982,165.673289 67.0523254,165.673289 L31.0928441,165.673289 C30.1283713,165.673289 29.2953696,165.15259 28.9403974,164.415011 L69.205298,164.415011 Z" id="Fill-43" fill="#D1D2D8"></path>
                        <g id="Group-47" transform="translate(27.262693, 149.315673)">
                            <mask id="mask-19" fill="white">
                                <use xlink:href="#path-18"></use>
                            </mask>
                            <g id="Clip-46"></g>
                            <path d="M2.11926717,1.06353101 C0.992828212,1.06353101 0.0730325393,1.9957054 0.0730325393,3.13549569 L0.0730325393,3.13549569 L0.0730325393,6.9800597 C0.0730325393,8.11932571 0.992828212,9.0515001 2.11926717,9.0515001 L2.11926717,9.0515001 L38.0425708,9.0515001 C39.167974,9.0515001 40.0888054,8.11932571 40.0888054,6.9800597 L40.0888054,6.9800597 L40.0888054,3.13549569 C40.0888054,1.9957054 39.167974,1.06353101 38.0425708,1.06353101 L38.0425708,1.06353101 L2.11926717,1.06353101 Z" id="Fill-45" fill="url(#linearGradient-20)" mask="url(#mask-19)"></path>
                        </g>
                        <path d="M67.9470199,156.865342 C67.5909958,157.603193 66.7585201,158.12362 65.7940472,158.12362 L29.834566,158.12362 C28.8700931,158.12362 28.0376174,157.603193 27.6821192,156.865342 L67.9470199,156.865342 Z" id="Fill-48" fill="#D1D2D8"></path>
                        <g id="Group-52" transform="translate(28.101545, 141.346578)">
                            <mask id="mask-22" fill="white">
                                <use xlink:href="#path-21"></use>
                            </mask>
                            <g id="Clip-51"></g>
                            <path d="M2.1007729,1.02368553 C0.969987785,1.02368553 0.0447526553,1.95533564 0.0447526553,3.09512593 L0.0447526553,3.09512593 L0.0447526553,6.93968995 C0.0447526553,8.07948023 0.969987785,9.01113034 2.1007729,9.01113034 L2.1007729,9.01113034 L38.1958709,9.01113034 C39.3276968,9.01113034 40.2518912,8.07948023 40.2518912,6.93968995 L40.2518912,6.93968995 L40.2518912,3.09512593 C40.2518912,1.95533564 39.3276968,1.02368553 38.1958709,1.02368553 L38.1958709,1.02368553 L2.1007729,1.02368553 Z" id="Fill-50" fill="url(#linearGradient-23)" mask="url(#mask-22)"></path>
                        </g>
                        <path d="M68.3664459,148.896247 C68.0104219,149.634098 67.1779461,150.154525 66.2134733,150.154525 L30.253992,150.154525 C29.2895192,150.154525 28.4570434,149.634098 28.1015453,148.896247 L68.3664459,148.896247 Z" id="Fill-53" fill="#D1D2D8"></path>
                        <g id="Group-57" transform="translate(24.746137, 132.958057)">
                            <mask id="mask-25" fill="white">
                                <use xlink:href="#path-24"></use>
                            </mask>
                            <g id="Clip-56"></g>
                            <path d="M2.11975774,0.983840056 C0.98685572,0.983840056 0.0589401143,1.91601445 0.0589401143,3.05528045 L0.0589401143,3.05528045 L0.0589401143,6.89984447 C0.0589401143,8.03911048 0.98685572,8.97128487 2.11975774,8.97128487 L2.11975774,8.97128487 L38.3001208,8.97128487 C39.4335445,8.97128487 40.3609385,8.03911048 40.3609385,6.89984447 L40.3609385,6.89984447 L40.3609385,3.05528045 C40.3609385,1.91601445 39.4335445,0.983840056 38.3001208,0.983840056 L38.3001208,0.983840056 L2.11975774,0.983840056 Z" id="Fill-55" fill="url(#linearGradient-26)" mask="url(#mask-25)"></path>
                        </g>
                        <path d="M65.0110375,141.346578 C64.6550135,142.084158 63.8225377,142.604857 62.8580649,142.604857 L26.8985836,142.604857 C25.9341108,142.604857 25.1011091,142.084158 24.7461369,141.346578 L65.0110375,141.346578 Z" id="Fill-58" fill="#D1D2D8"></path>
                        <g id="Group-62" transform="translate(29.359823, 125.408389)">
                            <mask id="mask-28" fill="white">
                                <use xlink:href="#path-27"></use>
                            </mask>
                            <g id="Clip-61"></g>
                            <path d="M2.34039197,0.943470299 C1.20748995,0.943470299 0.279574348,1.87616897 0.279574348,3.0149107 L0.279574348,3.0149107 L0.279574348,6.859999 C0.279574348,7.999265 1.20748995,8.93091511 2.34039197,8.93091511 L2.34039197,8.93091511 L38.5202335,8.93091511 C39.6541787,8.93091511 40.5815727,7.999265 40.5815727,6.859999 L40.5815727,6.859999 L40.5815727,3.0149107 C40.5815727,1.87616897 39.6541787,0.943470299 38.5202335,0.943470299 L38.5202335,0.943470299 L2.34039197,0.943470299 Z" id="Fill-60" fill="url(#linearGradient-29)" mask="url(#mask-28)"></path>
                        </g>
                        <path d="M69.6247241,132.958057 C69.2687,133.695637 68.4356984,134.216336 67.4717514,134.216336 L31.5122702,134.216336 C30.5477973,134.216336 29.7147957,133.695637 29.3598234,132.958057 L69.6247241,132.958057 Z" id="Fill-63" fill="#D1D2D8"></path>
                        <g id="Group-67" transform="translate(0.000000, 181.611479)">
                            <mask id="mask-31" fill="white">
                                <use xlink:href="#path-30"></use>
                            </mask>
                            <g id="Clip-66"></g>
                            <path d="M2.05602025,0.0721412804 C0.925235129,0.0721412804 0,1.01913622 0,2.17769952 L0,2.17769952 L0,6.08558577 C0,7.24361615 0.925235129,8.19114401 2.05602025,8.19114401 L2.05602025,8.19114401 L38.152159,8.19114401 C39.2824238,8.19114401 40.2081793,7.24361615 40.2081793,6.08558577 L40.2081793,6.08558577 L40.2081793,2.17769952 C40.2081793,1.01913622 39.2824238,0.0721412804 38.152159,0.0721412804 L38.152159,0.0721412804 L2.05602025,0.0721412804 Z" id="Fill-65" fill="url(#linearGradient-32)" mask="url(#mask-31)"></path>
                        </g>
                        <g id="Group-70" transform="translate(0.000000, 188.322296)">
                            <mask id="mask-34" fill="white">
                                <use xlink:href="#path-33"></use>
                            </mask>
                            <g id="Clip-69"></g>
                            <path d="M40.2209753,0.140625166 C39.8674809,0.943406623 39.0391743,1.5101351 38.0801376,1.5101351 L2.32333706,1.5101351 C1.36482326,1.5101351 0.536516728,0.943406623 0.183022276,0.140625166 L40.2209753,0.140625166 Z" id="Fill-68" fill="#D1D2D8" mask="url(#mask-34)"></path>
                        </g>
                        <g id="Group-73" transform="translate(0.419426, 174.061810)">
                            <mask id="mask-36" fill="white">
                                <use xlink:href="#path-35"></use>
                            </mask>
                            <g id="Clip-72"></g>
                            <path d="M2.20938229,0.039593819 C1.08449704,0.039593819 0.163147656,1.00850993 0.163147656,2.19389183 L0.163147656,2.19389183 L0.163147656,6.19223841 C0.163147656,7.37762031 1.08449704,8.34653642 2.20938229,8.34653642 L2.20938229,8.34653642 L38.1337217,8.34653642 C39.2591249,8.34653642 40.1799564,7.37762031 40.1799564,6.19223841 L40.1799564,6.19223841 L40.1799564,2.19389183 C40.1799564,1.00850993 39.2591249,0.039593819 38.1337217,0.039593819 L38.1337217,0.039593819 L2.20938229,0.039593819 Z" id="Fill-71" fill="url(#linearGradient-37)" mask="url(#mask-36)"></path>
                        </g>
                        <path d="M41.1037528,180.772627 C40.7482546,181.510206 39.915253,182.030905 38.9507801,182.030905 L2.99129885,182.030905 C2.02682601,182.030905 1.19435027,181.510206 0.838852097,180.772627 L41.1037528,180.772627 Z" id="Fill-74" fill="#D1D2D8"></path>
                        <g id="Group-78" transform="translate(0.419426, 166.092715)">
                            <mask id="mask-39" fill="white">
                                <use xlink:href="#path-38"></use>
                            </mask>
                            <g id="Clip-77"></g>
                            <path d="M2.20938229,0.320336645 C1.08449704,0.320336645 0.163147656,1.25303532 0.163147656,2.39230132 L0.163147656,2.39230132 L0.163147656,6.23686534 C0.163147656,7.37613135 1.08449704,8.30830574 2.20938229,8.30830574 L2.20938229,8.30830574 L38.1337217,8.30830574 C39.2591249,8.30830574 40.1799564,7.37613135 40.1799564,6.23686534 L40.1799564,6.23686534 L40.1799564,2.39230132 C40.1799564,1.25303532 39.2591249,0.320336645 38.1337217,0.320336645 L38.1337217,0.320336645 L2.20938229,0.320336645 Z" id="Fill-76" fill="url(#linearGradient-40)" mask="url(#mask-39)"></path>
                        </g>
                        <path d="M41.1037528,172.803532 C40.7482546,173.541111 39.915253,174.06181 38.9507801,174.06181 L2.99129885,174.06181 C2.02682601,174.06181 1.19435027,173.541111 0.838852097,172.803532 L41.1037528,172.803532 Z" id="Fill-79" fill="#D1D2D8"></path>
                        <g id="Group-83" transform="translate(0.000000, 158.123620)">
                            <mask id="mask-42" fill="white">
                                <use xlink:href="#path-41"></use>
                            </mask>
                            <g id="Clip-82"></g>
                            <path d="M2.05602025,0.28049117 C0.925235129,0.28049117 0,1.21318985 0,2.35193157 L0,2.35193157 L0,6.19701987 C0,7.33628587 0.925235129,8.26793598 2.05602025,8.26793598 L2.05602025,8.26793598 L38.152159,8.26793598 C39.2824238,8.26793598 40.2081793,7.33628587 40.2081793,6.19701987 L40.2081793,6.19701987 L40.2081793,2.35193157 C40.2081793,1.21318985 39.2824238,0.28049117 38.152159,0.28049117 L38.152159,0.28049117 L2.05602025,0.28049117 Z" id="Fill-81" fill="url(#linearGradient-43)" mask="url(#mask-42)"></path>
                        </g>
                        <path d="M40.2649007,164.834437 C39.9094025,165.572017 39.0764009,166.092715 38.111928,166.092715 L2.15244676,166.092715 C1.1884998,166.092715 0.35549817,165.572017 0,164.834437 L40.2649007,164.834437 Z" id="Fill-84" fill="#D1D2D8"></path>
                    </g>
                </g>
            </g>
        </g>
    </g>
</svg>