<?xml version="1.0" encoding="UTF-8"?>
<svg width="223px" height="140px" viewBox="0 0 223 140" version="1.1" xmlns="http://www.w3.org/2000/svg" xmlns:xlink="http://www.w3.org/1999/xlink">
    <title>More Data</title>
    <defs>
        <polygon id="path-1" points="0 139.865177 222.937915 139.865177 222.937915 0.0508254639 0 0.0508254639"></polygon>
        <path d="M0.162157895,6.36589474 C0.162157895,9.84373684 2.98178947,12.6633684 6.45963158,12.6633684 L6.45963158,12.6633684 C9.93678947,12.6633684 12.7564211,9.84373684 12.7564211,6.36589474 L12.7564211,6.36589474 C12.7564211,2.88805263 9.93678947,0.0684210526 6.45963158,0.0684210526 L6.45963158,0.0684210526 C2.98178947,0.0684210526 0.162157895,2.88805263 0.162157895,6.36589474" id="path-3"></path>
        <linearGradient x1="-0.000893681752%" y1="50.0007508%" x2="100.002855%" y2="50.0007508%" id="linearGradient-5">
            <stop stop-color="#F9F9F9" offset="0%"></stop>
            <stop stop-color="#D1D1D8" offset="100%"></stop>
        </linearGradient>
        <path d="M0.162157895,6.56407143 C0.162157895,10.1040179 2.98178947,12.9733036 6.45963158,12.9733036 L6.45963158,12.9733036 C9.93678947,12.9733036 12.7564211,10.1040179 12.7564211,6.56407143 L12.7564211,6.56407143 C12.7564211,3.024125 9.93678947,0.154142857 6.45963158,0.154142857 L6.45963158,0.154142857 C2.98178947,0.154142857 0.162157895,3.024125 0.162157895,6.56407143" id="path-6"></path>
        <linearGradient x1="-0.000893681752%" y1="50.0020275%" x2="100.002855%" y2="50.0020275%" id="linearGradient-8">
            <stop stop-color="#F9F9F9" offset="0%"></stop>
            <stop stop-color="#D1D1D8" offset="100%"></stop>
        </linearGradient>
        <path d="M0.162157895,6.41642857 C0.162157895,9.956375 2.98178947,12.8256607 6.45963158,12.8256607 L6.45963158,12.8256607 C9.93678947,12.8256607 12.7564211,9.956375 12.7564211,6.41642857 L12.7564211,6.41642857 C12.7564211,2.87578571 9.93678947,0.00580357143 6.45963158,0.00580357143 L6.45963158,0.00580357143 C2.98178947,0.00580357143 0.162157895,2.87578571 0.162157895,6.41642857" id="path-9"></path>
        <linearGradient x1="-0.000893681752%" y1="50.0032209%" x2="100.002855%" y2="50.0032209%" id="linearGradient-11">
            <stop stop-color="#F9F9F9" offset="0%"></stop>
            <stop stop-color="#D1D1D8" offset="100%"></stop>
        </linearGradient>
        <polygon id="path-12" points="0 139.865177 222.937915 139.865177 222.937915 0.0508254639 0 0.0508254639"></polygon>
        <path d="M35.8821429,15.174473 C33.4807143,24.6378378 30.9978571,34.4242162 26.6607143,34.4786486 L26.6607143,34.4786486 C26.6492857,34.4786486 26.6378571,34.4786486 26.625,34.4786486 L26.625,34.4786486 C24.8314286,34.4786486 23.6821429,32.8198919 22.0964286,30.5301486 L22.0964286,30.5301486 C20.045,27.5671622 17.2342857,23.5090811 11.3228571,20.246 L11.3228571,20.246 C8.05428571,18.4418514 4.32785714,17.1548108 0.238571429,16.4178243 L0.238571429,16.4178243 L0.238571429,52.5301622 L159.855,52.5301622 L159.855,20.9027703 C155.532857,21.8231081 151.397143,21.878973 147.558571,21.0710811 L147.558571,21.0710811 C143.477857,20.2116216 141.434286,18.7555541 139.631429,17.4706622 L139.631429,17.4706622 C138.203571,16.4536351 136.970714,15.5755541 134.999286,15.2947973 L134.999286,15.2947973 C129.310714,14.4811757 124.034286,19.4982703 118.926429,24.3470541 L118.926429,24.3470541 C113.953571,29.0676351 109.262857,33.5267973 104.34,32.6336757 L104.34,32.6336757 C101.481429,32.1144189 99.7821429,30.0094595 98.1385714,27.9732568 L98.1385714,27.9732568 C96.45,25.8819054 94.8435714,23.8936892 92.1528571,23.9681757 L92.1528571,23.9681757 C90.1528571,24.0147297 88.9671429,25.1506486 87.8207143,26.2493243 L87.8207143,26.2493243 C86.7142857,27.3093243 85.5707143,28.4051351 83.7621429,28.4352162 L83.7621429,28.4352162 C83.7364286,28.4352162 83.7107143,28.4359324 83.6857143,28.4359324 L83.6857143,28.4359324 C79.9471429,28.4359324 77.2957143,23.9216216 74.4892857,19.143027 L74.4892857,19.143027 C71.6028571,14.2276351 68.6178571,9.14464865 64.3885714,8.99209459 L64.3885714,8.99209459 C62.4828571,8.9347973 61.1771429,9.85656757 59.7885714,10.8442297 L59.7885714,10.8442297 C58.3342857,11.8791622 56.8371429,12.9491892 54.6771429,12.667 L54.6771429,12.667 C50.9278571,12.1778243 48.3221429,8.00801351 46.2292857,4.65755405 L46.2292857,4.65755405 C44.7521429,2.29260811 43.3564286,0.0594459459 42.1057143,0.0594459459 L42.1057143,0.0594459459 C39.7164286,0.0594459459 37.7664286,7.74301351 35.8821429,15.174473" id="path-14"></path>
        <linearGradient x1="-4.45263869e-05%" y1="49.9997045%" x2="99.9999065%" y2="49.9997045%" id="linearGradient-16">
            <stop stop-color="#F9F9F9" offset="0%"></stop>
            <stop stop-color="#D1D1D8" offset="100%"></stop>
        </linearGradient>
        <path d="M2.19542939,0.0661573034 C1.02477606,0.0661573034 0.0754438132,1.0254382 0.0754438132,2.20835955 L0.0754438132,2.20835955 L0.0754438132,69.8369438 C0.0754438132,71.0205843 1.02477606,71.9791461 2.19614103,71.9791461 L2.19614103,71.9791461 L103.604608,71.9791461 C104.77455,71.9791461 105.723882,71.0205843 105.723882,69.8369438 L105.723882,69.8369438 L105.723882,2.20835955 C105.723882,1.0254382 104.77455,0.0661573034 103.604608,0.0661573034 L103.604608,0.0661573034 L2.19542939,0.0661573034 Z" id="path-17"></path>
        <linearGradient x1="103.82083%" y1="32.2751565%" x2="-6.7437066%" y2="74.2071411%" id="linearGradient-19">
            <stop stop-color="#3D5AFE" offset="0%"></stop>
            <stop stop-color="#8B9CFE" offset="100%"></stop>
        </linearGradient>
    </defs>
    <g id="Layouts" stroke="none" stroke-width="1" fill="none" fill-rule="evenodd">
        <g id="Home---Desktop" transform="translate(-1154.000000, -5502.000000)">
            <g id="AERG" transform="translate(33.000000, 5259.000000)">
                <g id="More-Data" transform="translate(1121.000000, 243.000000)">
                    <g id="Group-12">
                        <path d="M1.15015329,128.472873 L1.15015329,11.4429872 C1.15015329,5.80635741 5.78744071,1.19489319 11.4547589,1.19489319 L187.335739,1.19489319 C193.003057,1.19489319 197.639628,5.80635741 197.639628,11.4429872 L197.639628,128.472873 C197.639628,134.109503 193.003057,138.721679 187.335739,138.721679 L11.4547589,138.721679 C5.78744071,138.721679 1.15015329,134.109503 1.15015329,128.472873" id="Fill-1" fill="#FFFFFF"></path>
                        <path d="M196.489976,9.42036897 C196.489976,5.51562073 193.295305,2.3382485 189.369298,2.3382485 L9.42048393,2.3382485 C5.49376017,2.3382485 2.29980518,5.51562073 2.29980518,9.42036897 L2.29980518,130.496061 C2.29980518,134.400809 5.49376017,137.578182 9.42048393,137.578182 L189.369298,137.578182 C193.295305,137.578182 196.489976,134.400809 196.489976,130.496061 L196.489976,9.42036897 Z M0.000501405808,130.496061 L0.000501405808,9.42036897 C0.000501405808,4.25393323 4.22591977,0.0513953962 9.42048393,0.0513953962 L189.369298,0.0513953962 C194.563862,0.0513953962 198.78928,4.25393323 198.78928,9.42036897 L198.78928,130.496061 C198.78928,135.661784 194.563862,139.865035 189.369298,139.865035 L9.42048393,139.865035 C4.22591977,139.865035 0.000501405808,135.661784 0.000501405808,130.496061 L0.000501405808,130.496061 Z" id="Fill-3" fill="#1B1C3C"></path>
                        <path d="M8.74122232,79.1525756 L8.74122232,60.763712 C8.74122232,58.7026945 10.4359739,57.0171199 12.5082125,57.0171199 C14.5797348,57.0171199 16.2752027,58.7026945 16.2752027,60.763712 L16.2752027,79.1525756 C16.2752027,81.2128807 14.5797348,82.8991677 12.5082125,82.8991677 C10.4359739,82.8991677 8.74122232,81.2128807 8.74122232,79.1525756" id="Fill-5" fill="#FFFFFF"></path>
                        <path d="M15.1249062,60.6889084 C15.1249062,59.2947116 13.9845661,58.1605465 12.5827787,58.1605465 L12.432357,58.1605465 C11.0312859,58.1605465 9.89094583,59.2947116 9.89094583,60.6889084 L9.89094583,79.2273792 C9.89094583,80.621576 11.0312859,81.7550287 12.432357,81.7550287 L12.5827787,81.7550287 C13.9845661,81.7550287 15.1249062,80.621576 15.1249062,79.2273792 L15.1249062,60.6889084 Z M7.59092577,79.2273792 L7.59092577,60.6889084 C7.59092577,58.0337366 9.7634455,55.872981 12.432357,55.872981 L12.5827787,55.872981 C15.2531228,55.872981 17.4249262,58.0337366 17.4249262,60.6889084 L17.4249262,79.2273792 C17.4249262,81.8825511 15.2531228,84.0425942 12.5827787,84.0425942 L12.432357,84.0425942 C9.7634455,84.0425942 7.59092577,81.8825511 7.59092577,79.2273792 L7.59092577,79.2273792 Z" id="Fill-7" fill="#1B1C3C"></path>
                        <mask id="mask-2" fill="white">
                            <use xlink:href="#path-1"></use>
                        </mask>
                        <g id="Clip-10"></g>
                        <polygon id="Fill-9" fill="#FFFFFF" mask="url(#mask-2)" points="23.0847233 132.181778 186.166962 132.181778 186.166962 7.73422444 23.0847233 7.73422444"></polygon>
                        <path d="M24.2343752,131.038352 L185.016594,131.038352 L185.016594,8.877651 L24.2343752,8.877651 L24.2343752,131.038352 Z M21.9350715,133.325205 L187.315898,133.325205 L187.315898,6.59008548 L21.9350715,6.59008548 L21.9350715,133.325205 Z" id="Fill-11" fill="#1B1C3C" mask="url(#mask-2)"></path>
                    </g>
                    <g id="Group-15" transform="translate(33.000000, 17.000000)">
                        <mask id="mask-4" fill="white">
                            <use xlink:href="#path-3"></use>
                        </mask>
                        <g id="Clip-14"></g>
                        <path d="M0.162157895,6.36589474 C0.162157895,9.84373684 2.98178947,12.6633684 6.45963158,12.6633684 L6.45963158,12.6633684 C9.93678947,12.6633684 12.7564211,9.84373684 12.7564211,6.36589474 L12.7564211,6.36589474 C12.7564211,2.88805263 9.93678947,0.0684210526 6.45963158,0.0684210526 L6.45963158,0.0684210526 C2.98178947,0.0684210526 0.162157895,2.88805263 0.162157895,6.36589474" id="Fill-13" fill="url(#linearGradient-5)" mask="url(#mask-4)"></path>
                    </g>
                    <path d="M38.3869463,25.7126173 L36.2380194,23.2393581 C35.9311357,22.8862547 35.9111216,22.3328035 36.2357956,21.9973552 C36.5804838,21.6396461 37.14088,21.6588365 37.4640715,22.0303627 L39.0429658,23.8473101 L41.5217556,21.2804017 C41.8456883,20.9449535 42.3786578,20.8958261 42.7196396,21.2128515 C43.0821182,21.5521379 43.0932371,22.131688 42.7522553,22.4847915 L39.603362,25.7456248 C39.2638627,26.097193 38.7086553,26.0826083 38.3869463,25.7126173" id="Fill-16" fill="#FFFFFF"></path>
                    <g id="Group-20" transform="translate(33.000000, 36.000000)">
                        <mask id="mask-7" fill="white">
                            <use xlink:href="#path-6"></use>
                        </mask>
                        <g id="Clip-19"></g>
                        <path d="M0.162157895,6.56407143 C0.162157895,10.1040179 2.98178947,12.9733036 6.45963158,12.9733036 L6.45963158,12.9733036 C9.93678947,12.9733036 12.7564211,10.1040179 12.7564211,6.56407143 L12.7564211,6.56407143 C12.7564211,3.024125 9.93678947,0.154142857 6.45963158,0.154142857 L6.45963158,0.154142857 C2.98178947,0.154142857 0.162157895,3.024125 0.162157895,6.56407143" id="Fill-18" fill="url(#linearGradient-8)" mask="url(#mask-7)"></path>
                    </g>
                    <path d="M38.3869463,43.7126173 L36.2380194,41.2393581 C35.9311357,40.8870223 35.9111216,40.3328035 36.2357956,39.9973552 C36.5804838,39.6396461 37.14088,39.6588365 37.4640715,40.0303627 L39.0429658,41.8473101 L41.5217556,39.2804017 C41.8456883,38.9449535 42.3786578,38.8958261 42.7196396,39.2128515 C43.0821182,39.5521379 43.0932371,40.131688 42.7522553,40.4847915 L39.603362,43.7456248 C39.2638627,44.097193 38.7086553,44.0826083 38.3869463,43.7126173" id="Fill-21" fill="#FFFFFF"></path>
                    <g id="Group-25" transform="translate(33.000000, 54.000000)">
                        <mask id="mask-10" fill="white">
                            <use xlink:href="#path-9"></use>
                        </mask>
                        <g id="Clip-24"></g>
                        <path d="M0.162157895,6.41642857 C0.162157895,9.956375 2.98178947,12.8256607 6.45963158,12.8256607 L6.45963158,12.8256607 C9.93678947,12.8256607 12.7564211,9.956375 12.7564211,6.41642857 L12.7564211,6.41642857 C12.7564211,2.87578571 9.93678947,0.00580357143 6.45963158,0.00580357143 L6.45963158,0.00580357143 C2.98178947,0.00580357143 0.162157895,2.87578571 0.162157895,6.41642857" id="Fill-23" fill="url(#linearGradient-11)" mask="url(#mask-10)"></path>
                    </g>
                    <g id="Group-33">
                        <path d="M37.8895893,62.6713464 L35.813053,60.3759443 C35.5165073,60.0489457 35.4971673,59.5345819 35.8109041,59.2232564 C36.1439808,58.8912709 36.6854991,58.9090812 36.9978033,59.2538902 L38.5235095,60.9401773 L40.9187967,58.5578605 C41.2318172,58.246535 41.7468326,58.2009404 42.0763278,58.495168 C42.4265956,58.8100555 42.43734,59.3479291 42.1078448,59.6756401 L39.0650278,62.7019803 C38.7369652,63.0282665 38.2004609,63.0147306 37.8895893,62.6713464" id="Fill-26" fill="#FFFFFF"></path>
                        <path d="M24.5933818,130.297938 L184.65859,130.297938 L184.65859,109.257465 C178.4562,110.019749 172.98443,109.556679 168.385106,107.881079 C162.714923,105.815074 159.581853,102.324952 157.06408,99.5208852 C154.632261,96.8122822 152.710445,94.6728991 149.476377,94.5788603 C146.416369,94.484109 144.489538,96.2836701 142.458128,98.1822568 C140.526284,99.988942 138.527823,101.857607 135.494318,101.893941 C135.464234,101.894653 135.433433,101.894653 135.402632,101.894653 C129.983152,101.895365 126.258423,96.027913 122.654032,90.3535251 C119.27384,85.0289332 116.079885,79.9992812 111.799312,79.9494121 C111.77854,79.9486997 111.757767,79.9486997 111.736278,79.9486997 C107.148415,79.9486997 103.444459,85.8781323 99.8622726,91.6145002 C96.0952824,97.6450957 92.1871823,103.887279 87.0291491,103.722711 C83.3259091,103.609437 80.711436,100.263934 78.1822018,97.0288565 C75.6336277,93.7674193 72.9983821,90.3962701 69.2972909,90.3962701 C69.2335408,90.3962701 69.1705069,90.3969825 69.107473,90.3991197 C66.327536,90.485322 64.4859441,92.3368893 62.5369081,94.2974562 C60.558504,96.2872322 58.5127683,98.3454 55.4455974,98.2364004 C52.8375709,98.143074 51.3756148,96.5800348 49.5254274,94.6009451 C47.9388362,92.9046843 46.1409382,90.9825879 43.0830791,89.3098367 C38.390637,86.742292 32.1717724,85.6095517 24.5933818,85.9415372 L24.5933818,130.297938 Z M185.374884,131.010354 L23.8770878,131.010354 L23.8770878,85.2626054 L24.2180437,85.2455075 C32.0786542,84.8593784 38.5460728,86.014916 43.4290491,88.6857609 C46.5864731,90.413368 48.5068573,92.4658365 50.0490383,94.1157903 C51.8555318,96.0464358 53.1599032,97.4413449 55.4706677,97.5246975 C58.2312648,97.6165991 60.0714241,95.7643193 62.027623,93.7966283 C63.9902686,91.8232379 66.0195295,89.7821681 69.0845516,89.6874168 C73.2591131,89.5477834 76.0447805,93.1333696 78.7480741,96.5914335 C81.2866201,99.8393348 83.6847724,102.906995 87.0513543,103.010295 C91.8139931,103.151354 95.5931603,97.0979608 99.2534227,91.2383449 C102.939472,85.337409 106.750156,79.2362844 111.735562,79.2362844 C111.7592,79.2362844 111.783554,79.2362844 111.807908,79.2369969 C116.477428,79.2918528 119.771665,84.4803734 123.260016,89.9730954 C126.759829,95.4843401 130.378546,101.182238 135.404781,101.182238 C135.432001,101.182238 135.458503,101.182238 135.485723,101.181525 C138.239873,101.148042 140.050664,99.455343 141.967467,97.6636185 C144.015352,95.7493586 146.134866,93.78238 149.49715,93.866445 C153.039224,93.9690328 155.152291,96.3221405 157.598435,99.0464166 C160.191419,101.934548 163.129657,105.207384 168.631512,107.212121 C173.220807,108.884872 178.717648,109.317308 184.969462,108.499455 L185.374884,108.446736 L185.374884,131.010354 Z" id="Fill-28" fill="#1B1C3C"></path>
                        <mask id="mask-13" fill="white">
                            <use xlink:href="#path-12"></use>
                        </mask>
                        <g id="Clip-31"></g>
                        <polygon id="Fill-30" fill="#FFFFFF" mask="url(#mask-13)" points="111.210375 130.65436 111.926669 130.65436 111.926669 115.93586 111.210375 115.93586"></polygon>
                        <polygon id="Fill-32" fill="#FFFFFF" mask="url(#mask-13)" points="65.8016329 130.65436 66.5179269 130.65436 66.5179269 115.495587 65.8016329 115.495587"></polygon>
                    </g>
                    <g id="Group-36" transform="translate(25.000000, 77.000000)">
                        <mask id="mask-15" fill="white">
                            <use xlink:href="#path-14"></use>
                        </mask>
                        <g id="Clip-35"></g>
                        <path d="M35.8821429,15.174473 C33.4807143,24.6378378 30.9978571,34.4242162 26.6607143,34.4786486 L26.6607143,34.4786486 C26.6492857,34.4786486 26.6378571,34.4786486 26.625,34.4786486 L26.625,34.4786486 C24.8314286,34.4786486 23.6821429,32.8198919 22.0964286,30.5301486 L22.0964286,30.5301486 C20.045,27.5671622 17.2342857,23.5090811 11.3228571,20.246 L11.3228571,20.246 C8.05428571,18.4418514 4.32785714,17.1548108 0.238571429,16.4178243 L0.238571429,16.4178243 L0.238571429,52.5301622 L159.855,52.5301622 L159.855,20.9027703 C155.532857,21.8231081 151.397143,21.878973 147.558571,21.0710811 L147.558571,21.0710811 C143.477857,20.2116216 141.434286,18.7555541 139.631429,17.4706622 L139.631429,17.4706622 C138.203571,16.4536351 136.970714,15.5755541 134.999286,15.2947973 L134.999286,15.2947973 C129.310714,14.4811757 124.034286,19.4982703 118.926429,24.3470541 L118.926429,24.3470541 C113.953571,29.0676351 109.262857,33.5267973 104.34,32.6336757 L104.34,32.6336757 C101.481429,32.1144189 99.7821429,30.0094595 98.1385714,27.9732568 L98.1385714,27.9732568 C96.45,25.8819054 94.8435714,23.8936892 92.1528571,23.9681757 L92.1528571,23.9681757 C90.1528571,24.0147297 88.9671429,25.1506486 87.8207143,26.2493243 L87.8207143,26.2493243 C86.7142857,27.3093243 85.5707143,28.4051351 83.7621429,28.4352162 L83.7621429,28.4352162 C83.7364286,28.4352162 83.7107143,28.4359324 83.6857143,28.4359324 L83.6857143,28.4359324 C79.9471429,28.4359324 77.2957143,23.9216216 74.4892857,19.143027 L74.4892857,19.143027 C71.6028571,14.2276351 68.6178571,9.14464865 64.3885714,8.99209459 L64.3885714,8.99209459 C62.4828571,8.9347973 61.1771429,9.85656757 59.7885714,10.8442297 L59.7885714,10.8442297 C58.3342857,11.8791622 56.8371429,12.9491892 54.6771429,12.667 L54.6771429,12.667 C50.9278571,12.1778243 48.3221429,8.00801351 46.2292857,4.65755405 L46.2292857,4.65755405 C44.7521429,2.29260811 43.3564286,0.0594459459 42.1057143,0.0594459459 L42.1057143,0.0594459459 C39.7164286,0.0594459459 37.7664286,7.74301351 35.8821429,15.174473" id="Fill-34" fill="url(#linearGradient-16)" mask="url(#mask-15)"></path>
                    </g>
                    <g id="Group-41" transform="translate(25.000000, 77.000000)" fill="#1B1C3C">
                        <path d="M0.593562832,40.8133421 C2.5277,40.1745789 5.91582389,39.4867895 8.09359823,40.2776053 C11.3670274,41.4663158 11.6063903,44.0767895 13.089585,44.1805263 C17.0241115,44.4555 19.2182708,26.3434737 25.5777708,25.6791316 C31.0524832,25.1078684 34.2404257,38.0231053 42.3488416,38.2540263 C49.5974035,38.4607895 52.785346,28.3031053 58.9411027,29.0036842 C65.894023,29.7945 66.7859345,43.3136842 74.4633549,43.8913421 C78.1770407,44.1705789 79.752846,41.1416053 84.4546159,41.7235263 C89.2397354,42.3153947 89.8110717,45.7252105 93.196346,45.7699737 C99.0407885,45.8488421 100.823899,35.7316579 107.11216,35.3636053 C112.121682,35.0701579 113.921178,41.3156842 119.244864,41.1451579 C125.294474,40.9511842 126.84962,32.7609474 132.447576,32.1832895 C137.85105,31.6262368 138.709479,42.1207105 147.434112,44.6139474 C151.557421,45.792 157.289306,44.8676053 160.499333,43.7463947 L160.499333,53.3399211 L0.593562832,53.3399211 L0.593562832,40.8133421 Z" id="Fill-37"></path>
                        <path d="M160.855456,53.6949711 L0.238009292,53.6949711 L0.238009292,16.3148921 L0.65404469,16.3852342 C4.97468628,17.1170763 8.90921283,18.44505 12.3486288,20.3336289 C18.3911155,23.6517868 21.2485093,27.7564974 23.3350978,30.7534974 C24.8475004,32.9262868 25.8498323,34.3651026 27.2674872,34.3658132 C27.2767482,34.3658132 27.2852969,34.3651026 27.294558,34.3651026 C31.0723588,34.3182079 33.5892305,24.4539711 35.8083235,15.7500237 C37.933381,7.41626053 39.7692084,0.219339474 42.7056774,0.219339474 C44.347735,0.219339474 45.7048367,2.37933947 47.4224075,5.11486579 C49.5353544,8.47849737 51.9304075,12.2918921 55.3363412,12.7338395 C57.2085004,12.9782605 58.5299827,12.0410763 59.9298279,11.0506026 C61.3517571,10.0444974 62.8406509,9.00712895 64.9550226,9.08173421 C69.5648942,9.24728684 72.641704,14.4604184 75.6187792,19.5016026 C78.3272836,24.0916026 80.8940226,28.4414447 84.2408279,28.3703921 C85.7653412,28.3455237 86.7569872,27.3998132 87.8077615,26.3986816 C88.9917527,25.2703658 90.3331819,23.9921289 92.6035668,23.9388395 C95.651881,23.8748921 97.4243058,26.0583395 99.1440137,28.1757079 C100.702009,30.0941289 102.312009,32.0786289 104.901545,32.5461553 C109.453,33.3689447 114.008018,29.0645763 118.833031,24.5086816 C124.049859,19.5826026 129.45262,14.4888395 135.453788,15.3407605 C137.590956,15.6441553 138.885368,16.5614447 140.38566,17.6243921 C142.126739,18.8585763 144.10077,20.2576026 148.024611,21.0796816 C151.883624,21.8868395 156.053952,21.7994447 160.421611,20.8196289 L160.855456,20.7222868 L160.855456,53.6949711 Z M0.950398673,52.9844447 L160.143067,52.9844447 L160.143067,21.6076026 C155.832399,22.5206289 151.706952,22.5767605 147.878571,21.7745763 C143.809403,20.9226553 141.771257,19.4781553 139.973186,18.2034711 C138.548408,17.1945237 137.319536,16.3234184 135.353341,16.0441816 C129.679872,15.2377342 124.417452,20.2149711 119.322443,25.0245237 C114.3635,29.7083132 109.685239,34.1313395 104.774739,33.2460237 C101.924469,32.7308921 100.228983,30.6426553 98.5904872,28.6226289 C96.9056863,26.5471816 95.3035226,24.5754711 92.6206642,24.6493658 C90.6252615,24.69555 89.4434075,25.8224447 88.3000226,26.9123921 C87.1972438,27.9639711 86.055996,29.0510763 84.2522261,29.0809184 C84.2265801,29.0809184 84.2002217,29.0816289 84.1752881,29.0816289 C80.4473544,29.0816289 77.802965,24.6024711 75.0039872,19.86255 C72.1252217,14.9862079 69.1488588,9.94360263 64.9300889,9.79155 C63.0294341,9.73470789 61.7271863,10.6491553 60.3415889,11.6296816 C58.8918765,12.6563921 57.397996,13.7172079 55.2444429,13.4379711 C51.5051111,12.9526816 48.9063146,8.81599737 46.8190137,5.49215526 C45.3450801,3.14528684 43.9530712,0.929865789 42.7056774,0.929865789 C40.3234473,0.929865789 38.3786243,8.55310263 36.4986288,15.9248132 C34.1042881,25.3137079 31.628735,35.0223395 27.3023942,35.0756289 C27.290996,35.0756289 27.2788854,35.0763395 27.2667748,35.0763395 C25.477965,35.0763395 24.3317305,33.4307605 22.7502261,31.1592079 C20.7042438,28.2197605 17.9009916,24.1932079 12.0052571,20.95605 C8.74536327,19.1669447 5.02882788,17.8901289 0.950398673,17.1582868 L0.950398673,52.9844447 Z" id="Fill-39"></path>
                    </g>
                    <g id="Group-44" transform="translate(117.000000, 41.000000)">
                        <mask id="mask-18" fill="white">
                            <use xlink:href="#path-17"></use>
                        </mask>
                        <g id="Clip-43"></g>
                        <path d="M2.19542939,0.0661573034 C1.02477606,0.0661573034 0.0754438132,1.0254382 0.0754438132,2.20835955 L0.0754438132,69.8369438 C0.0754438132,71.0205843 1.02477606,71.9791461 2.19614103,71.9791461 L103.604608,71.9791461 C104.77455,71.9791461 105.723882,71.0205843 105.723882,69.8369438 L105.723882,2.20835955 C105.723882,1.0254382 104.77455,0.0661573034 103.604608,0.0661573034 L2.19542939,0.0661573034 Z" id="Fill-42" fill="url(#linearGradient-19)" mask="url(#mask-18)"></path>
                    </g>
                    <g id="Group-79" transform="translate(52.000000, 20.000000)">
                        <path d="M169.3677,72.5292692 L169.3677,91.260006 C169.3677,92.4205173 168.422246,93.3612241 167.255166,93.3612241 L67.1676463,93.3612241 C66.0012774,93.3612241 65.0558225,92.4205173 65.0558225,91.260006 L65.0558225,72.5292692 L169.3677,72.5292692 Z" id="Fill-45" fill="#FFFFFF"></path>
                        <path d="M65.5424015,73.0134752 L65.5424015,91.2600767 C65.5424015,92.1513098 66.2712044,92.8764526 67.1676463,92.8764526 L167.255166,92.8764526 C168.151608,92.8764526 168.881121,92.1513098 168.881121,91.2600767 L168.881121,73.0134752 L65.5424015,73.0134752 Z M167.255166,93.8454301 L67.1676463,93.8454301 C65.7349021,93.8454301 64.5699539,92.6856256 64.5699539,91.2600767 L64.5699539,72.0444977 L169.853569,72.0444977 L169.853569,91.2600767 C169.853569,92.6856256 168.687911,93.8454301 167.255166,93.8454301 L167.255166,93.8454301 Z" id="Fill-47" fill="#1B1C3C"></path>
                        <path d="M121.039327,82.2067459 L74.1444785,82.2067459 C73.3581385,82.2067459 72.7209686,81.7134226 72.7209686,81.1041895 C72.7209686,80.4956632 73.3581385,80.0023398 74.1444785,80.0023398 L121.039327,80.0023398 C121.825667,80.0023398 122.463547,80.4956632 122.463547,81.1041895 C122.463547,81.7134226 121.825667,82.2067459 121.039327,82.2067459" id="Fill-49" fill="#1B1C3C"></path>
                        <path d="M107.452763,86.1071098 L74.1444785,86.1071098 C73.3581385,86.1071098 72.7202583,85.6137865 72.7202583,85.0045534 C72.7202583,84.3960271 73.3581385,83.9027038 74.1444785,83.9027038 L107.452763,83.9027038 C108.239103,83.9027038 108.877694,84.3960271 108.877694,85.0045534 C108.877694,85.6137865 108.239103,86.1071098 107.452763,86.1071098" id="Fill-51" fill="#1B1C3C"></path>
                        <path d="M102.182154,67.5658571 C102.0685,67.5658571 101.954847,67.5630301 101.840483,67.5573759 C98.372631,67.3806842 95.33169,64.5451353 92.8036103,59.130594 C90.5894984,54.3888947 88.1189557,51.9364135 85.4615952,51.841 C85.4061891,51.8388797 85.3507831,51.8381729 85.2960873,51.8381729 C81.4396826,51.8381729 78.0009543,56.6272256 76.8189581,58.4740075 C76.5653688,58.8705038 76.0461144,59.0005489 75.6326999,58.7722632 C75.1844789,58.5248947 75.0360191,57.9531203 75.3109184,57.5226992 C76.6605536,55.4031053 80.6490805,49.8938571 85.5262356,50.0684286 C88.9081371,50.1899925 91.9007754,52.9873759 94.4203311,58.3828346 C96.6479394,63.1528045 99.1745984,65.6434511 101.928564,65.7855113 C106.65797,66.0300526 110.891562,59.403406 111.272301,58.7906391 C111.437099,58.4167594 112.315072,56.4858722 113.694541,54.5210602 C115.814889,51.5003383 118.013374,49.9475714 120.227486,49.9058722 C122.984293,49.8556917 125.48538,52.1682331 127.670368,56.7820075 C129.652201,60.9667744 131.921719,63.1711805 134.416413,63.3358571 C138.838954,63.6263383 142.834584,57.5396617 142.873653,57.4788797 L142.903487,57.4350602 C149.194917,48.875406 152.782105,43.3329398 156.142697,36.9840526 L157.720349,37.8109699 C154.317848,44.2383083 150.695854,49.8373158 144.358251,58.4619925 C144.025815,58.9694511 139.89238,65.1190301 134.723988,65.1197368 C134.584052,65.1197368 134.444826,65.1154962 134.30418,65.1063083 C131.112648,64.8985188 128.337372,62.3520376 126.057199,57.5382481 C124.788542,54.8596015 122.76622,51.6791504 120.313436,51.6791504 C120.296388,51.6791504 120.28005,51.6798571 120.262292,51.6798571 C116.957817,51.7399323 113.816719,57.3799323 112.88476,59.5482932 L112.86203,59.6027143 L112.831485,59.6543083 C112.634723,59.9829549 108.024653,67.5651504 102.182154,67.5658571" id="Fill-53" fill="#FFFFFF"></path>
                        <polygon id="Fill-55" fill="#FFFFFF" points="158.595481 42.3664361 163.462692 27.8444962 151.949594 37.9986165"></polygon>
                        <path d="M124.725535,3.40711128 L69.3002829,3.40711128 C69.1226993,3.40711128 68.9785015,3.55058496 68.9785015,3.72727669 L68.9785015,4.1350812 C68.9785015,4.3124797 69.1226993,4.45524662 69.3002829,4.45524662 L124.725535,4.45524662 C124.903119,4.45524662 125.047317,4.3124797 125.047317,4.1350812 L125.047317,3.72727669 C125.047317,3.55058496 124.903119,3.40711128 124.725535,3.40711128" id="Fill-57" fill="#1B1C3C"></path>
                        <path d="M124.725535,6.49850977 L69.3002829,6.49850977 C69.1226993,6.49850977 68.9785015,6.64198346 68.9785015,6.81867519 L68.9785015,7.2264797 C68.9785015,7.4038782 69.1226993,7.54735188 69.3002829,7.54735188 L124.725535,7.54735188 C124.903119,7.54735188 125.047317,7.4038782 125.047317,7.2264797 L125.047317,6.81867519 C125.047317,6.64198346 124.903119,6.49850977 124.725535,6.49850977" id="Fill-59" fill="#1B1C3C"></path>
                        <path d="M124.725535,9.55697293 L69.3002829,9.55697293 C69.1226993,9.55697293 68.9785015,9.70044662 68.9785015,9.87713835 L68.9785015,10.2849429 C68.9785015,10.4623414 69.1226993,10.6051083 69.3002829,10.6051083 L124.725535,10.6051083 C124.903119,10.6051083 125.047317,10.4623414 125.047317,10.2849429 L125.047317,9.87713835 C125.047317,9.70044662 124.903119,9.55697293 124.725535,9.55697293" id="Fill-61" fill="#1B1C3C"></path>
                        <path d="M124.725535,12.6483714 L69.3002829,12.6483714 C69.1226993,12.6483714 68.9785015,12.7918451 68.9785015,12.9685368 L68.9785015,13.3763414 C68.9785015,13.5537398 69.1226993,13.6972135 69.3002829,13.6972135 L124.725535,13.6972135 C124.903119,13.6972135 125.047317,13.5537398 125.047317,13.3763414 L125.047317,12.9685368 C125.047317,12.7918451 124.903119,12.6483714 124.725535,12.6483714" id="Fill-63" fill="#1B1C3C"></path>
                        <path d="M109.411084,0.303273684 L69.2999277,0.303273684 C69.1223442,0.303273684 68.9781463,0.446747368 68.9781463,0.623439098 L68.9781463,1.03124361 C68.9781463,1.20864211 69.1223442,1.35211579 69.2999277,1.35211579 L109.411084,1.35211579 C109.588667,1.35211579 109.732865,1.20864211 109.732865,1.03124361 L109.732865,0.623439098 C109.732865,0.446747368 109.588667,0.303273684 109.411084,0.303273684" id="Fill-65" fill="#1B1C3C"></path>
                        <path d="M48.6060434,3.60762105 L1.71119527,3.60762105 C0.924855226,3.60762105 0.287685381,3.11429774 0.287685381,2.50506466 C0.287685381,1.89653835 0.924855226,1.40321504 1.71119527,1.40321504 L48.6060434,1.40321504 C49.3923835,1.40321504 50.0302637,1.89653835 50.0302637,2.50506466 C50.0302637,3.11429774 49.3923835,3.60762105 48.6060434,3.60762105" id="Fill-67" fill="#D1D2D8"></path>
                        <path d="M35.0194798,7.50791429 L1.71119527,7.50791429 C0.924855226,7.50791429 0.286975047,7.01459098 0.286975047,6.40535789 C0.286975047,5.79683158 0.924855226,5.30350827 1.71119527,5.30350827 L35.0194798,5.30350827 C35.8058198,5.30350827 36.4437,5.79683158 36.4437,6.40535789 C36.4437,7.01459098 35.8058198,7.50791429 35.0194798,7.50791429" id="Fill-69" fill="#D1D2D8"></path>
                        <path d="M48.6060434,21.7507519 L1.71119527,21.7507519 C0.924855226,21.7507519 0.287685381,21.2574286 0.287685381,20.6481955 C0.287685381,20.0396692 0.924855226,19.5463459 1.71119527,19.5463459 L48.6060434,19.5463459 C49.3923835,19.5463459 50.0302637,20.0396692 50.0302637,20.6481955 C50.0302637,21.2574286 49.3923835,21.7507519 48.6060434,21.7507519" id="Fill-71" fill="#D1D2D8"></path>
                        <path d="M35.0194798,25.6511158 L1.71119527,25.6511158 C0.924855226,25.6511158 0.286975047,25.1577925 0.286975047,24.5485594 C0.286975047,23.9400331 0.924855226,23.4467098 1.71119527,23.4467098 L35.0194798,23.4467098 C35.8058198,23.4467098 36.4437,23.9400331 36.4437,24.5485594 C36.4437,25.1577925 35.8058198,25.6511158 35.0194798,25.6511158" id="Fill-73" fill="#D1D2D8"></path>
                        <path d="M48.6060434,40.0595489 L1.71119527,40.0595489 C0.924855226,40.0595489 0.287685381,39.5662256 0.287685381,38.9569925 C0.287685381,38.3484662 0.924855226,37.8551429 1.71119527,37.8551429 L48.6060434,37.8551429 C49.3923835,37.8551429 50.0302637,38.3484662 50.0302637,38.9569925 C50.0302637,39.5662256 49.3923835,40.0595489 48.6060434,40.0595489" id="Fill-75" fill="#D1D2D8"></path>
                        <path d="M35.0194798,43.9597008 L1.71119527,43.9597008 C0.924855226,43.9597008 0.286975047,43.4663774 0.286975047,42.8571444 C0.286975047,42.248618 0.924855226,41.7552947 1.71119527,41.7552947 L35.0194798,41.7552947 C35.8058198,41.7552947 36.4437,42.248618 36.4437,42.8571444 C36.4437,43.4663774 35.8058198,43.9597008 35.0194798,43.9597008" id="Fill-77" fill="#D1D2D8"></path>
                    </g>
                </g>
            </g>
        </g>
    </g>
</svg>