<svg xmlns="http://www.w3.org/2000/svg" width="1834" height="937" viewBox="0 0 1834 937">
    <g fill="none" fill-rule="evenodd">
        <g stroke="#D1D2D8">
            <g>
                <g>
                    <path d="M1478.225 561.234l.009-13.81-.338-202.666c71.046.307 142.1.627 213.147.983l56.72.302c3.118 83.567 2.985 168.199-.402 251.789-31.88.256-63.755.552-95.635.85-30.298.283-60.601.562-90.903.813-6.36.055-12.722.124-19.085.197-14.84.165-30.166.338-45.246.26-8.28-.045-14.78-.626-18.212-1.293-.096-9.481-.074-25.39-.055-37.425zm37.603 120.594c4.498-.115 8.946-.233 13.307-.265 39.404-.288 78.799-.663 118.198-1.056 46.38-.462 92.755-.873 139.13-1.184 22.07-.147 39.633-17.576 40.854-40.538 5.874-110.715 6.052-223.021.525-333.796-1.147-22.993-18.714-40.428-40.857-40.556-107.16-.617-214.32-1.093-321.473-1.56l-28.565-.118h-.165c-10.88 0-21.682 4.759-29.662 13.069-7.621 7.936-11.566 17.933-11.113 27.853l.397 236.273c.009 5.07-.064 10.176-.132 15.305-.275 19.807-.553 40.282 3.652 60.148 6.217 29.325 27.327 52.3 56.478 61.47 13.68 4.306 28.076 5.252 42.43 5.252 5.686 0 11.369-.146 16.996-.297z" transform="translate(335 -7593) translate(70 7992) translate(-403.971 -397.755)"/>
                    <path d="M246.858 564.98c26.157.33 51.643-8.573 75.75-26.466 21.664-16.08 44.182-46.613 64.046-73.552 13.696-18.567 26.628-36.103 34.475-41.534 4.879-3.382 9.488-6.578 14.493-7.759l3.699-.876c9.776-2.313 20.224.176 27.946 6.657 4.879 4.104 16.838 18.882 22.63 38.325.382 1.321 2.814 10.145 3.414 12.695 1.232 5.195 2.355 10.627 3.34 16.14 1.187 6.603 2.096 13.44 2.975 20.055.634 4.784 1.27 9.575 2.012 14.345 6.314 40.667 19.747 98.738 63.329 133.415 49.952 39.718 114.129 22.348 155.582-12.506 21.129-17.762 37.46-39.86 53.258-61.227l2.899-3.92c4.077-5.51 8.482-11.386 13.032-17.025 1.327-1.646 16.455-17.565 36.184-31.487l.604-.452c6.465-4.935 25.637-14.867 63.914-.484 13.659 5.132 21.629 15.788 24.63 19.797.495.66.886 1.177 1.178 1.531 7.017 8.526 17.662 13.947 29.215 14.845 10.81.848 20.946-2.395 28.54-9.13 17.164-15.215 19.663-40.426 5.689-57.392-33.408-40.572-88.33-61.862-143.311-55.556-26.151 2.994-51.745 13.588-74.017 30.637-23.51 17.991-41.755 42.832-56.42 62.794l-2.134 2.914c-6.844 9.34-13.925 18.994-21.52 27.758-.251.291-.958 1.056-1.7 1.861l-2.483 2.685c-11.487 12.063-22.676 20.126-31.605 22.782-2.036.13-8.336.482-14.07.798-6.72.376-13.22-1.9-18.285-6.416-8.257-7.357-19.154-20.777-24.144-42.938-.357-1.584-.776-3.158-1.202-4.729-.297-1.107-.593-2.215-.861-3.32-1.301-5.403-2.48-10.974-3.607-17.033-1.576-8.478-2.825-17.214-4.035-25.664-1.975-13.77-4.012-28.013-7.541-41.976-7.797-30.858-18.144-54.943-32.563-75.806-33.17-47.978-97.503-63.439-146.481-35.187-20.722 11.952-38.972 28.421-57.44 51.827-6.99 8.865-13.33 18.256-19.461 27.335-5.78 8.556-11.751 17.408-18.144 25.597-3.315 4.248-6.663 8.27-9.782 11.776l-2.491 2.575c-1.337 1.323-2.68 2.645-4.047 3.91-.486.446-1.121 1.072-1.885 1.83-4.323 4.294-14.445 14.35-24.18 14.082-8.137-.226-14.366-2.415-18.497-6.51l-1.11-1.102c-6.94-6.85-15.576-15.379-20.216-29.32l-2.026-6.227c-.268-.91-.613-2.086-.858-2.994-1.384-5.066-2.73-10.542-4.114-16.733-1.44-6.439-2.673-12.914-3.912-19.39-.823-4.295-1.641-8.592-2.521-12.878-10.926-53.304-43-114.935-100.171-128.08-15.378-3.532-29.982-3.355-43.41.532-20.035 5.803-37.667 23.936-32.596 47.356 4.278 19.78 24.164 34.068 46.253 33.216l.688-.024c6.056-.23 7.88-.297 12.167-.092 1.357.066 2.622.56 3.659 1.452 2.837 2.42 15.789 17.345 22.76 30.038 2.275 4.147 3.914 8.752 5.65 13.63l.44 1.234c.122.353.425 1.34.736 2.346l.855 2.792c.656 2.425 1.315 4.845 1.85 7.303 1.382 6.242 2.682 12.62 4.002 19.064 8.048 39.35 17.166 83.952 47.872 114.753 12.24 12.276 26.189 21.394 40.892 26.918 10.458 3.93 21.302 6.041 32.182 6.184z" transform="translate(335 -7593) translate(70 7992) translate(-403.971 -397.755) rotate(39 507.348 467.488)"/>
                </g>
            </g>
        </g>
    </g>
</svg>
