<?xml version="1.0" encoding="utf-8"?>
<!-- Generator: Adobe Illustrator 23.0.1, SVG Export Plug-In . SVG Version: 6.00 Build 0)  -->
<svg version="1.1" id="Layer_1" xmlns="http://www.w3.org/2000/svg" xmlns:xlink="http://www.w3.org/1999/xlink" x="0px" y="0px"
	 viewBox="0 0 87 71" style="enable-background:new 0 0 87 71;" xml:space="preserve">
<style type="text/css">
	.st0{fill:none;}
	.st1{fill:#231F20;}
	.st2{fill:#FF5F00;}
	.st3{fill:#EB001B;}
	.st4{fill:#F79E1B;}
</style>
<g>
	<g>
		<g>
			<g>
				<g>
					<path class="st0" d="M0,0h87v71H0V0z"/>
					<path class="st1" d="M23,61.7v-3.5c0-0.6-0.2-1.2-0.6-1.6c-0.4-0.4-1-0.6-1.6-0.6c-0.8,0-1.6,0.3-2,1c-0.4-0.6-1.1-1-1.9-1
						c-0.7,0-1.3,0.3-1.7,0.8v-0.7H14v5.5h1.3v-3c-0.1-0.4,0.1-0.8,0.3-1c0.3-0.3,0.7-0.4,1.1-0.4c0.8,0,1.2,0.5,1.2,1.5v3.1h1.3v-3
						c-0.1-0.4,0.1-0.8,0.3-1s0.7-0.4,1-0.4c0.8,0,1.2,0.5,1.2,1.5v3.1L23,61.7L23,61.7z M41.5,56.2h-2v-1.7h-1.3v1.7h-1.1v1.1h1.2
						v2.5c0,1.3,0.5,2,2,2c0.5,0,1.1-0.1,1.5-0.4l-0.4-1c-0.3,0.2-0.7,0.3-1.1,0.3c-0.6,0-0.8-0.4-0.8-0.9v-2.5h2
						C41.5,57.3,41.5,56.2,41.5,56.2z M52.1,56.1c-0.6,0-1.2,0.3-1.5,0.8v-0.7h-1.2v5.5h1.2v-3.1c0-0.9,0.4-1.4,1.2-1.4
						c0.3,0,0.5,0,0.8,0.1l0.4-1.2C52.6,56.1,52.3,56.1,52.1,56.1C52,56,52.1,56.1,52.1,56.1z M36.1,56.6c-0.7-0.4-1.5-0.6-2.3-0.6
						c-1.4,0-2.4,0.7-2.4,1.8c0,0.9,0.7,1.5,2,1.6l0.6,0.1c0.7,0.1,1,0.3,1,0.6c0,0.4-0.5,0.7-1.3,0.7c-0.7,0-1.3-0.2-1.9-0.6
						l-0.6,0.9c0.7,0.5,1.6,0.7,2.5,0.7c1.6,0,2.6-0.7,2.6-1.8c0-1-0.8-1.5-2-1.6l-0.6-0.1c-0.5-0.1-1-0.2-1-0.5s0.4-0.6,1.1-0.6
						c0.6,0,1.2,0.2,1.8,0.5C35.6,57.6,36.1,56.6,36.1,56.6z M69.2,56.1c-0.6,0-1.2,0.3-1.5,0.8v-0.7h-1.2v5.5h1.2v-3.1
						c0-0.9,0.4-1.4,1.2-1.4c0.3,0,0.5,0,0.8,0.1l0.4-1.2C69.8,56.1,69.5,56.1,69.2,56.1C69.2,56,69.2,56.1,69.2,56.1z M53.3,59
						c0,0.8,0.3,1.5,0.9,2.1c0.6,0.5,1.4,0.8,2.2,0.8c0.7,0,1.5-0.2,2-0.7l-0.6-1c-0.4,0.3-1,0.5-1.5,0.5c-0.9-0.1-1.7-0.8-1.7-1.8
						c0-0.9,0.7-1.7,1.7-1.8c0.5,0,1.1,0.2,1.5,0.5l0.6-1c-0.6-0.5-1.3-0.7-2-0.7c-0.8,0-1.6,0.2-2.2,0.8
						C53.6,57.4,53.3,58.1,53.3,59C53.3,58.9,53.3,59,53.3,59z M64.9,59v-2.7h-1.2v0.7c-0.4-0.5-1.1-0.8-1.8-0.8c-1.6,0-3,1.3-3,2.9
						c0,1.6,1.3,2.9,3,2.9c0.7,0,1.4-0.3,1.8-0.8v0.7h1.2L64.9,59L64.9,59z M60.3,59c0.1-0.9,0.8-1.6,1.8-1.6c0.9,0,1.7,0.8,1.7,1.7
						c0,0.9-0.8,1.6-1.7,1.6c-0.5,0-0.9-0.2-1.3-0.5C60.4,59.9,60.3,59.4,60.3,59z M45.4,56.1c-1.6,0-3,1.3-2.9,2.9
						c0,1.6,1.4,2.9,3,2.8c0.9,0,1.7-0.2,2.4-0.7l-0.6-0.9c-0.5,0.4-1.1,0.6-1.7,0.6c-0.8,0.1-1.6-0.5-1.7-1.3h4.2V59
						C48.1,57.2,47,56.1,45.4,56.1C45.4,56.1,45.4,56.1,45.4,56.1z M45.4,57.1c0.4,0,0.7,0.1,1,0.4s0.4,0.6,0.4,1h-3
						C43.9,57.7,44.5,57.1,45.4,57.1C45.3,57.1,45.4,57.1,45.4,57.1z M76.4,59v-5h-1.2v2.9c-0.4-0.5-1.1-0.8-1.8-0.8
						c-1.6,0-3,1.3-3,2.9c0,1.6,1.3,2.9,3,2.9c0.7,0,1.4-0.3,1.8-0.8v0.7h1.2L76.4,59L76.4,59z M78.4,60.9c0.1,0,0.2,0,0.2,0
						c0.1,0,0.1,0.1,0.2,0.1c0.1,0,0.1,0.1,0.1,0.2c0.1,0.1,0.1,0.3,0,0.4c0,0.1-0.1,0.1-0.1,0.2c-0.1,0-0.1,0.1-0.2,0.1
						c-0.1,0-0.1,0-0.2,0c-0.2,0-0.4-0.1-0.5-0.3c-0.1-0.1-0.1-0.3,0-0.4c0-0.1,0.1-0.1,0.1-0.2c0.1,0,0.1-0.1,0.2-0.1
						C78.3,60.9,78.4,60.9,78.4,60.9L78.4,60.9L78.4,60.9z M78.4,61.9c0.1,0,0.1,0,0.2,0c0.1,0,0.1-0.1,0.1-0.1
						c0.2-0.2,0.2-0.4,0-0.6c0,0-0.1-0.1-0.1-0.1c-0.1,0-0.1,0-0.2,0c-0.1,0-0.1,0-0.2,0c-0.1,0-0.1,0.1-0.1,0.1
						c-0.2,0.2-0.2,0.4,0,0.6c0,0,0.1,0.1,0.1,0.1C78.3,61.9,78.4,61.9,78.4,61.9C78.4,61.9,78.4,61.9,78.4,61.9z M78.5,61.2
						c0.1,0,0.1,0,0.2,0c0,0,0.1,0.1,0.1,0.1c0,0,0,0.1,0,0.1c0,0-0.1,0-0.1,0.1l0.2,0.2h-0.1l-0.2-0.2h-0.1v0.2h-0.1v-0.5
						C78.2,61.2,78.5,61.2,78.5,61.2z M78.3,61.3v0.1h0.1c0,0,0,0,0.1,0c0,0,0,0,0-0.1c0,0,0,0,0-0.1c0,0,0,0-0.1,0
						C78.5,61.3,78.3,61.3,78.3,61.3z M71.8,59c0.1-0.9,0.8-1.6,1.8-1.6c0.9,0,1.7,0.8,1.7,1.7s-0.8,1.6-1.7,1.6
						c-0.5,0-0.9-0.2-1.3-0.5C71.9,59.9,71.7,59.4,71.8,59z M30,59v-2.8h-1.2v0.7c-0.4-0.5-1.1-0.8-1.8-0.8c-1.6,0-3,1.3-3,2.9
						c0,1.6,1.3,2.9,3,2.9c0.7,0,1.4-0.3,1.8-0.8v0.7H30L30,59L30,59z M25.4,59c0.1-0.9,0.8-1.6,1.8-1.6c0.9,0,1.7,0.8,1.7,1.7
						s-0.8,1.6-1.7,1.6c-0.5,0-0.9-0.2-1.3-0.5C25.5,59.9,25.3,59.4,25.4,59L25.4,59L25.4,59z"/>
					<g>
						<path class="st2" d="M34.5,13.6h18.8V47H34.5V13.6z"/>
						<path class="st3" d="M35.7,30.3c0-6.5,3-12.7,8.2-16.7c-8.8-6.8-21.5-5.8-29.1,2.3s-7.6,20.6,0,28.8
							c7.6,8.1,20.3,9.1,29.1,2.3C38.7,43,35.7,36.8,35.7,30.3L35.7,30.3z"/>
						<path class="st4" d="M78.8,30.3c0,8.1-4.7,15.5-12.1,19.1S50.4,52,43.9,47c5.2-4,8.2-10.2,8.2-16.7s-3-12.7-8.2-16.7
							c6.5-5,15.3-5.9,22.7-2.4C74.1,14.8,78.8,22.2,78.8,30.3L78.8,30.3z M76.7,43.6v-0.8H77v-0.2h-0.7v0.2h0.3v0.8H76.7z
							 M78.1,43.6v-1h-0.2l-0.3,0.7l-0.3-0.7h-0.2v1h0.2v-0.7l0.2,0.6h0.2l0.2-0.6v0.8L78.1,43.6z"/>
					</g>
				</g>
			</g>
		</g>
	</g>
</g>
</svg>
