<?xml version="1.0" encoding="utf-8"?>
<!-- Generator: Adobe Illustrator 23.0.1, SVG Export Plug-In . SVG Version: 6.00 Build 0)  -->
<svg version="1.1" id="Layer_1" xmlns="http://www.w3.org/2000/svg" xmlns:xlink="http://www.w3.org/1999/xlink" x="0px" y="0px"
	 viewBox="0 0 100 37" style="enable-background:new 0 0 100 37;" xml:space="preserve">
<style type="text/css">
	.st0{fill-rule:evenodd;clip-rule:evenodd;fill:#D17700;stroke:#FF0000;stroke-miterlimit:10;}
	.st1{filter:url(#Adobe_OpacityMaskFilter);}
	.st2{fill-rule:evenodd;clip-rule:evenodd;fill:#FFFFFF;}
	.st3{mask:url(#cfshmzp5xb_1_);fill-rule:evenodd;clip-rule:evenodd;fill:#D17700;stroke:#FF0000;stroke-miterlimit:10;}
	.st4{filter:url(#Adobe_OpacityMaskFilter_1_);}
	.st5{mask:url(#SVGID_1_);fill-rule:evenodd;clip-rule:evenodd;fill:#D17700;stroke:#FF0000;stroke-miterlimit:10;}
	.st6{filter:url(#Adobe_OpacityMaskFilter_2_);}
	.st7{mask:url(#SVGID_2_);fill-rule:evenodd;clip-rule:evenodd;fill:#FFFDE4;stroke:#FF0000;stroke-miterlimit:10;}
</style>
<g>
	<g>
		<g>
			<g>
				<g transform="translate(-144 -7586) translate(105 7130) translate(0 268) translate(39 188)">
					<path class="st0" d="M40.5,5.6h2.4V7l-2.3,0.4L40.5,5.6L40.5,5.6z M38.9,3.2c-0.8,0-1.5,0.7-1.5,1.5v6.5h3.1V9.6l2.4-0.4v2H46
						V4.7c0-0.8-0.7-1.5-1.5-1.5C44.5,3.2,38.9,3.2,38.9,3.2z M29.5,3.2c-0.8,0-1.5,0.7-1.5,1.5v5c0,0.8,0.7,1.5,1.5,1.5h5.9V8.7
						h-4.3V5.6h4.3V3.2L29.5,3.2L29.5,3.2z M65.5,3.2v8h7.9V8.7h-4.9V8.3l2.1,0L71.1,6h-2.6V5.6h4.9V3.2H65.5L65.5,3.2z M56.7,3.2v8
						h3V8.3l2.1,0L62.3,6h-2.6V5.6H64V3.2H56.7L56.7,3.2z M48.1,3.2v8h3V8.3l2.1,0L53.6,6h-2.6V5.6h4.3V3.2H48.1L48.1,3.2z
						 M59.8,20.6h6.3v4.2h-6.3C59.8,24.8,59.8,20.6,59.8,20.6z M52.5,15.2v20.9h7.3v-5.9h3.6l3.9,5.9h7.6l0.4-0.7l-3.8-5.5
						c1.1-0.4,1.9-1.5,1.9-2.7v-8.3c0-2-1.6-3.6-3.6-3.6L52.5,15.2C52.5,15.2,52.5,15.2,52.5,15.2z M68.2,0l-0.1,0.7
						c0,0.4,0,0.8,0.2,1.1c0.3,0.6,0.9,0.9,1.5,0.8h3.7l-0.3-1.2L68.2,0L68.2,0z"/>
					<g transform="translate(0 14.516)">
						<defs>
							<filter id="Adobe_OpacityMaskFilter" filterUnits="userSpaceOnUse" x="-0.5" y="-0.3" width="49.7" height="23.4">
								<feColorMatrix  type="matrix" values="1 0 0 0 0  0 1 0 0 0  0 0 1 0 0  0 0 0 1 0"/>
							</filter>
						</defs>
						<mask maskUnits="userSpaceOnUse" x="-0.5" y="-0.3" width="49.7" height="23.4" id="cfshmzp5xb_1_">
							<g class="st1">
								<path class="st2" d="M0,0.3h48.7v22.2H0V0.3z"/>
							</g>
						</mask>
						<path class="st3" d="M27.9,0.7v20.9h20.7v-5.7H35.3v-2.5l5.8-0.1l1-5.3h-6.9V6.4h13.4V0.7L27.9,0.7L27.9,0.7z M0,0.7v20.9h6.5
							v-8.8l16.6,9.7l0.8-0.4V0.7h-6.4V10L0.7,0.3L0,0.7z"/>
					</g>
					<defs>
						<filter id="Adobe_OpacityMaskFilter_1_" filterUnits="userSpaceOnUse" x="77.1" y="14.7" width="23.3" height="21.8">
							<feColorMatrix  type="matrix" values="1 0 0 0 0  0 1 0 0 0  0 0 1 0 0  0 0 0 1 0"/>
						</filter>
					</defs>
					<mask maskUnits="userSpaceOnUse" x="77.1" y="14.7" width="23.3" height="21.8" id="SVGID_1_">
						<g class="st4">
							<path id="tjo0qchonc_1_" class="st2" d="M0,37h99.9V0H0V37z"/>
						</g>
					</mask>
					<path class="st5" d="M84.6,30.4H93v-9.5h-8.5V30.4z M81.2,15.2c-2,0-3.6,1.6-3.6,3.6v13.6c0,2,1.6,3.6,3.6,3.6h15
						c2,0,3.6-1.6,3.6-3.6V18.8c0-2-1.7-3.6-3.6-3.6L81.2,15.2L81.2,15.2z"/>
					<defs>
						<filter id="Adobe_OpacityMaskFilter_2_" filterUnits="userSpaceOnUse" x="0.2" y="0" width="99.4" height="37">
							<feColorMatrix  type="matrix" values="1 0 0 0 0  0 1 0 0 0  0 0 1 0 0  0 0 0 1 0"/>
						</filter>
					</defs>
					<mask maskUnits="userSpaceOnUse" x="0.2" y="0" width="99.4" height="37" id="SVGID_2_">
						<g class="st6">
							<path id="tjo0qchonc_2_" class="st2" d="M0,37h99.9V0H0V37z"/>
						</g>
					</mask>
					<path class="st7" d="M59,19.9h7.8v5.6H59L59,19.9C59,19.9,59,19.9,59,19.9z M53.2,16v19.4H59v-5.9h4.8l3.9,5.9h6.6l-4.1-5.9
						c1.2,0,2.5-0.9,2.5-2.2v-8.3c0-1.6-1.3-2.9-2.9-2.9H53.2z M28.7,16v19.4h19.2v-4.2H34.5v-4l6-0.1l0.8-3.8h-6.7v-3.1h13.4V16
						L28.7,16L28.7,16z M0.7,35.3h5v-9.4l17.4,10.2V16h-4.9v9.9L0.7,15.7V35.3L0.7,35.3z M40.1,5.2h3.3v2.2l-3.3,0.5V5.2z M38.9,3.6
						c-0.6,0-1.1,0.5-1.1,1v6h2.2V9.2l3.3-0.5v2h2.2v-6c0-0.6-0.5-1.1-1-1.1L38.9,3.6L38.9,3.6L38.9,3.6z M29.5,3.6
						c-0.6,0-1.1,0.5-1.1,1.1v5c0,0.6,0.5,1.1,1.1,1.1h5.4V9.1h-4.3v-4h4.3V3.6L29.5,3.6L29.5,3.6L29.5,3.6z M83.8,31.1h10v-11h-10
						V31.1L83.8,31.1z M81.2,16c-1.6,0-2.9,1.3-2.9,2.9v13.6c0,1.6,1.3,2.9,2.9,2.9h15c1.6,0,2.9-1.3,2.9-2.9V18.9
						c0-1.6-1.3-2.9-2.9-2.9L81.2,16L81.2,16z M57.1,3.6v7.1h2.1V7.9l2.2,0l0.3-1.4h-2.5V5.2h4.3V3.6H57.1z M48.5,3.6v7.1h2.1V7.9
						l2.2,0l0.3-1.4h-2.5V5.2h4.3V3.6H48.5z M68.6,0.8c0,0.4,0,1.5,1.2,1.5h3.1l-0.1-0.4l-4.2-1.2L68.6,0.8L68.6,0.8z M65.9,3.6v7.1
						h7V9.2h-4.9V7.9l2.2,0l0.3-1.4h-2.5V5.2H73V3.6H65.9z"/>
				</g>
			</g>
		</g>
	</g>
</g>
</svg>
