<?xml version="1.0" encoding="utf-8"?>
<!-- Generator: Adobe Illustrator 23.0.1, SVG Export Plug-In . SVG Version: 6.00 Build 0)  -->
<svg version="1.1" id="Layer_1" xmlns="http://www.w3.org/2000/svg" xmlns:xlink="http://www.w3.org/1999/xlink" x="0px" y="0px"
	 viewBox="0 0 95 50" style="enable-background:new 0 0 95 50;" xml:space="preserve">
<style type="text/css">
	.st0{fill-rule:evenodd;clip-rule:evenodd;fill:#FFFFFF;}
	.st1{filter:url(#Adobe_OpacityMaskFilter);}
	.st2{mask:url(#SVGID_1_);fill-rule:evenodd;clip-rule:evenodd;fill:#BA8C60;}
	.st3{filter:url(#Adobe_OpacityMaskFilter_1_);}
	.st4{mask:url(#SVGID_2_);fill-rule:evenodd;clip-rule:evenodd;fill:#004B8D;}
	.st5{fill-rule:evenodd;clip-rule:evenodd;fill:#004B8D;}
	.st6{filter:url(#Adobe_OpacityMaskFilter_2_);}
	.st7{mask:url(#wyfyktu11f_1_);fill-rule:evenodd;clip-rule:evenodd;fill:#004B8D;}
</style>
<g>
	<g>
		<g>
			<g>
				<g>
					<path class="st0" d="M9.5,19c5.2,0,9.5-4,9.5-9c0-5-4.3-9-9.5-9S0,5,0,10C0,15,4.3,19,9.5,19"/>
					<g transform="translate(-572 -7278) translate(105 7130) translate(226.5) translate(240.5 148.259)">
						<defs>
							<filter id="Adobe_OpacityMaskFilter" filterUnits="userSpaceOnUse" x="0" y="0" width="19" height="19.4">
								<feColorMatrix  type="matrix" values="1 0 0 0 0  0 1 0 0 0  0 0 1 0 0  0 0 0 1 0"/>
							</filter>
						</defs>
						<mask maskUnits="userSpaceOnUse" x="0" y="0" width="19" height="19.4" id="SVGID_1_">
							<g class="st1">
								<path id="uuutyopswa_1_" class="st0" d="M0,0h19v19.4H0V0z"/>
							</g>
						</mask>
						<path class="st2" d="M6.4,5.4C5.9,5.9,5.5,6.4,5,6.9c1.5,1.6,3,3.2,4.5,4.7c1.5-1.5,3.1-3.1,4.5-4.7c-0.4-0.5-0.9-1-1.4-1.4
							c-1.1,1-2.1,2-3.1,3.1C8.5,7.5,7.5,6.5,6.4,5.4 M7.9,4.1c0.6,0.5,1.1,1,1.7,1.5c0.6-0.5,1.1-1,1.7-1.5
							c-0.6-0.5-1.1-0.9-1.7-1.3C9,3.2,8.4,3.7,7.9,4.1 M3.8,8.4c-0.4,0.5-0.7,0.9-1,1.4c1.9,2.6,4.2,5,6.8,6.9
							c2.6-1.9,4.9-4.2,6.8-6.9c-0.3-0.5-0.7-0.9-1-1.4c-1.7,2.2-3.7,4.2-5.7,6.1C7.5,12.6,5.5,10.5,3.8,8.4 M1.1,9.7
							c0-4.6,3.8-8.6,8.3-8.6c4.5,0,8.4,3.9,8.4,8.6c0,4.6-3.8,8.6-8.4,8.6C5,18.3,1.2,14.3,1.1,9.7 M0,9.7C0,4.4,4.3,0,9.5,0
							C14.7,0,19,4.3,19,9.7c0,5.4-4.3,9.7-9.5,9.7C4.3,19.5,0,15.1,0,9.7 M0.7,9.7c0,5,4,9.1,8.9,9.1c4.9,0,8.9-4.1,8.9-9.1
							s-4-9.1-8.9-9.1C4.6,0.7,0.7,4.7,0.7,9.7"/>
					</g>
					<g transform="translate(-572 -7278) translate(105 7130) translate(226.5) translate(240.5 148.259) translate(23 3.741)">
						<defs>
							<filter id="Adobe_OpacityMaskFilter_1_" filterUnits="userSpaceOnUse" x="0.3" y="0.1" width="71.6" height="13.7">
								<feColorMatrix  type="matrix" values="1 0 0 0 0  0 1 0 0 0  0 0 1 0 0  0 0 0 1 0"/>
							</filter>
						</defs>
						<mask maskUnits="userSpaceOnUse" x="0.3" y="0.1" width="71.6" height="13.7" id="SVGID_2_">
							<g class="st3">
								<path id="xz2b731t6c_1_" class="st0" d="M0.3,0.1h71.6v13.7H0.3V0.1z"/>
							</g>
						</mask>
						<path class="st4" d="M71.8,3.3h-1.3L68,8.7l-2.2-5.4l-1.6,0.2l2.7,6.5c0,0,0.2,0.5,0.2,0.9c0,0.6-0.8,1.9-2.7,1.8v1.1h0.3
							c1.9,0,3-1.6,3.6-2.8C68.2,11,71.8,3.3,71.8,3.3z M63.2,4.8l-0.2-1.2c-0.2,0-1.1-0.2-2.1-0.2c-0.8,0.1-1.4,0.4-1.7,0.6V3.4
							l-1.7,0.2v7.3h1.7V5c0.4-0.3,0.9-0.6,1.6-0.6C62.2,4.3,63.2,4.8,63.2,4.8L63.2,4.8z M50.3,6.6H56V6.3c0-1.9-1.5-2.9-3.3-2.9
							c-2.9,0-4,1.4-4,3.6c0,2.6,1.7,4.1,4.6,4.1c1.6,0,2.5-0.3,2.5-0.3V10c0,0-0.8,0.2-1.5,0.2c-1.3,0-2.5-0.4-3.1-1.1
							C50.5,8.4,50.3,7.4,50.3,6.6L50.3,6.6z M50.4,5.9c0.1-0.6,0.4-1.8,2-1.8c1.1,0,1.7,0.9,1.7,1.8H50.4L50.4,5.9z M44.5,11
							l3.6-7.5h-1.3L44.3,9l-2.8-5.5l-1.7,0.2l3.7,7.3H44.5z M39.2,7.2c0-2.3-1.6-3.9-4.1-3.9c-2.9,0-4.1,1.6-4.1,3.9
							c0,2.2,1.5,3.8,4.1,3.8C37.8,11,39.2,9.6,39.2,7.2z M37.3,7.2c0,1.2-0.2,3-2.2,3c-1.9,0-2.3-1.8-2.3-3c0-1.3,0.1-3.1,2.3-3.1
							C37,4.1,37.3,5.9,37.3,7.2z M27.6,11c1.3,0,2.2-0.3,2.2-0.3v-0.6c0,0-0.7,0.1-1.2,0.1c-1.2,0-2.5-0.5-3.2-1.2
							c-0.7-0.7-0.7-1.7-0.7-2.6c0-0.8,0.4-2.3,2.5-2.3c1.1,0,2.4,0.6,2.4,0.6V3.6c0,0-1.1-0.3-2.8-0.3c-2.9,0-3.9,1.7-3.9,3.6
							C22.9,9.3,24.2,11,27.6,11L27.6,11z M21.5,8.7c0-1.3-1.2-1.8-2.3-2.3c-0.3-0.1-1-0.3-1.5-0.6C17.3,5.6,17,5.4,17,5
							c0-0.7,0.7-0.9,1.5-0.9c1.1,0,2.4,0.6,2.4,0.6V3.6c0,0-1.2-0.3-2.2-0.3c-2.3,0-3.2,0.9-3.2,2.1c0,1.1,1.2,1.6,2.3,2
							c0.3,0.1,1,0.4,1.5,0.7C19.7,8.4,20,8.7,20,9c0,1-1.1,1.2-1.8,1.2c-1.1,0.1-2.8-0.1-2.8-0.1v0.6c0,0,1,0.3,2.6,0.3
							C20,11,21.5,10.4,21.5,8.7z M13.4,3.3l-1.7,0.2v7.3h1.7V3.3L13.4,3.3z M13.7,1.1c0-0.5-0.5-1-1.2-1c-0.7,0-1.2,0.4-1.2,1
							s0.5,1,1.2,1C13.1,2,13.7,1.7,13.7,1.1z M10.1,5.6c0-1.5-0.7-3-2-4C6.9,0.7,5.2,0.3,3.5,0.3H0.3v10.6h3.2
							c1.8,0,3.5-0.4,4.7-1.3C9.4,8.6,10.1,7.1,10.1,5.6L10.1,5.6z M8,5.6c0,1.7-0.9,3.3-2.6,4.1c-0.8,0.3-2,0.4-3.2,0.4v-9
							c1.2,0,2.4,0.1,3.2,0.4C7.1,2.3,8,3.9,8,5.6z"/>
					</g>
					<path class="st5" d="M35,34c0-1.1-0.9-1.9-1.5-2c-2.1,2.6-2.4,6.8-2.5,8.3C30.9,42,32.5,42,32.5,42c1.8-0.5,1.6-2,1.6-2
						s-0.2-0.1-0.2-0.5C33.9,39.1,35,34.4,35,34 M61.8,32c0.4,0,1.2-0.8,1.2-1.4c0-0.3-0.9-2.6-2.1-2.6c-0.4,0-0.9,0.5-0.9,1
						C60,29.7,60.5,32,61.8,32 M36,30c0.4,0,1-0.3,1-0.9c0-0.3-1-3.1-2.2-3.1c-0.4,0-0.8,0.5-0.8,1C34,27.7,34.1,30,36,30"/>
					<path class="st5" d="M40,18.2c-0.6-0.6-7.9-1.5-14.3,18.2c0,0.1-0.2,0.1-0.3,0c-1-5.2-0.6-11.1-0.7-12.1
						c-0.3-2.4-2.4-1.6-2.4-1.6c-0.9,1.9-0.3,17.1,1.2,19c0.9,0.4,3.5,0.2,4.1-0.4C27.7,41.4,31.4,22.2,40,18.2"/>
					<g transform="translate(-572 -7278) translate(105 7130) translate(226.5) translate(240.5 148.259) translate(64 22.741)">
						<defs>
							<filter id="Adobe_OpacityMaskFilter_2_" filterUnits="userSpaceOnUse" x="0.1" y="0.1" width="15.7" height="26.9">
								<feColorMatrix  type="matrix" values="1 0 0 0 0  0 1 0 0 0  0 0 1 0 0  0 0 0 1 0"/>
							</filter>
						</defs>
						<mask maskUnits="userSpaceOnUse" x="0.1" y="0.1" width="15.7" height="26.9" id="wyfyktu11f_1_">
							<g class="st6">
								<path id="aqtgivulbe_1_" class="st0" d="M0.1,0.1h15.7V27H0.1V0.1z"/>
							</g>
						</mask>
						<path class="st7" d="M14.1,9.3c-0.2,0-0.3,0.2-0.3,0.2c-2.1,3.9-4,7.1-5.6,7.2c-0.3,0-0.5-0.2-0.6-0.6l0,0
							C7.4,14.7,8.7,11,8.6,9.9c0-0.4-0.2-0.4-0.5-0.5C8.1,9.4,8,9.5,7.9,9.6c0,0-0.1,0.1-0.2,0C6.8,9.3,5.6,9.1,4.8,9
							c0.7-2.2,2.3-6.8,2.3-7.2c0-1-0.7-1.4-1.9-1.7C3.2,3.7,2,8.6,1.9,9c-0.6,0.6-1.6,0-1.8,1.2c0.5,0.5,1.4,1,1.4,1.4
							S0.8,13.6,1,19c0.4,0.1,1.8-1.4,1.8-1.9c0.4-4.2,1.4-5.7,1.4-5.7s1.6,0.1,2.6-0.1c0,0,0.1,0,0,0.1c-0.2,0.5-1.6,3.4-1.6,4.8
							c0,1.8,0.5,2.8,2,2.9c0.3,0,0.6,0,0.9,0c1.3-0.2,2.9-0.9,4.2-2.5c0.1-0.1,0.2,0,0.2,0.1c-2.1,7.7-6.1,9.6-7.8,10.1
							c0.1,0.5,3,0.4,5-1.4c2.4-2.1,4.1-5.3,4.8-7.8c0.2-0.8,0.4-1.6,0.6-2.4c0.3-1.5,0.5-3,0.5-4.6C15.8,10.3,14.4,9.3,14.1,9.3"/>
					</g>
					<path class="st5" d="M64.6,40.9L64.6,40.9c-2.3,0,0.3-7.9-2.8-7.5c-0.5,0.1-1.4,0.5-1.6,0.6c-0.1,0-0.1,0.1-0.1,0.1
						c-0.3,0.5-1.6,2.7-3.9,5.1c-0.2,0.2-0.5,0.1-0.6-0.1c-1.2-3.7,3.9-14.7,4-14.9c0.4-1.2-1.3-1.8-2.1-1.9
						c-1.8,2.6-4.9,10.9-4.6,17.4c0,0.1,0,0.2-0.1,0.2c-0.5,0.2-2.4,0.9-2.2-0.6c0.1-0.4,1-2.8,1-3.2c0-0.3-1.1-1.8-2-1.8
						c-0.3,0-3.5,4-4.6,5c-0.2,0.2-0.5,0.1-0.6-0.1C43.6,38,45,34.5,49,33.2c0,0,0.9-0.8,1-1c0.1-0.1,0.1-0.2,0-0.3
						c0-0.2-0.3-0.3-0.3-0.3c-2.2-1-7.2-0.9-8-1c0.6-2.8,2.6-7.4,2.6-7.8c0.1-0.7-0.6-1.3-2-1.7c-2.2,3.9-4.1,9.1-4.2,9.5
						c-0.4,0.4-0.9,0.2-1.3,1.3c0,0.5,0.8,1,0.8,1.5c0,0.4-0.8,2.8-0.5,8.7c1.1,0.1,2.3-1.7,2.4-2.2c0.7-4.5,1.4-6.6,1.4-6.6
						c1.7,0,3.2-0.1,4.4-0.3c0,0,0.1,0,0,0.1c-2.1,1.8-4.1,3.5-4.1,6.9c0,1.4,1.5,2.1,2.3,2.1c1.4,0,2.9-1.3,3.6-2.1
						c0.1-0.1,0.4-0.1,0.4,0.1C47.9,41.3,49,42,50,42c1,0,2.4-0.9,2.9-1.2c0,0,0.1,0,0.1,0c0.4,0.4,1.1,1.2,1.8,1.2
						c2.1,0,4.2-3,5.3-4.9c0.1-0.2,0.4-0.1,0.4,0.1c0.4,2,0.4,4.8,2.4,4.8c0.5,0,1.2-0.1,1.8-0.4C65.2,41.5,65,40.9,64.6,40.9"/>
				</g>
			</g>
		</g>
	</g>
</g>
<text transform="matrix(1 0 0 1 325 -145)" style="font-family:'MyriadPro-Regular'; font-size:12px;">the watch</text>
</svg>
