<svg xmlns="http://www.w3.org/2000/svg" width="340" height="245" viewBox="0 0 340 245">
    <g fill="none" fill-rule="evenodd">
        <g>
            <g>
                <g>
                    <path fill="#3B55FF" fill-rule="nonzero" d="M20.006 4.394l.836 1.817-9.042 4.158 8.08.658c77.177 6.667 124.67 18.94 142.433 37.106l.511.536.319-.02c13.161-.728 27.547 8.724 39.733 26.613l.492.73c17.418 26.025 28.08 65.587 28.292 111.127l.003 1.382h-2c0-45.746-10.598-85.46-27.957-111.397-11.413-17.053-24.656-26.298-36.785-26.475l-.39-.002.31.385c3.43 4.39 5.236 9.103 5.417 14.142l.015.843c0 10.176-2.81 16.875-7.772 19.79-4.334 2.544-9.92 1.854-14.732-1.433-4.756-3.25-7.963-8.496-8.219-13.996-.297-6.378 3.268-12.495 10.806-17.42 3.066-2.004 6.29-3.298 9.612-3.911l.348-.061-.596-.575C141.9 31.63 96.228 19.838 22.67 13.28l-2.958-.26-8.073-.658 8.248 5.567-1.119 1.658-11.412-7.702-1.474-.995 1.615-.743 12.509-5.753zm142.017 46.369l-.11.012c-3.642.41-7.158 1.677-10.463 3.837-6.977 4.559-10.164 10.028-9.902 15.653.225 4.84 3.09 9.526 7.35 12.437 4.219 2.884 8.991 3.473 12.59 1.36 4.255-2.499 6.785-8.53 6.785-18.065 0-5.31-1.98-10.272-5.94-14.883l-.31-.351z" transform="translate(-1067 -1702) translate(32 1582) translate(1039.182 127.433)"/>
                    <text fill="#3D5AFE" font-family="ProximaNova-Bold, Proxima Nova" font-size="20" font-weight="bold" letter-spacing=".5" transform="translate(-1067 -1702) translate(32 1582) translate(1039.182 127.433)">
                        <tspan x="165.268" y="196.567">Your logo here.</tspan>
                    </text>
                </g>
            </g>
        </g>
    </g>
</svg>
